<svg width="31" height="19" viewBox="0 0 31 19" fill="none" xmlns="http://www.w3.org/2000/svg">
<path d="M0.679296 1.19336C1.08555 0.787109 1.56655 0.583984 2.1223 0.583984C2.67696 0.583984 3.15742 0.787109 3.56367 1.19336L15.4668 13.0965L27.4105 1.15273C27.7897 0.773568 28.2637 0.583984 28.8324 0.583984C29.4012 0.583984 29.8887 0.787109 30.2949 1.19336C30.7012 1.59961 30.9043 2.08061 30.9043 2.63636C30.9043 3.19103 30.7012 3.67148 30.2949 4.07773L16.6043 17.7277C16.4418 17.8902 16.2658 18.0056 16.0762 18.0739C15.8866 18.141 15.6835 18.1746 15.4668 18.1746C15.2501 18.1746 15.047 18.141 14.8574 18.0739C14.6678 18.0056 14.4918 17.8902 14.3293 17.7277L0.638672 4.03711C0.259504 3.65794 0.0699215 3.19103 0.0699215 2.63636C0.0699215 2.08061 0.273046 1.59961 0.679296 1.19336Z" fill="#111111"/>
</svg>
