<svg width="275" height="28" viewBox="0 0 275 28" fill="none" xmlns="http://www.w3.org/2000/svg">
<path d="M9.46313 13.5098C9.67646 14.2031 9.99646 14.5498 10.4231 14.5498C10.8765 14.5498 11.2231 14.1764 11.4631 13.4298C11.7031 12.6564 11.9165 11.8831 12.1031 11.1098C12.3165 10.3098 12.5298 9.5231 12.7431 8.74977C13.0098 7.9231 13.2498 7.10977 13.4631 6.30976C13.7031 5.4831 13.9698 4.6831 14.2631 3.90976C14.5565 3.13643 15.0098 2.54977 15.6231 2.14977C16.2365 1.7231 16.9031 1.50976 17.6231 1.50976C17.8631 1.50976 18.1031 1.53643 18.3431 1.58977C18.6098 1.61643 18.8631 1.69643 19.1031 1.82976C19.7431 2.1231 20.0498 2.5231 20.0231 3.02976C20.0231 3.53643 19.9165 4.0431 19.7031 4.54977C19.2765 5.69643 18.8498 6.82976 18.4231 7.94976C17.9965 9.06976 17.5965 10.2164 17.2231 11.3898C16.5298 13.6564 15.8631 15.9231 15.2231 18.1898C14.6098 20.4298 13.8631 22.6431 12.9831 24.8298C12.7965 25.3098 12.6098 25.7098 12.4231 26.0298C12.2631 26.3498 12.0898 26.6031 11.9031 26.7898C11.7431 26.9764 11.5431 27.1098 11.3031 27.1898C11.0631 27.2431 10.7831 27.2698 10.4631 27.2698C9.71646 27.2698 9.07646 27.1631 8.54313 26.9498C8.00979 26.7098 7.59646 26.2164 7.30313 25.4698C6.39646 23.2564 5.66313 21.0031 5.10313 18.7098C4.54313 16.4164 3.90313 14.1364 3.18313 11.8698C2.78313 10.6431 2.36979 9.42977 1.94313 8.22976C1.54313 7.0031 1.23646 5.74977 1.02312 4.46976C0.996458 4.2031 0.929792 3.93643 0.823125 3.66976C0.743125 3.4031 0.689792 3.14977 0.663125 2.90977C0.663125 2.6431 0.703125 2.4031 0.783125 2.18976C0.889792 1.94976 1.10313 1.73643 1.42313 1.54976C1.84979 1.2831 2.30313 1.14976 2.78313 1.14976C3.15646 1.14976 3.52979 1.22976 3.90313 1.38976C4.27646 1.54976 4.64979 1.73643 5.02313 1.94976C5.50313 2.2431 5.86313 2.61643 6.10313 3.06977C6.36979 3.5231 6.58313 4.01643 6.74313 4.54977C7.19646 6.01643 7.63646 7.4831 8.06313 8.94976C8.51646 10.3898 8.96979 11.8564 9.42313 13.3498C9.42313 13.3764 9.42313 13.4031 9.42313 13.4298C9.44979 13.4564 9.46313 13.4831 9.46313 13.5098ZM21.7169 14.3898C21.8502 12.7364 21.8635 11.0698 21.7569 9.38977C21.6769 7.70976 21.6502 6.09643 21.6769 4.54977C21.7302 3.61643 22.0369 2.85643 22.5969 2.26976C23.1569 1.6831 23.8369 1.38976 24.6369 1.38976C25.1435 1.38976 25.5969 1.4831 25.9969 1.66976C26.4235 1.85643 26.6902 2.21643 26.7969 2.74976C26.9569 3.57643 27.0235 4.45643 26.9969 5.38976C26.9969 6.3231 26.9702 7.21643 26.9169 8.06976C26.8369 9.53643 26.7835 11.0031 26.7569 12.4698C26.7569 13.9364 26.7569 15.4164 26.7569 16.9098C26.7302 18.2698 26.7169 19.6164 26.7169 20.9498C26.7435 22.2564 26.7435 23.5898 26.7169 24.9498C26.7169 25.9364 26.5435 26.6164 26.1969 26.9898C25.8502 27.3364 25.1969 27.5098 24.2369 27.5098C23.4902 27.5098 22.8769 27.3231 22.3969 26.9498C22.1569 26.7631 21.9835 26.5498 21.8769 26.3098C21.7969 26.0698 21.7435 25.8164 21.7169 25.5498C21.6902 25.2831 21.6769 25.0164 21.6769 24.7498C21.7035 24.4564 21.7169 24.1898 21.7169 23.9498C21.6635 22.3231 21.6502 20.7098 21.6769 19.1098C21.7035 17.5098 21.7169 15.9364 21.7169 14.3898ZM28.99 14.1498C29.07 12.5498 29.0833 10.8298 29.03 8.98976C29.0033 7.1231 29.0833 5.22976 29.27 3.30976C29.3233 2.69643 29.47 2.25643 29.71 1.98977C29.95 1.7231 30.39 1.58977 31.03 1.58977C32.79 1.5631 34.55 1.5231 36.31 1.46976C38.0967 1.38976 39.87 1.3231 41.63 1.26976C42.11 1.26976 42.5767 1.29643 43.03 1.34976C43.4833 1.4031 43.9367 1.53643 44.39 1.74976C44.87 1.98976 45.1767 2.30976 45.31 2.70977C45.47 3.10977 45.5233 3.54976 45.47 4.02977C45.4167 4.4831 45.2833 4.8431 45.07 5.10977C44.8567 5.34977 44.51 5.5231 44.03 5.62976C43.7633 5.6831 43.4967 5.7231 43.23 5.74976C42.99 5.77643 42.7367 5.78976 42.47 5.78976C42.0967 5.78976 41.7233 5.74976 41.35 5.66977C40.6033 5.53643 39.9367 5.46977 39.35 5.46977C38.71 5.46977 38.07 5.50977 37.43 5.58976C36.8167 5.66976 36.19 5.74976 35.55 5.82976C35.39 5.85643 35.2167 5.90976 35.03 5.98976C34.8433 6.0431 34.75 6.17643 34.75 6.38977C34.6967 7.13643 34.59 7.8831 34.43 8.62976C34.27 9.34976 34.31 10.0831 34.55 10.8298C34.6833 11.3631 34.8833 11.7364 35.15 11.9498C35.4433 12.1364 35.8567 12.2298 36.39 12.2298C36.6833 12.2031 36.95 12.1898 37.19 12.1898C37.4567 12.1898 37.7367 12.1898 38.03 12.1898H39.87H40.87C41.5367 12.1898 42.0567 12.3098 42.43 12.5498C42.83 12.7898 43.0567 13.2698 43.11 13.9898C43.19 15.9098 42.4833 16.9098 40.99 16.9898C40.5633 17.0164 40.1367 17.0431 39.71 17.0698C39.31 17.0698 38.8967 17.0698 38.47 17.0698C38.1767 17.0698 37.87 17.0698 37.55 17.0698C37.23 17.0698 36.9233 17.0431 36.63 16.9898C36.55 16.9898 36.47 16.9898 36.39 16.9898C36.31 16.9631 36.23 16.9498 36.15 16.9498C35.03 16.9498 34.47 17.5898 34.47 18.8698C34.47 19.0298 34.4567 19.1898 34.43 19.3498C34.43 19.4831 34.4567 19.6164 34.51 19.7498C34.6167 20.4698 34.71 21.0431 34.79 21.4698C34.8967 21.8698 35.03 22.1764 35.19 22.3898C35.3767 22.6031 35.6433 22.7364 35.99 22.7898C36.3367 22.8431 36.8033 22.8698 37.39 22.8698H38.31C39.1633 22.8431 40.0167 22.8298 40.87 22.8298C41.75 22.8031 42.6167 22.7898 43.47 22.7898C44.1633 22.7898 44.63 23.0031 44.87 23.4298C45.1367 23.8564 45.3367 24.5364 45.47 25.4698C45.55 26.1364 45.4033 26.6164 45.03 26.9098C44.6833 27.1764 44.23 27.3631 43.67 27.4698C42.6033 27.6298 41.5367 27.7098 40.47 27.7098C39.8567 27.7098 39.2433 27.6831 38.63 27.6298C38.0433 27.6031 37.4433 27.5631 36.83 27.5098C36.2967 27.4564 35.7633 27.4164 35.23 27.3898C34.6967 27.3631 34.1633 27.3498 33.63 27.3498C33.3633 27.3498 33.0967 27.3498 32.83 27.3498C32.5633 27.3498 32.2967 27.3631 32.03 27.3898C31.4167 27.3898 30.91 27.3631 30.51 27.3098C30.1367 27.2298 29.83 27.0831 29.59 26.8698C29.3767 26.6564 29.23 26.3631 29.15 25.9898C29.07 25.5898 29.03 25.0698 29.03 24.4298C28.9767 22.8298 28.95 21.2031 28.95 19.5498C28.9767 17.8698 28.99 16.0698 28.99 14.1498ZM59.8209 19.5898C59.7676 19.1364 59.6609 18.8031 59.5009 18.5898C59.3676 18.3498 59.2209 18.2298 59.0609 18.2298C58.9276 18.2298 58.7809 18.3498 58.6209 18.5898C58.4876 18.8031 58.3943 19.1364 58.3409 19.5898C58.2343 20.4164 58.1009 21.3498 57.9409 22.3898C57.8076 23.4298 57.6476 24.3364 57.4609 25.1098C57.2476 25.8031 56.9143 26.3898 56.4609 26.8698C56.0343 27.3231 55.4343 27.5764 54.6609 27.6298C54.1543 27.6298 53.7276 27.5898 53.3809 27.5098C53.0609 27.4564 52.7809 27.3498 52.5409 27.1898C52.3009 27.0031 52.0876 26.7631 51.9009 26.4698C51.7409 26.1498 51.5809 25.7498 51.4209 25.2698C50.7543 23.2431 50.2343 21.1898 49.8609 19.1098C49.5143 17.0031 49.1409 14.8964 48.7409 12.7898C48.5276 11.7231 48.3143 10.6564 48.1009 9.58977C47.9143 8.5231 47.7009 7.45643 47.4609 6.38977C47.3809 6.09643 47.3276 5.8031 47.3009 5.50977C47.2743 5.21643 47.2609 4.9231 47.2609 4.62976C47.3143 2.7631 48.2076 1.82976 49.9409 1.82976C51.3276 1.82976 52.2076 2.5231 52.5809 3.90976C52.8209 4.94977 53.0343 6.0031 53.2209 7.06976C53.4343 8.10976 53.6343 9.14976 53.8209 10.1898C53.9809 11.0164 54.2209 11.4298 54.5409 11.4298C54.8876 11.4298 55.1143 11.0164 55.2209 10.1898C55.3009 9.54976 55.3543 8.9231 55.3809 8.30976C55.4343 7.69643 55.5276 7.09643 55.6609 6.50976C55.7143 6.21643 55.7543 5.9231 55.7809 5.62976C55.8343 5.33643 55.9009 5.0431 55.9809 4.74977C56.6209 2.66977 57.9809 1.62977 60.0609 1.62977C60.1676 1.62977 60.2609 1.6431 60.3409 1.66976C60.4209 1.66976 60.5143 1.66976 60.6209 1.66976C61.1543 1.7231 61.6209 2.10976 62.0209 2.82976C62.4476 3.5231 62.7276 4.37643 62.8609 5.38976C62.9676 6.0831 63.0876 6.78977 63.2209 7.50977C63.3543 8.2031 63.4876 8.89643 63.6209 9.58977C63.7809 10.3898 63.9809 10.7898 64.2209 10.7898C64.4876 10.7898 64.7143 10.3898 64.9009 9.58977C65.0343 9.13643 65.1409 8.69643 65.2209 8.26976C65.3276 7.81643 65.4343 7.38976 65.5409 6.98977C65.8609 5.70976 66.3676 4.46976 67.0609 3.26977C67.3543 2.7631 67.6343 2.4031 67.9009 2.18976C68.1943 1.97643 68.5409 1.86976 68.9409 1.86976C69.3143 1.86976 69.7543 1.94976 70.2609 2.10976C71.0343 2.37643 71.4609 2.77643 71.5409 3.30976C71.6209 3.81643 71.5943 4.34976 71.4609 4.90977C71.1676 6.2431 70.8343 7.5631 70.4609 8.86976C70.0876 10.1498 69.7543 11.4698 69.4609 12.8298C69.1676 14.3498 68.9009 15.8831 68.6609 17.4298C68.4476 18.9764 68.2076 20.5231 67.9409 22.0698C67.8343 22.6031 67.7143 23.1231 67.5809 23.6298C67.4476 24.1098 67.3143 24.5898 67.1809 25.0698C66.8609 26.0564 66.4476 26.7364 65.9409 27.1098C65.4609 27.4831 64.7276 27.6698 63.7409 27.6698C62.7809 27.6698 62.1009 27.4431 61.7009 26.9898C61.3009 26.5098 60.9943 25.8164 60.7809 24.9098C60.5676 24.0298 60.3809 23.1498 60.2209 22.2698C60.0876 21.3631 59.9543 20.4698 59.8209 19.5898ZM98.1984 27.4698C97.6651 27.4698 97.2118 27.4431 96.8384 27.3898C96.4918 27.3364 96.1984 27.2164 95.9584 27.0298C95.7451 26.8431 95.5584 26.5898 95.3984 26.2698C95.2384 25.9498 95.0918 25.5231 94.9584 24.9898C94.8784 24.6164 94.7451 24.3364 94.5584 24.1498C94.3718 23.9364 94.0651 23.8031 93.6384 23.7498C93.2118 23.6964 92.7851 23.6564 92.3584 23.6298C91.9584 23.6031 91.5451 23.5898 91.1184 23.5898C90.3984 23.5898 89.8118 23.7231 89.3584 23.9898C88.9318 24.2564 88.5718 24.7364 88.2784 25.4298C87.7184 26.8431 86.7851 27.5498 85.4784 27.5498C84.9984 27.5498 84.4784 27.4298 83.9184 27.1898C83.4384 26.9764 83.1051 26.7231 82.9184 26.4298C82.7318 26.1364 82.7451 25.6964 82.9584 25.1098C83.5718 23.2964 84.0918 21.4698 84.5184 19.6298C84.9718 17.7631 85.3984 15.9098 85.7984 14.0698C86.2251 12.2031 86.6518 10.3498 87.0784 8.50976C87.5318 6.66976 88.0518 4.85643 88.6384 3.06977C88.9051 2.29643 89.3051 1.8031 89.8384 1.58977C90.3718 1.34977 90.9451 1.22977 91.5584 1.22977C92.3318 1.22977 93.0384 1.3231 93.6784 1.50976C94.3451 1.66976 94.8118 2.17643 95.0784 3.02976C95.7718 5.0831 96.3451 7.2031 96.7984 9.38977C97.2518 11.5764 97.7451 13.7098 98.2784 15.7898C98.6251 17.2298 99.0118 18.6431 99.4384 20.0298C99.8651 21.3898 100.278 22.7764 100.678 24.1898C101.052 25.4698 101.052 26.3364 100.678 26.7898C100.332 27.2431 99.5051 27.4698 98.1984 27.4698ZM92.2784 14.1498C92.1718 13.8298 92.0251 13.6698 91.8384 13.6698C91.6518 13.6698 91.4784 13.8564 91.3184 14.2298C91.1851 14.6031 91.0518 15.0298 90.9184 15.5098C90.8118 15.9898 90.7184 16.4564 90.6384 16.9098C90.5851 17.3364 90.5584 17.6298 90.5584 17.7898C90.5318 18.1898 90.6251 18.4431 90.8384 18.5498C91.0784 18.6564 91.3451 18.7098 91.6384 18.7098H92.4784H92.6384C92.9318 18.7098 93.1184 18.5898 93.1984 18.3498C93.2784 18.1098 93.2651 17.8431 93.1584 17.5498C92.9984 17.0164 92.8651 16.4564 92.7584 15.8698C92.6518 15.2831 92.4918 14.7098 92.2784 14.1498ZM108.222 12.2698V19.5898C108.222 19.9631 108.249 20.3364 108.302 20.7098C108.355 21.0831 108.475 21.4298 108.662 21.7498C108.875 22.0964 109.089 22.3098 109.302 22.3898C109.515 22.4431 109.809 22.4698 110.182 22.4698C110.715 22.4164 111.249 22.3898 111.782 22.3898C112.315 22.3631 112.849 22.3498 113.382 22.3498H115.542H116.622C116.835 22.3498 117.009 22.4031 117.142 22.5098C117.275 22.5898 117.409 22.6964 117.542 22.8298C117.782 23.0698 117.942 23.3364 118.022 23.6298C118.129 23.8964 118.182 24.1764 118.182 24.4698C118.182 24.7631 118.155 25.0564 118.102 25.3498C118.075 25.6431 118.062 25.9364 118.062 26.2298C118.062 26.4698 117.995 26.6698 117.862 26.8298C117.755 26.9631 117.609 27.0698 117.422 27.1498C117.262 27.2298 117.075 27.2831 116.862 27.3098C116.675 27.3098 116.502 27.3098 116.342 27.3098C115.355 27.3364 114.369 27.3764 113.382 27.4298C112.422 27.4564 111.449 27.4698 110.462 27.4698C109.475 27.4698 108.489 27.4431 107.502 27.3898C106.542 27.3098 105.569 27.1898 104.582 27.0298C103.782 26.8964 103.249 26.5764 102.982 26.0698C102.742 25.5631 102.595 25.0031 102.542 24.3898C102.409 22.5764 102.315 20.8031 102.262 19.0698C102.235 17.3098 102.235 15.5764 102.262 13.8698C102.315 12.1364 102.395 10.4031 102.502 8.66976C102.609 6.93643 102.715 5.1631 102.822 3.34976C102.849 2.97643 102.889 2.6831 102.942 2.46976C102.995 2.25643 103.089 2.09643 103.222 1.98977C103.355 1.8831 103.542 1.81643 103.782 1.78977C104.022 1.73643 104.329 1.69643 104.702 1.66976C104.835 1.66976 104.955 1.66976 105.062 1.66976C105.169 1.6431 105.275 1.62977 105.382 1.62977C106.475 1.62977 107.222 1.86977 107.622 2.34977C108.022 2.8031 108.222 3.66976 108.222 4.94977V12.2698ZM125.995 12.2698V19.5898C125.995 19.9631 126.022 20.3364 126.075 20.7098C126.129 21.0831 126.249 21.4298 126.435 21.7498C126.649 22.0964 126.862 22.3098 127.075 22.3898C127.289 22.4431 127.582 22.4698 127.955 22.4698C128.489 22.4164 129.022 22.3898 129.555 22.3898C130.089 22.3631 130.622 22.3498 131.155 22.3498H133.315H134.395C134.609 22.3498 134.782 22.4031 134.915 22.5098C135.049 22.5898 135.182 22.6964 135.315 22.8298C135.555 23.0698 135.715 23.3364 135.795 23.6298C135.902 23.8964 135.955 24.1764 135.955 24.4698C135.955 24.7631 135.929 25.0564 135.875 25.3498C135.849 25.6431 135.835 25.9364 135.835 26.2298C135.835 26.4698 135.769 26.6698 135.635 26.8298C135.529 26.9631 135.382 27.0698 135.195 27.1498C135.035 27.2298 134.849 27.2831 134.635 27.3098C134.449 27.3098 134.275 27.3098 134.115 27.3098C133.129 27.3364 132.142 27.3764 131.155 27.4298C130.195 27.4564 129.222 27.4698 128.235 27.4698C127.249 27.4698 126.262 27.4431 125.275 27.3898C124.315 27.3098 123.342 27.1898 122.355 27.0298C121.555 26.8964 121.022 26.5764 120.755 26.0698C120.515 25.5631 120.369 25.0031 120.315 24.3898C120.182 22.5764 120.089 20.8031 120.035 19.0698C120.009 17.3098 120.009 15.5764 120.035 13.8698C120.089 12.1364 120.169 10.4031 120.275 8.66976C120.382 6.93643 120.489 5.1631 120.595 3.34976C120.622 2.97643 120.662 2.6831 120.715 2.46976C120.769 2.25643 120.862 2.09643 120.995 1.98977C121.129 1.8831 121.315 1.81643 121.555 1.78977C121.795 1.73643 122.102 1.69643 122.475 1.66976C122.609 1.66976 122.729 1.66976 122.835 1.66976C122.942 1.6431 123.049 1.62977 123.155 1.62977C124.249 1.62977 124.995 1.86977 125.395 2.34977C125.795 2.8031 125.995 3.66976 125.995 4.94977V12.2698ZM153.209 22.5898C153.209 23.1231 153.209 23.6564 153.209 24.1898C153.235 24.6964 153.222 25.2164 153.169 25.7498C153.115 26.4431 152.889 26.9231 152.489 27.1898C152.115 27.4564 151.462 27.5898 150.529 27.5898C149.809 27.5898 149.222 27.4831 148.769 27.2698C148.342 27.0564 148.129 26.5231 148.129 25.6698C148.102 22.1764 148.089 18.6164 148.089 14.9898C148.089 11.3631 148.089 7.8031 148.089 4.30976C148.089 3.0031 148.689 2.18976 149.889 1.86976C150.822 1.65643 151.742 1.4831 152.649 1.34976C153.555 1.21643 154.462 1.14976 155.369 1.14976C157.155 1.14976 158.862 1.4031 160.489 1.90976C161.182 2.1231 161.822 2.54976 162.409 3.18976C163.022 3.82976 163.542 4.5631 163.969 5.38976C164.422 6.21643 164.755 7.0831 164.969 7.98976C165.182 8.86976 165.249 9.6831 165.169 10.4298C164.955 12.4031 164.209 14.0298 162.929 15.3098C162.342 15.8698 161.995 16.4831 161.889 17.1498C161.809 17.7898 161.862 18.4564 162.049 19.1498C162.315 20.1364 162.662 21.0698 163.089 21.9498C163.542 22.8298 164.022 23.6964 164.529 24.5498C164.955 25.2698 165.075 25.8698 164.889 26.3498C164.729 26.8031 164.262 27.0698 163.489 27.1498C163.115 27.2031 162.755 27.2564 162.409 27.3098C162.062 27.3364 161.742 27.3498 161.449 27.3498C160.675 27.3498 160.022 27.1498 159.489 26.7498C158.982 26.3498 158.582 25.5364 158.289 24.3098C158.102 23.5898 157.902 22.8698 157.689 22.1498C157.502 21.4298 157.315 20.7098 157.129 19.9898C156.995 19.4831 156.675 19.0298 156.169 18.6298C155.689 18.2031 155.182 17.9898 154.649 17.9898C154.275 17.9898 153.955 18.1231 153.689 18.3898C153.422 18.6298 153.275 18.9764 153.249 19.4298C153.195 19.9631 153.169 20.4964 153.169 21.0298C153.195 21.5364 153.209 22.0564 153.209 22.5898ZM158.929 9.70976C158.929 8.58976 158.595 7.6431 157.929 6.86976C157.289 6.06977 156.462 5.66977 155.449 5.66977C155.022 5.66977 154.609 5.7631 154.209 5.94976C153.809 6.10976 153.582 6.4431 153.529 6.94977C153.529 7.77643 153.475 8.6831 153.369 9.66977C153.262 10.6298 153.302 11.5231 153.489 12.3498C153.595 12.8564 153.835 13.1631 154.209 13.2698C154.582 13.3764 154.995 13.4298 155.449 13.4298C156.515 13.4298 157.355 13.1098 157.969 12.4698C158.609 11.8031 158.929 10.8831 158.929 9.70976ZM167.193 14.1498C167.273 12.5498 167.286 10.8298 167.233 8.98976C167.206 7.1231 167.286 5.22976 167.473 3.30976C167.526 2.69643 167.673 2.25643 167.913 1.98977C168.153 1.7231 168.593 1.58977 169.233 1.58977C170.993 1.5631 172.753 1.5231 174.513 1.46976C176.3 1.38976 178.073 1.3231 179.833 1.26976C180.313 1.26976 180.78 1.29643 181.233 1.34976C181.686 1.4031 182.14 1.53643 182.593 1.74976C183.073 1.98976 183.38 2.30976 183.513 2.70977C183.673 3.10977 183.726 3.54976 183.673 4.02977C183.62 4.4831 183.486 4.8431 183.273 5.10977C183.06 5.34977 182.713 5.5231 182.233 5.62976C181.966 5.6831 181.7 5.7231 181.433 5.74976C181.193 5.77643 180.94 5.78976 180.673 5.78976C180.3 5.78976 179.926 5.74976 179.553 5.66977C178.806 5.53643 178.14 5.46977 177.553 5.46977C176.913 5.46977 176.273 5.50977 175.633 5.58976C175.02 5.66976 174.393 5.74976 173.753 5.82976C173.593 5.85643 173.42 5.90976 173.233 5.98976C173.046 6.0431 172.953 6.17643 172.953 6.38977C172.9 7.13643 172.793 7.8831 172.633 8.62976C172.473 9.34976 172.513 10.0831 172.753 10.8298C172.886 11.3631 173.086 11.7364 173.353 11.9498C173.646 12.1364 174.06 12.2298 174.593 12.2298C174.886 12.2031 175.153 12.1898 175.393 12.1898C175.66 12.1898 175.94 12.1898 176.233 12.1898H178.073H179.073C179.74 12.1898 180.26 12.3098 180.633 12.5498C181.033 12.7898 181.26 13.2698 181.313 13.9898C181.393 15.9098 180.686 16.9098 179.193 16.9898C178.766 17.0164 178.34 17.0431 177.913 17.0698C177.513 17.0698 177.1 17.0698 176.673 17.0698C176.38 17.0698 176.073 17.0698 175.753 17.0698C175.433 17.0698 175.126 17.0431 174.833 16.9898C174.753 16.9898 174.673 16.9898 174.593 16.9898C174.513 16.9631 174.433 16.9498 174.353 16.9498C173.233 16.9498 172.673 17.5898 172.673 18.8698C172.673 19.0298 172.66 19.1898 172.633 19.3498C172.633 19.4831 172.66 19.6164 172.713 19.7498C172.82 20.4698 172.913 21.0431 172.993 21.4698C173.1 21.8698 173.233 22.1764 173.393 22.3898C173.58 22.6031 173.846 22.7364 174.193 22.7898C174.54 22.8431 175.006 22.8698 175.593 22.8698H176.513C177.366 22.8431 178.22 22.8298 179.073 22.8298C179.953 22.8031 180.82 22.7898 181.673 22.7898C182.366 22.7898 182.833 23.0031 183.073 23.4298C183.34 23.8564 183.54 24.5364 183.673 25.4698C183.753 26.1364 183.606 26.6164 183.233 26.9098C182.886 27.1764 182.433 27.3631 181.873 27.4698C180.806 27.6298 179.74 27.7098 178.673 27.7098C178.06 27.7098 177.446 27.6831 176.833 27.6298C176.246 27.6031 175.646 27.5631 175.033 27.5098C174.5 27.4564 173.966 27.4164 173.433 27.3898C172.9 27.3631 172.366 27.3498 171.833 27.3498C171.566 27.3498 171.3 27.3498 171.033 27.3498C170.766 27.3498 170.5 27.3631 170.233 27.3898C169.62 27.3898 169.113 27.3631 168.713 27.3098C168.34 27.2298 168.033 27.0831 167.793 26.8698C167.58 26.6564 167.433 26.3631 167.353 25.9898C167.273 25.5898 167.233 25.0698 167.233 24.4298C167.18 22.8298 167.153 21.2031 167.153 19.5498C167.18 17.8698 167.193 16.0698 167.193 14.1498ZM194.424 13.5098C194.637 14.2031 194.957 14.5498 195.384 14.5498C195.837 14.5498 196.184 14.1764 196.424 13.4298C196.664 12.6564 196.877 11.8831 197.064 11.1098C197.277 10.3098 197.491 9.5231 197.704 8.74977C197.971 7.9231 198.211 7.10977 198.424 6.30976C198.664 5.4831 198.931 4.6831 199.224 3.90976C199.517 3.13643 199.971 2.54977 200.584 2.14977C201.197 1.7231 201.864 1.50976 202.584 1.50976C202.824 1.50976 203.064 1.53643 203.304 1.58977C203.571 1.61643 203.824 1.69643 204.064 1.82976C204.704 2.1231 205.011 2.5231 204.984 3.02976C204.984 3.53643 204.877 4.0431 204.664 4.54977C204.237 5.69643 203.811 6.82976 203.384 7.94976C202.957 9.06976 202.557 10.2164 202.184 11.3898C201.491 13.6564 200.824 15.9231 200.184 18.1898C199.571 20.4298 198.824 22.6431 197.944 24.8298C197.757 25.3098 197.571 25.7098 197.384 26.0298C197.224 26.3498 197.051 26.6031 196.864 26.7898C196.704 26.9764 196.504 27.1098 196.264 27.1898C196.024 27.2431 195.744 27.2698 195.424 27.2698C194.677 27.2698 194.037 27.1631 193.504 26.9498C192.971 26.7098 192.557 26.2164 192.264 25.4698C191.357 23.2564 190.624 21.0031 190.064 18.7098C189.504 16.4164 188.864 14.1364 188.144 11.8698C187.744 10.6431 187.331 9.42977 186.904 8.22976C186.504 7.0031 186.197 5.74977 185.984 4.46976C185.957 4.2031 185.891 3.93643 185.784 3.66976C185.704 3.4031 185.651 3.14977 185.624 2.90977C185.624 2.6431 185.664 2.4031 185.744 2.18976C185.851 1.94976 186.064 1.73643 186.384 1.54976C186.811 1.2831 187.264 1.14976 187.744 1.14976C188.117 1.14976 188.491 1.22976 188.864 1.38976C189.237 1.54976 189.611 1.73643 189.984 1.94976C190.464 2.2431 190.824 2.61643 191.064 3.06977C191.331 3.5231 191.544 4.01643 191.704 4.54977C192.157 6.01643 192.597 7.4831 193.024 8.94976C193.477 10.3898 193.931 11.8564 194.384 13.3498C194.384 13.3764 194.384 13.4031 194.384 13.4298C194.411 13.4564 194.424 13.4831 194.424 13.5098ZM206.678 14.3898C206.811 12.7364 206.824 11.0698 206.718 9.38977C206.638 7.70976 206.611 6.09643 206.638 4.54977C206.691 3.61643 206.998 2.85643 207.558 2.26976C208.118 1.6831 208.798 1.38976 209.598 1.38976C210.104 1.38976 210.558 1.4831 210.958 1.66976C211.384 1.85643 211.651 2.21643 211.758 2.74976C211.918 3.57643 211.984 4.45643 211.958 5.38976C211.958 6.3231 211.931 7.21643 211.878 8.06976C211.798 9.53643 211.744 11.0031 211.718 12.4698C211.718 13.9364 211.718 15.4164 211.718 16.9098C211.691 18.2698 211.678 19.6164 211.678 20.9498C211.704 22.2564 211.704 23.5898 211.678 24.9498C211.678 25.9364 211.504 26.6164 211.158 26.9898C210.811 27.3364 210.158 27.5098 209.198 27.5098C208.451 27.5098 207.838 27.3231 207.358 26.9498C207.118 26.7631 206.944 26.5498 206.838 26.3098C206.758 26.0698 206.704 25.8164 206.678 25.5498C206.651 25.2831 206.638 25.0164 206.638 24.7498C206.664 24.4564 206.678 24.1898 206.678 23.9498C206.624 22.3231 206.611 20.7098 206.638 19.1098C206.664 17.5098 206.678 15.9364 206.678 14.3898ZM213.951 14.1498C214.031 12.5498 214.044 10.8298 213.991 8.98976C213.964 7.1231 214.044 5.22976 214.231 3.30976C214.284 2.69643 214.431 2.25643 214.671 1.98977C214.911 1.7231 215.351 1.58977 215.991 1.58977C217.751 1.5631 219.511 1.5231 221.271 1.46976C223.058 1.38976 224.831 1.3231 226.591 1.26976C227.071 1.26976 227.538 1.29643 227.991 1.34976C228.444 1.4031 228.898 1.53643 229.351 1.74976C229.831 1.98976 230.138 2.30976 230.271 2.70977C230.431 3.10977 230.484 3.54976 230.431 4.02977C230.378 4.4831 230.244 4.8431 230.031 5.10977C229.818 5.34977 229.471 5.5231 228.991 5.62976C228.724 5.6831 228.458 5.7231 228.191 5.74976C227.951 5.77643 227.698 5.78976 227.431 5.78976C227.058 5.78976 226.684 5.74976 226.311 5.66977C225.564 5.53643 224.898 5.46977 224.311 5.46977C223.671 5.46977 223.031 5.50977 222.391 5.58976C221.778 5.66976 221.151 5.74976 220.511 5.82976C220.351 5.85643 220.178 5.90976 219.991 5.98976C219.804 6.0431 219.711 6.17643 219.711 6.38977C219.658 7.13643 219.551 7.8831 219.391 8.62976C219.231 9.34976 219.271 10.0831 219.511 10.8298C219.644 11.3631 219.844 11.7364 220.111 11.9498C220.404 12.1364 220.818 12.2298 221.351 12.2298C221.644 12.2031 221.911 12.1898 222.151 12.1898C222.418 12.1898 222.698 12.1898 222.991 12.1898H224.831H225.831C226.498 12.1898 227.018 12.3098 227.391 12.5498C227.791 12.7898 228.018 13.2698 228.071 13.9898C228.151 15.9098 227.444 16.9098 225.951 16.9898C225.524 17.0164 225.098 17.0431 224.671 17.0698C224.271 17.0698 223.858 17.0698 223.431 17.0698C223.138 17.0698 222.831 17.0698 222.511 17.0698C222.191 17.0698 221.884 17.0431 221.591 16.9898C221.511 16.9898 221.431 16.9898 221.351 16.9898C221.271 16.9631 221.191 16.9498 221.111 16.9498C219.991 16.9498 219.431 17.5898 219.431 18.8698C219.431 19.0298 219.418 19.1898 219.391 19.3498C219.391 19.4831 219.418 19.6164 219.471 19.7498C219.578 20.4698 219.671 21.0431 219.751 21.4698C219.858 21.8698 219.991 22.1764 220.151 22.3898C220.338 22.6031 220.604 22.7364 220.951 22.7898C221.298 22.8431 221.764 22.8698 222.351 22.8698H223.271C224.124 22.8431 224.978 22.8298 225.831 22.8298C226.711 22.8031 227.578 22.7898 228.431 22.7898C229.124 22.7898 229.591 23.0031 229.831 23.4298C230.098 23.8564 230.298 24.5364 230.431 25.4698C230.511 26.1364 230.364 26.6164 229.991 26.9098C229.644 27.1764 229.191 27.3631 228.631 27.4698C227.564 27.6298 226.498 27.7098 225.431 27.7098C224.818 27.7098 224.204 27.6831 223.591 27.6298C223.004 27.6031 222.404 27.5631 221.791 27.5098C221.258 27.4564 220.724 27.4164 220.191 27.3898C219.658 27.3631 219.124 27.3498 218.591 27.3498C218.324 27.3498 218.058 27.3498 217.791 27.3498C217.524 27.3498 217.258 27.3631 216.991 27.3898C216.378 27.3898 215.871 27.3631 215.471 27.3098C215.098 27.2298 214.791 27.0831 214.551 26.8698C214.338 26.6564 214.191 26.3631 214.111 25.9898C214.031 25.5898 213.991 25.0698 213.991 24.4298C213.938 22.8298 213.911 21.2031 213.911 19.5498C213.938 17.8698 213.951 16.0698 213.951 14.1498ZM244.782 19.5898C244.729 19.1364 244.622 18.8031 244.462 18.5898C244.329 18.3498 244.182 18.2298 244.022 18.2298C243.889 18.2298 243.742 18.3498 243.582 18.5898C243.449 18.8031 243.355 19.1364 243.302 19.5898C243.195 20.4164 243.062 21.3498 242.902 22.3898C242.769 23.4298 242.609 24.3364 242.422 25.1098C242.209 25.8031 241.875 26.3898 241.422 26.8698C240.995 27.3231 240.395 27.5764 239.622 27.6298C239.115 27.6298 238.689 27.5898 238.342 27.5098C238.022 27.4564 237.742 27.3498 237.502 27.1898C237.262 27.0031 237.049 26.7631 236.862 26.4698C236.702 26.1498 236.542 25.7498 236.382 25.2698C235.715 23.2431 235.195 21.1898 234.822 19.1098C234.475 17.0031 234.102 14.8964 233.702 12.7898C233.489 11.7231 233.275 10.6564 233.062 9.58977C232.875 8.5231 232.662 7.45643 232.422 6.38977C232.342 6.09643 232.289 5.8031 232.262 5.50977C232.235 5.21643 232.222 4.9231 232.222 4.62976C232.275 2.7631 233.169 1.82976 234.902 1.82976C236.289 1.82976 237.169 2.5231 237.542 3.90976C237.782 4.94977 237.995 6.0031 238.182 7.06976C238.395 8.10976 238.595 9.14976 238.782 10.1898C238.942 11.0164 239.182 11.4298 239.502 11.4298C239.849 11.4298 240.075 11.0164 240.182 10.1898C240.262 9.54976 240.315 8.9231 240.342 8.30976C240.395 7.69643 240.489 7.09643 240.622 6.50976C240.675 6.21643 240.715 5.9231 240.742 5.62976C240.795 5.33643 240.862 5.0431 240.942 4.74977C241.582 2.66977 242.942 1.62977 245.022 1.62977C245.129 1.62977 245.222 1.6431 245.302 1.66976C245.382 1.66976 245.475 1.66976 245.582 1.66976C246.115 1.7231 246.582 2.10976 246.982 2.82976C247.409 3.5231 247.689 4.37643 247.822 5.38976C247.929 6.0831 248.049 6.78977 248.182 7.50977C248.315 8.2031 248.449 8.89643 248.582 9.58977C248.742 10.3898 248.942 10.7898 249.182 10.7898C249.449 10.7898 249.675 10.3898 249.862 9.58977C249.995 9.13643 250.102 8.69643 250.182 8.26976C250.289 7.81643 250.395 7.38976 250.502 6.98977C250.822 5.70976 251.329 4.46976 252.022 3.26977C252.315 2.7631 252.595 2.4031 252.862 2.18976C253.155 1.97643 253.502 1.86976 253.902 1.86976C254.275 1.86976 254.715 1.94976 255.222 2.10976C255.995 2.37643 256.422 2.77643 256.502 3.30976C256.582 3.81643 256.555 4.34976 256.422 4.90977C256.129 6.2431 255.795 7.5631 255.422 8.86976C255.049 10.1498 254.715 11.4698 254.422 12.8298C254.129 14.3498 253.862 15.8831 253.622 17.4298C253.409 18.9764 253.169 20.5231 252.902 22.0698C252.795 22.6031 252.675 23.1231 252.542 23.6298C252.409 24.1098 252.275 24.5898 252.142 25.0698C251.822 26.0564 251.409 26.7364 250.902 27.1098C250.422 27.4831 249.689 27.6698 248.702 27.6698C247.742 27.6698 247.062 27.4431 246.662 26.9898C246.262 26.5098 245.955 25.8164 245.742 24.9098C245.529 24.0298 245.342 23.1498 245.182 22.2698C245.049 21.3631 244.915 20.4698 244.782 19.5898ZM265.479 27.6698C263.879 27.5364 262.466 27.1231 261.239 26.4298C260.039 25.7098 259.079 24.6031 258.359 23.1098C258.119 22.6564 257.999 22.1898 257.999 21.7098C258.026 21.2298 258.133 20.7898 258.319 20.3898C258.533 19.9631 258.826 19.6031 259.199 19.3098C259.573 18.9898 259.999 18.7898 260.479 18.7098C260.746 18.6564 260.959 18.6298 261.119 18.6298C261.519 18.6298 261.866 18.7498 262.159 18.9898C262.479 19.2031 262.719 19.5764 262.879 20.1098C263.119 20.8831 263.533 21.4831 264.119 21.9098C264.706 22.3364 265.399 22.5498 266.199 22.5498C266.839 22.4964 267.319 22.2831 267.639 21.9098C267.959 21.5364 268.093 21.0298 268.039 20.3898C267.986 19.5631 267.733 18.8831 267.279 18.3498C266.853 17.7898 266.293 17.2964 265.599 16.8698C264.479 16.2031 263.399 15.4964 262.359 14.7498C261.346 14.0031 260.439 13.0831 259.639 11.9898C258.893 11.0031 258.493 9.86977 258.439 8.58976C258.386 7.30976 258.613 6.0831 259.119 4.90977C259.653 3.70977 260.453 2.6831 261.519 1.82976C262.586 0.976431 263.879 0.469765 265.399 0.309765C265.613 0.283097 265.813 0.269763 265.999 0.269763C266.186 0.269763 266.373 0.269763 266.559 0.269763C267.413 0.269763 268.226 0.37643 268.999 0.589764C269.799 0.776432 270.586 1.09643 271.359 1.54976C271.866 1.8431 272.266 2.17643 272.559 2.54977C272.853 2.89643 273.093 3.2831 273.279 3.70976C273.466 4.13643 273.599 4.57643 273.679 5.02976C273.759 5.4831 273.839 5.94977 273.919 6.42977C273.973 6.77643 273.946 7.09643 273.839 7.38976C273.759 7.65643 273.613 7.90976 273.399 8.14976C273.213 8.3631 272.986 8.5631 272.719 8.74977C272.479 8.90976 272.226 9.05643 271.959 9.18976C271.746 9.29643 271.506 9.34976 271.239 9.34976C270.813 9.34976 270.399 9.22976 269.999 8.98976C269.599 8.74976 269.199 8.5231 268.799 8.30976C268.719 8.25643 268.666 8.14976 268.639 7.98976C268.613 7.8031 268.599 7.6431 268.599 7.50977C268.599 7.0831 268.546 6.6831 268.439 6.30976C268.359 5.93643 268.093 5.66976 267.639 5.50977C267.399 5.4031 267.093 5.34976 266.719 5.34976C266.106 5.34976 265.533 5.58976 264.999 6.06977C264.653 6.4431 264.386 6.82976 264.199 7.22976C264.039 7.62976 264.066 8.09643 264.279 8.62976C264.546 9.29643 264.906 9.85643 265.359 10.3098C265.813 10.7631 266.346 11.1498 266.959 11.4698C269.306 12.7498 271.293 14.4564 272.919 16.5898C273.613 17.4964 274.013 18.5231 274.119 19.6698C274.253 20.7898 274.119 21.8831 273.719 22.9498C273.319 23.9898 272.679 24.9098 271.799 25.7098C270.919 26.5098 269.813 27.0298 268.479 27.2698C268.079 27.3498 267.666 27.4431 267.239 27.5498C266.839 27.6564 266.413 27.7098 265.959 27.7098C265.879 27.7098 265.799 27.6964 265.719 27.6698C265.639 27.6698 265.559 27.6698 265.479 27.6698Z" fill="black"/>
</svg>
