<svg width="37" height="37" viewBox="0 0 37 37" fill="none" xmlns="http://www.w3.org/2000/svg">
<path d="M18.44 2.10303C17.45 4.42803 16.46 6.75303 16.475 9.01803C16.49 9.91803 16.655 10.788 16.91 11.718C16.7929 11.4828 16.6574 11.2571 16.505 11.043C15.245 9.28803 12.755 7.78803 10.25 6.28803C10.25 7.48803 10.25 8.67303 10.52 9.82803L20 19.308V16.338C22.25 14.988 24.38 13.608 25.505 12.033C26.75 10.293 26.75 8.28303 26.75 6.28803C24.245 7.78803 21.755 9.28803 20.495 11.043C20.345 11.253 20.225 11.463 20.105 11.673C20.375 10.728 20.54 9.76803 20.525 8.82303C20.51 6.55803 19.475 4.32303 18.44 2.10303ZM5.42 8.53803L3.5 10.443L10.46 17.403C10.625 18.288 10.925 19.113 11.495 19.908C12.62 21.483 14.75 22.863 17 24.213V27.633L16.505 26.793C15.245 25.038 12.755 23.538 10.25 22.038C10.25 24.033 10.25 26.043 11.495 27.783C12.62 29.358 14.75 30.738 17 32.088V34.788H20V32.088C21.11 31.428 22.175 30.753 23.105 30.048L28.595 35.538L30.5 33.618C21.5 24.633 14.15 17.268 5.42 8.53803ZM26.75 14.163C24.245 15.663 21.755 17.163 20.495 18.918L20.18 19.473L23 22.278C24.005 21.528 24.905 20.748 25.505 19.908C26.75 18.168 26.75 16.158 26.75 14.163ZM26.75 22.038C25.895 22.548 25.07 23.058 24.275 23.583L26.435 25.743C26.75 24.543 26.75 23.283 26.75 22.038Z" fill="#111111"/>
</svg>
