<svg width="31" height="36" viewBox="0 0 31 36" fill="none" xmlns="http://www.w3.org/2000/svg">
<path d="M30.1314 24.7034C30.0017 24.5472 29.8744 24.3909 29.7494 24.2401C28.0306 22.1612 26.9908 20.9065 26.9908 15.0214C26.9908 11.9745 26.2619 9.47451 24.8252 7.59951C23.7658 6.21436 22.3337 5.16357 20.4462 4.38701C20.422 4.3735 20.4003 4.35578 20.3822 4.33467C19.7033 2.06123 17.8455 0.538574 15.7502 0.538574C13.6548 0.538574 11.7978 2.06123 11.1189 4.33232C11.1008 4.35266 11.0794 4.36982 11.0556 4.38311C6.65093 6.19639 4.51031 9.67529 4.51031 15.019C4.51031 20.9065 3.47203 22.1612 1.75171 24.2378C1.62671 24.3886 1.49937 24.5417 1.36968 24.7011C1.03468 25.1051 0.822433 25.5966 0.758052 26.1175C0.693671 26.6383 0.779854 27.1667 1.0064 27.6401C1.48843 28.6558 2.51578 29.2862 3.68843 29.2862H27.8205C28.9876 29.2862 30.008 28.6565 30.4916 27.6456C30.7191 27.1721 30.8061 26.6432 30.7422 26.1218C30.6784 25.6003 30.4664 25.1081 30.1314 24.7034ZM15.7502 35.5386C16.8791 35.5377 17.9867 35.2312 18.9556 34.6517C19.9245 34.0723 20.7184 33.2414 21.2533 32.2472C21.2785 32.1995 21.2909 32.1462 21.2894 32.0923C21.2879 32.0384 21.2725 31.9858 21.2446 31.9397C21.2168 31.8935 21.1775 31.8554 21.1306 31.8289C21.0836 31.8024 21.0306 31.7885 20.9767 31.7886H10.5252C10.4712 31.7884 10.4181 31.8022 10.371 31.8286C10.324 31.855 10.2846 31.8932 10.2567 31.9394C10.2287 31.9855 10.2132 32.0382 10.2117 32.0921C10.2101 32.146 10.2226 32.1995 10.2478 32.2472C10.7826 33.2412 11.5764 34.0721 12.5452 34.6515C13.5139 35.231 14.6213 35.5375 15.7502 35.5386Z" fill="black"/>
</svg>
