<svg width="37" height="36" viewBox="0 0 37 36" fill="none" xmlns="http://www.w3.org/2000/svg">
<path d="M26.4125 29.8193L31.625 24.7881L30.05 23.2568L26.4125 26.7204L24.95 25.2985L23.375 26.8662L26.4125 29.8193ZM9.5 13.4131H27.5V10.4964H9.5V13.4131ZM27.5 33.8298C25.425 33.8298 23.6565 33.1191 22.1945 31.6977C20.7315 30.2753 20 28.5554 20 26.5381C20 24.5207 20.7315 22.8009 22.1945 21.3785C23.6565 19.9571 25.425 19.2464 27.5 19.2464C29.575 19.2464 31.344 19.9571 32.807 21.3785C34.269 22.8009 35 24.5207 35 26.5381C35 28.5554 34.269 30.2753 32.807 31.6977C31.344 33.1191 29.575 33.8298 27.5 33.8298ZM5 32.3714V7.57975C5 6.77767 5.2935 6.09079 5.8805 5.51913C6.4685 4.94843 7.175 4.66309 8 4.66309H29C29.825 4.66309 30.5315 4.94843 31.1195 5.51913C31.7065 6.09079 32 6.77767 32 7.57975V17.3141C31.525 17.0954 31.0375 16.9131 30.5375 16.7673C30.0375 16.6214 29.525 16.512 29 16.4391V7.57975H8V28.0693H17.1125C17.2375 28.8228 17.4315 29.5398 17.6945 30.2204C17.9565 30.9009 18.3 31.545 18.725 32.1527L18.5 32.3714L16.25 30.1839L14 32.3714L11.75 30.1839L9.5 32.3714L7.25 30.1839L5 32.3714ZM9.5 25.0798H17.1125C17.1875 24.5693 17.3 24.0711 17.45 23.585C17.6 23.0988 17.7875 22.6249 18.0125 22.1631H9.5V25.0798ZM9.5 19.2464H20.15C21.1 18.3471 22.206 17.6359 23.468 17.1129C24.731 16.5908 26.075 16.3298 27.5 16.3298H9.5V19.2464Z" fill="#111111"/>
</svg>
