<svg width="35" height="36" viewBox="0 0 35 36" fill="none" xmlns="http://www.w3.org/2000/svg">
<path d="M20.4168 14.7255V12.2463C21.2189 11.9061 22.0395 11.6509 22.8785 11.4807C23.7166 11.3106 24.5974 11.2255 25.521 11.2255C26.1529 11.2255 26.7727 11.2741 27.3804 11.3713C27.988 11.4686 28.5835 11.5901 29.1668 11.7359V14.0693C28.5835 13.8505 27.9943 13.6867 27.3993 13.5778C26.8034 13.4679 26.1772 13.413 25.521 13.413C24.5974 13.413 23.7102 13.5287 22.8595 13.7601C22.0088 13.9905 21.1946 14.3123 20.4168 14.7255ZM20.4168 22.7463V20.2672C21.2189 19.9269 22.0395 19.6717 22.8785 19.5015C23.7166 19.3314 24.5974 19.2463 25.521 19.2463C26.1529 19.2463 26.7727 19.2949 27.3804 19.3922C27.988 19.4894 28.5835 19.6109 29.1668 19.7568V22.0901C28.5835 21.8713 27.9943 21.7075 27.3993 21.5986C26.8034 21.4888 26.1772 21.4338 25.521 21.4338C24.5974 21.4338 23.7102 21.5432 22.8595 21.762C22.0088 21.9807 21.1946 22.3088 20.4168 22.7463ZM20.4168 18.7359V16.2568C21.2189 15.9165 22.0395 15.6613 22.8785 15.4911C23.7166 15.321 24.5974 15.2359 25.521 15.2359C26.1529 15.2359 26.7727 15.2845 27.3804 15.3818C27.988 15.479 28.5835 15.6005 29.1668 15.7463V18.0797C28.5835 17.8609 27.9943 17.6971 27.3993 17.5882C26.8034 17.4784 26.1772 17.4234 25.521 17.4234C24.5974 17.4234 23.7102 17.5391 22.8595 17.7705C22.0088 18.0009 21.1946 18.3227 20.4168 18.7359ZM9.47933 23.6213C10.6217 23.6213 11.7339 23.7487 12.816 24.0034C13.8971 24.2591 14.9724 24.6422 16.0418 25.1526V10.788C15.0453 10.2047 13.988 9.76717 12.87 9.4755C11.7519 9.18384 10.6217 9.038 9.47933 9.038C8.60433 9.038 7.73565 9.12307 6.87329 9.29321C6.00995 9.46335 5.17725 9.71856 4.37516 10.0588V24.4963C5.22586 24.2047 6.07072 23.9859 6.90975 23.8401C7.7478 23.6943 8.60433 23.6213 9.47933 23.6213ZM18.9585 25.1526C20.0279 24.6422 21.1037 24.2591 22.1858 24.0034C23.2669 23.7487 24.3786 23.6213 25.521 23.6213C26.396 23.6213 27.253 23.6943 28.092 23.8401C28.9301 23.9859 29.7745 24.2047 30.6252 24.4963V10.0588C29.8231 9.71856 28.9909 9.46335 28.1285 9.29321C27.2652 9.12307 26.396 9.038 25.521 9.038C24.3786 9.038 23.2484 9.18384 22.1304 9.4755C21.0123 9.76717 19.955 10.2047 18.9585 10.788V25.1526ZM17.5002 29.4547C16.3335 28.5311 15.0696 27.814 13.7085 27.3036C12.3474 26.7932 10.9377 26.538 9.47933 26.538C8.19114 26.538 6.84218 26.7811 5.43245 27.2672C4.02273 27.7533 2.69808 28.5068 1.4585 29.5276V8.38175C2.52794 7.65259 3.786 7.09356 5.23266 6.70467C6.67836 6.31578 8.09391 6.12134 9.47933 6.12134C10.8891 6.12134 12.2686 6.30363 13.6181 6.66821C14.9666 7.0328 16.2606 7.57967 17.5002 8.30884C18.7397 7.57967 20.0343 7.0328 21.3837 6.66821C22.7322 6.30363 24.1113 6.12134 25.521 6.12134C26.9064 6.12134 28.3225 6.31578 29.7691 6.70467C31.2148 7.09356 32.4724 7.65259 33.5418 8.38175V29.5276C32.3266 28.5068 31.0082 27.7533 29.5868 27.2672C28.1645 26.7811 26.8092 26.538 25.521 26.538C24.0627 26.538 22.6529 26.7932 21.2918 27.3036C19.9307 27.814 18.6668 28.5311 17.5002 29.4547Z" fill="#111111"/>
</svg>
