<svg width="41" height="29" viewBox="0 0 41 29" fill="none" xmlns="http://www.w3.org/2000/svg">
<path d="M2.5 28.144C1.8625 28.144 1.3285 27.924 0.898 27.484C0.466 27.0456 0.25 26.5017 0.25 25.8524C0.25 25.2031 0.466 24.6592 0.898 24.2207C1.3285 23.7807 1.8625 23.5607 2.5 23.5607H38.5C39.1375 23.5607 39.6715 23.7807 40.102 24.2207C40.534 24.6592 40.75 25.2031 40.75 25.8524C40.75 26.5017 40.534 27.0456 40.102 27.484C39.6715 27.924 39.1375 28.144 38.5 28.144H2.5ZM2.5 16.6857C1.8625 16.6857 1.3285 16.4657 0.898 16.0257C0.466 15.5872 0.25 15.0433 0.25 14.394C0.25 13.7447 0.466 13.2001 0.898 12.7601C1.3285 12.3216 1.8625 12.1024 2.5 12.1024H38.5C39.1375 12.1024 39.6715 12.3216 40.102 12.7601C40.534 13.2001 40.75 13.7447 40.75 14.394C40.75 15.0433 40.534 15.5872 40.102 16.0257C39.6715 16.4657 39.1375 16.6857 38.5 16.6857H2.5ZM2.5 5.22738C1.8625 5.22738 1.3285 5.00814 0.898 4.56967C0.466 4.12967 0.25 3.58502 0.25 2.93571C0.25 2.2864 0.466 1.74175 0.898 1.30175C1.3285 0.863279 1.8625 0.644043 2.5 0.644043H38.5C39.1375 0.644043 39.6715 0.863279 40.102 1.30175C40.534 1.74175 40.75 2.2864 40.75 2.93571C40.75 3.58502 40.534 4.12967 40.102 4.56967C39.6715 5.00814 39.1375 5.22738 38.5 5.22738H2.5Z" fill="black"/>
</svg>
