<svg width="37" height="37" viewBox="0 0 37 37" fill="none" xmlns="http://www.w3.org/2000/svg">
<path d="M16.2266 21.4014H27.4766V18.4014H19.2266L16.2266 21.4014ZM9.47656 21.4014H13.1516L22.0016 12.6264C22.1516 12.4764 22.2266 12.2889 22.2266 12.0639C22.2266 11.8389 22.1516 11.6514 22.0016 11.5014L19.3766 8.87637C19.2266 8.72637 19.0391 8.65137 18.8141 8.65137C18.5891 8.65137 18.4016 8.72637 18.2516 8.87637L9.47656 17.7264V21.4014ZM3.47656 33.4014V6.40137C3.47656 5.57637 3.77056 4.86987 4.35856 4.28187C4.94556 3.69487 5.65156 3.40137 6.47656 3.40137H30.4766C31.3016 3.40137 32.0081 3.69487 32.5961 4.28187C33.1831 4.86987 33.4766 5.57637 33.4766 6.40137V24.4014C33.4766 25.2264 33.1831 25.9329 32.5961 26.5209C32.0081 27.1079 31.3016 27.4014 30.4766 27.4014H9.47656L3.47656 33.4014ZM6.47656 26.1639L8.23906 24.4014H30.4766V6.40137H6.47656V26.1639Z" fill="#111111"/>
</svg>
