<svg width="37" height="37" viewBox="0 0 37 37" fill="none" xmlns="http://www.w3.org/2000/svg">
<path d="M21.5 19.7881C20.25 19.7881 19.1875 19.3506 18.3125 18.4756C17.4375 17.6006 17 16.5381 17 15.2881C17 14.0381 17.4375 12.9756 18.3125 12.1006C19.1875 11.2256 20.25 10.7881 21.5 10.7881C22.75 10.7881 23.8125 11.2256 24.6875 12.1006C25.5625 12.9756 26 14.0381 26 15.2881C26 16.5381 25.5625 17.6006 24.6875 18.4756C23.8125 19.3506 22.75 19.7881 21.5 19.7881ZM11 24.2881C10.175 24.2881 9.469 23.9941 8.882 23.4061C8.294 22.8191 8 22.1131 8 21.2881V9.28809C8 8.46309 8.294 7.75709 8.882 7.17009C9.469 6.58209 10.175 6.28809 11 6.28809H32C32.825 6.28809 33.5315 6.58209 34.1195 7.17009C34.7065 7.75709 35 8.46309 35 9.28809V21.2881C35 22.1131 34.7065 22.8191 34.1195 23.4061C33.5315 23.9941 32.825 24.2881 32 24.2881H11ZM14 21.2881H29C29 20.4631 29.2935 19.7566 29.8805 19.1686C30.4685 18.5816 31.175 18.2881 32 18.2881V12.2881C31.175 12.2881 30.4685 11.9941 29.8805 11.4061C29.2935 10.8191 29 10.1131 29 9.28809H14C14 10.1131 13.706 10.8191 13.118 11.4061C12.531 11.9941 11.825 12.2881 11 12.2881V18.2881C11.825 18.2881 12.531 18.5816 13.118 19.1686C13.706 19.7566 14 20.4631 14 21.2881ZM30.5 30.2881H5C4.175 30.2881 3.469 29.9946 2.882 29.4076C2.294 28.8196 2 28.1131 2 27.2881V10.7881H5V27.2881H30.5V30.2881Z" fill="#111111"/>
</svg>
