<svg width="37" height="37" viewBox="0 0 37 37" fill="none" xmlns="http://www.w3.org/2000/svg">
<circle cx="18.4999" cy="18.5946" r="17.2006" fill="#9EC2CC" stroke="black"/>
<path d="M13.1632 23.1496C8.69903 25.8739 7.20655 27.6426 7.0415 31.3904C16.3018 37.0226 21.3245 37.062 29.9587 31.3904C29.5811 27.064 28.3527 24.6261 24.6688 23.1496C19.9342 21.4648 17.3008 21.0168 13.1632 23.1496Z" fill="black" stroke="black"/>
<path fill-rule="evenodd" clip-rule="evenodd" d="M16.8995 5.26152C13.9365 6.09563 11.9791 9.13869 12.5179 12.0734C13.6162 18.0551 21.4265 19.1386 24.0089 13.6675C26.1641 9.10116 21.7596 3.89315 16.8995 5.26152ZM20.5104 6.74136C24.1898 8.49684 24.2066 13.7777 20.5384 15.5274C17.5327 16.9614 14.8122 12.3385 16.562 8.771C17.5964 6.66224 18.9191 5.98231 20.5104 6.74136Z" fill="black"/>
</svg>
