<svg width="37" height="37" viewBox="0 0 37 37" fill="none" xmlns="http://www.w3.org/2000/svg">
<g clip-path="url(#clip0_42_18)">
<path d="M18.5 0.288086C24.1812 0.288086 28.7857 4.31699 28.7857 9.28809C28.7857 14.2592 24.1812 18.2881 18.5 18.2881C12.8188 18.2881 8.21429 14.2592 8.21429 9.28809C8.21429 4.31699 12.8188 0.288086 18.5 0.288086ZM17.3027 25.5443L15.808 23.3646C15.2938 22.6123 15.9125 21.6631 16.9089 21.6631H20.083C21.0795 21.6631 21.6982 22.6193 21.1839 23.3646L19.6893 25.5443L22.3732 34.2561L25.5473 22.9217C31.7509 23.7654 36.5 28.4623 36.5 34.1295C36.5 35.3248 35.3911 36.2881 34.033 36.2881H2.96696C1.60893 36.2881 0.5 35.3178 0.5 34.1295C0.5 28.4623 5.24911 23.7654 11.4527 22.9217L14.6268 34.2561L17.3107 25.5443H17.3027Z" fill="#111111"/>
</g>
<defs>
<clipPath id="clip0_42_18">
<rect width="36" height="36" fill="white" transform="translate(0.5 0.288086)"/>
</clipPath>
</defs>
</svg>
