<svg width="567" height="23" viewBox="0 0 567 23" fill="none" xmlns="http://www.w3.org/2000/svg">
<path d="M13.8069 8.80018C13.7642 10.0375 13.7215 11.2748 13.6789 12.5122C13.6575 13.7282 13.5935 14.9655 13.4869 16.2242C13.4015 17.3975 13.1349 18.4429 12.6869 19.3602C12.2389 20.2775 11.4389 20.9815 10.2869 21.4722C9.39088 21.8562 8.50554 22.0482 7.63088 22.0482C6.35088 22.0482 5.07088 21.6535 3.79088 20.8642C2.72421 20.2455 1.99888 19.4775 1.61488 18.5602C1.23088 17.6429 1.02821 16.6082 1.00688 15.4562C0.964208 14.2402 0.910875 13.0455 0.846875 11.8722C0.782875 10.6775 0.772208 9.47218 0.814875 8.25618C0.857542 7.25352 0.889542 6.26152 0.910875 5.28018C0.953542 4.29885 0.996208 3.30685 1.03888 2.30418C1.03888 1.98418 1.10288 1.73885 1.23088 1.56818C1.38021 1.37618 1.56154 1.23752 1.77488 1.15218C1.98821 1.04552 2.21221 0.970849 2.44688 0.928183C2.70288 0.885516 2.93754 0.853516 3.15088 0.832182C3.23621 0.810849 3.36421 0.800182 3.53488 0.800182C3.91888 0.800182 4.26021 0.896182 4.55888 1.08818C4.87888 1.25885 5.11354 1.55752 5.26288 1.98418C5.43354 2.58152 5.50821 3.13618 5.48688 3.64818C5.31621 5.35485 5.25221 7.05085 5.29488 8.73618C5.33754 10.4215 5.33754 12.1175 5.29488 13.8242C5.29488 14.2082 5.32688 14.5922 5.39088 14.9762C5.45488 15.3388 5.54021 15.7015 5.64688 16.0642C5.81754 16.6828 6.06288 17.1095 6.38288 17.3442C6.72421 17.5788 7.23621 17.6962 7.91888 17.6962C8.60154 17.6962 9.04954 17.5468 9.26288 17.2482C9.49754 16.9495 9.65754 16.4908 9.74288 15.8722C9.87088 14.8482 9.92421 13.8242 9.90288 12.8002C9.90288 11.7549 9.87088 10.7095 9.80688 9.66418C9.72154 8.51218 9.65754 7.36018 9.61488 6.20818C9.57221 5.05618 9.58288 3.89352 9.64688 2.72018C9.66821 2.25085 9.73221 1.88818 9.83888 1.63218C9.96688 1.37618 10.1375 1.18418 10.3509 1.05618C10.5642 0.928183 10.8202 0.853516 11.1189 0.832182C11.4389 0.810849 11.8015 0.800182 12.2069 0.800182C12.8255 0.84285 13.2522 1.02418 13.4869 1.34418C13.7215 1.64285 13.8282 2.16552 13.8069 2.91218V8.80018ZM20.9491 22.0162C19.6691 21.9095 18.5385 21.5789 17.5571 21.0242C16.5971 20.4482 15.8291 19.5629 15.2531 18.3682C15.0611 18.0055 14.9651 17.6322 14.9651 17.2482C14.9865 16.8642 15.0718 16.5122 15.2211 16.1922C15.3918 15.8509 15.6265 15.5628 15.9251 15.3282C16.2238 15.0722 16.5651 14.9122 16.9491 14.8482C17.1625 14.8055 17.3331 14.7842 17.4611 14.7842C17.7811 14.7842 18.0585 14.8802 18.2931 15.0722C18.5491 15.2428 18.7411 15.5415 18.8691 15.9682C19.0611 16.5869 19.3918 17.0669 19.8611 17.4082C20.3305 17.7495 20.8851 17.9202 21.5251 17.9202C22.0371 17.8775 22.4211 17.7069 22.6771 17.4082C22.9331 17.1095 23.0398 16.7042 22.9971 16.1922C22.9545 15.5309 22.7518 14.9868 22.3891 14.5602C22.0478 14.1122 21.5998 13.7175 21.0451 13.3762C20.1491 12.8429 19.2851 12.2775 18.4531 11.6802C17.6425 11.0829 16.9171 10.3469 16.2771 9.47218C15.6798 8.68285 15.3598 7.77618 15.3171 6.75218C15.2745 5.72818 15.4558 4.74685 15.8611 3.80818C16.2878 2.84818 16.9278 2.02685 17.7811 1.34418C18.6345 0.661516 19.6691 0.256183 20.8851 0.128183C21.0558 0.106849 21.2158 0.0961819 21.3651 0.0961819C21.5145 0.0961819 21.6638 0.0961819 21.8131 0.0961819C22.4958 0.0961819 23.1465 0.181515 23.7651 0.352182C24.4051 0.501516 25.0345 0.757516 25.6531 1.12018C26.0585 1.35485 26.3785 1.62152 26.6131 1.92018C26.8478 2.19752 27.0398 2.50685 27.1891 2.84818C27.3385 3.18952 27.4451 3.54152 27.5091 3.90418C27.5731 4.26685 27.6371 4.64018 27.7011 5.02418C27.7438 5.30152 27.7225 5.55752 27.6371 5.79218C27.5731 6.00552 27.4558 6.20818 27.2851 6.40018C27.1358 6.57085 26.9545 6.73085 26.7411 6.88018C26.5491 7.00818 26.3465 7.12552 26.1331 7.23218C25.9625 7.31752 25.7705 7.36018 25.5571 7.36018C25.2158 7.36018 24.8851 7.26418 24.5651 7.07218C24.2451 6.88018 23.9251 6.69885 23.6051 6.52818C23.5411 6.48552 23.4985 6.40018 23.4771 6.27218C23.4558 6.12285 23.4451 5.99485 23.4451 5.88818C23.4451 5.54685 23.4025 5.22685 23.3171 4.92818C23.2531 4.62952 23.0398 4.41618 22.6771 4.28818C22.4851 4.20285 22.2398 4.16018 21.9411 4.16018C21.4505 4.16018 20.9918 4.35218 20.5651 4.73618C20.2878 5.03485 20.0745 5.34418 19.9251 5.66418C19.7971 5.98418 19.8185 6.35752 19.9891 6.78418C20.2025 7.31752 20.4905 7.76552 20.8531 8.12818C21.2158 8.49085 21.6425 8.80018 22.1331 9.05618C24.0105 10.0802 25.5998 11.4455 26.9011 13.1522C27.4558 13.8775 27.7758 14.6988 27.8611 15.6162C27.9678 16.5122 27.8611 17.3868 27.5411 18.2402C27.2211 19.0722 26.7091 19.8082 26.0051 20.4482C25.3011 21.0882 24.4158 21.5042 23.3491 21.6962C23.0291 21.7602 22.6985 21.8349 22.3571 21.9202C22.0371 22.0055 21.6958 22.0482 21.3331 22.0482C21.2691 22.0482 21.2051 22.0375 21.1411 22.0162C21.0771 22.0162 21.0131 22.0162 20.9491 22.0162ZM29.3201 11.2002C29.3841 9.92018 29.3948 8.54418 29.3521 7.07218C29.3308 5.57885 29.3948 4.06418 29.5441 2.52818C29.5868 2.03752 29.7041 1.68552 29.8961 1.47218C30.0881 1.25885 30.4401 1.15218 30.9521 1.15218C32.3601 1.13085 33.7681 1.09885 35.1761 1.05618C36.6055 0.992182 38.0241 0.938849 39.4321 0.896183C39.8161 0.896183 40.1895 0.917516 40.5521 0.960182C40.9148 1.00285 41.2775 1.10952 41.6401 1.28018C42.0241 1.47218 42.2695 1.72818 42.3761 2.04818C42.5041 2.36818 42.5468 2.72018 42.5041 3.10418C42.4615 3.46685 42.3548 3.75485 42.1841 3.96818C42.0135 4.16018 41.7361 4.29885 41.3521 4.38418C41.1388 4.42685 40.9255 4.45885 40.7121 4.48018C40.5201 4.50152 40.3175 4.51218 40.1041 4.51218C39.8055 4.51218 39.5068 4.48018 39.2081 4.41618C38.6108 4.30952 38.0775 4.25618 37.6081 4.25618C37.0961 4.25618 36.5841 4.28818 36.0721 4.35218C35.5815 4.41618 35.0801 4.48018 34.5681 4.54418C34.4401 4.56552 34.3015 4.60818 34.1521 4.67218C34.0028 4.71485 33.9281 4.82152 33.9281 4.99218C33.8855 5.58952 33.8001 6.18685 33.6721 6.78418C33.5441 7.36018 33.5761 7.94685 33.7681 8.54418C33.8748 8.97085 34.0348 9.26952 34.2481 9.44018C34.4828 9.58952 34.8135 9.66418 35.2401 9.66418C35.4748 9.64285 35.6881 9.63218 35.8801 9.63218C36.0935 9.63218 36.3175 9.63218 36.5521 9.63218H38.0241H38.8241C39.3575 9.63218 39.7735 9.72818 40.0721 9.92018C40.3921 10.1122 40.5735 10.4962 40.6161 11.0722C40.6801 12.6082 40.1148 13.4082 38.9201 13.4722C38.5788 13.4935 38.2375 13.5148 37.8961 13.5362C37.5761 13.5362 37.2455 13.5362 36.9041 13.5362C36.6695 13.5362 36.4241 13.5362 36.1681 13.5362C35.9121 13.5362 35.6668 13.5148 35.4321 13.4722C35.3681 13.4722 35.3041 13.4722 35.2401 13.4722C35.1761 13.4509 35.1121 13.4402 35.0481 13.4402C34.1521 13.4402 33.7041 13.9522 33.7041 14.9762C33.7041 15.1042 33.6935 15.2322 33.6721 15.3602C33.6721 15.4668 33.6935 15.5735 33.7361 15.6802C33.8215 16.2562 33.8961 16.7148 33.9601 17.0562C34.0455 17.3762 34.1521 17.6215 34.2801 17.7922C34.4295 17.9629 34.6428 18.0695 34.9201 18.1122C35.1975 18.1549 35.5708 18.1762 36.0401 18.1762H36.7761C37.4588 18.1549 38.1415 18.1442 38.8241 18.1442C39.5281 18.1229 40.2215 18.1122 40.9041 18.1122C41.4588 18.1122 41.8321 18.2829 42.0241 18.6242C42.2375 18.9655 42.3975 19.5095 42.5041 20.2562C42.5681 20.7895 42.4508 21.1735 42.1521 21.4082C41.8748 21.6215 41.5121 21.7709 41.0641 21.8562C40.2108 21.9842 39.3575 22.0482 38.5041 22.0482C38.0135 22.0482 37.5228 22.0269 37.0321 21.9842C36.5628 21.9629 36.0828 21.9309 35.5921 21.8882C35.1655 21.8455 34.7388 21.8135 34.3121 21.7922C33.8855 21.7709 33.4588 21.7602 33.0321 21.7602C32.8188 21.7602 32.6055 21.7602 32.3921 21.7602C32.1788 21.7602 31.9655 21.7709 31.7521 21.7922C31.2615 21.7922 30.8561 21.7709 30.5361 21.7282C30.2375 21.6642 29.9921 21.5469 29.8001 21.3762C29.6295 21.2055 29.5121 20.9709 29.4481 20.6722C29.3841 20.3522 29.3521 19.9362 29.3521 19.4242C29.3095 18.1442 29.2881 16.8428 29.2881 15.5202C29.3095 14.1762 29.3201 12.7362 29.3201 11.2002ZM62.0489 13.2802V19.1682C62.0489 20.1495 61.8995 20.8429 61.6009 21.2482C61.3235 21.6535 60.8435 21.8562 60.1609 21.8562C59.1369 21.8562 58.4329 21.6429 58.0489 21.2162C57.6862 20.7895 57.5049 20.0749 57.5049 19.0722C57.4835 17.1948 57.4729 15.3388 57.4729 13.5042C57.4729 11.6695 57.4729 9.81352 57.4729 7.93618C57.4729 7.70152 57.4729 7.47752 57.4729 7.26418C57.4942 7.05085 57.4942 6.82685 57.4729 6.59218C57.4302 6.14418 57.3662 5.80285 57.2809 5.56818C57.2169 5.33352 57.0995 5.16285 56.9289 5.05618C56.7795 4.92818 56.5769 4.85352 56.3209 4.83218C56.0862 4.81085 55.7769 4.80018 55.3929 4.80018C55.2009 4.82152 55.0089 4.84285 54.8169 4.86418C54.6249 4.86418 54.4329 4.86418 54.2409 4.86418C54.1555 4.86418 54.0702 4.86418 53.9849 4.86418C53.8995 4.86418 53.8142 4.85352 53.7289 4.83218C52.1289 4.57618 51.5635 3.71218 52.0329 2.24018C52.0969 2.00552 52.1929 1.82418 52.3209 1.69618C52.4489 1.56818 52.6622 1.46152 52.9609 1.37618C53.5795 1.20552 54.1982 1.09885 54.8169 1.05618C55.4569 0.992182 56.0969 0.960182 56.7369 0.960182C57.6755 0.981515 58.6035 1.00285 59.5209 1.02418C60.4595 1.04552 61.3982 1.05618 62.3369 1.05618C62.8702 1.05618 63.3929 1.05618 63.9049 1.05618C64.4169 1.03485 64.9395 1.01352 65.4729 0.992182H65.6649C66.2409 0.992182 66.6782 1.08818 66.9769 1.28018C67.2969 1.45085 67.5102 1.68552 67.6169 1.98418C67.7449 2.26152 67.7875 2.58152 67.7449 2.94418C67.7022 3.28552 67.6062 3.63752 67.4569 4.00018C67.2862 4.46952 67.0302 4.76818 66.6889 4.89618C66.3689 5.00285 65.9849 5.05618 65.5369 5.05618C65.2595 5.03485 65.0035 5.02418 64.7689 5.02418C64.5555 5.02418 64.3529 5.02418 64.1609 5.02418C63.6275 5.02418 63.2115 5.06685 62.9129 5.15218C62.6355 5.23752 62.4329 5.40818 62.3049 5.66418C62.1769 5.89885 62.1022 6.25085 62.0809 6.72018C62.0595 7.16818 62.0489 7.76552 62.0489 8.51218V13.2802ZM83.4359 11.1362V19.2962C83.4359 20.0429 83.1905 20.6615 82.6999 21.1522C82.2305 21.6215 81.6225 21.8562 80.8759 21.8562C79.9585 21.8562 79.4145 21.2589 79.2439 20.0642C79.1585 19.5095 79.1052 18.9549 79.0839 18.4002C79.0839 17.8242 79.1372 17.2589 79.2439 16.7042C79.2865 16.3629 79.2972 16.0322 79.2759 15.7122C79.2759 15.3709 79.2225 15.0402 79.1159 14.7202C79.0305 14.4855 78.9239 14.2722 78.7959 14.0802C78.6679 13.8668 78.4972 13.7495 78.2839 13.7282C77.9212 13.6855 77.5479 13.6535 77.1639 13.6322C76.8012 13.5895 76.4279 13.5682 76.0439 13.5682C75.6812 13.5682 75.3292 13.6002 74.9879 13.6642C74.6465 13.7068 74.2945 13.8135 73.9319 13.9842C73.3559 14.2828 73.0785 14.7628 73.0999 15.4242C73.0999 16.2135 73.0892 16.9922 73.0679 17.7602C73.0679 18.5282 73.0359 19.3069 72.9719 20.0962C72.9079 20.8002 72.7692 21.2589 72.5559 21.4722C72.3639 21.6855 71.9585 21.7922 71.3399 21.7922C70.6359 21.7922 70.0385 21.6642 69.5479 21.4082C69.0572 21.1522 68.8119 20.6189 68.8119 19.8082C68.7692 18.2082 68.7372 16.6295 68.7159 15.0722C68.7159 13.5148 68.7585 11.9362 68.8439 10.3362C68.9079 9.12018 68.9505 7.92552 68.9719 6.75218C68.9932 5.57885 69.0252 4.38418 69.0679 3.16818C69.0892 2.35752 69.2065 1.82418 69.4199 1.56818C69.6545 1.29085 70.0919 1.15218 70.7319 1.15218C71.5425 1.15218 72.1399 1.29085 72.5239 1.56818C72.9079 1.84552 73.0999 2.41085 73.0999 3.26418V8.28818C73.0999 8.77885 73.1852 9.16285 73.3559 9.44018C73.5479 9.69618 73.9319 9.83485 74.5079 9.85618C74.8705 9.87752 75.2119 9.88818 75.5319 9.88818C75.8732 9.88818 76.2252 9.88818 76.5879 9.88818C76.8865 9.88818 77.1745 9.88818 77.4519 9.88818C77.7292 9.88818 78.0172 9.86685 78.3159 9.82418C78.7639 9.78152 79.0519 9.67485 79.1799 9.50418C79.3292 9.31218 79.3932 9.01352 79.3719 8.60818C79.2865 7.69085 79.2332 6.80552 79.2119 5.95218C79.1905 5.09885 79.2332 4.16018 79.3399 3.13618C79.4039 2.53885 79.6599 2.06952 80.1079 1.72818C80.5559 1.38685 81.0572 1.21618 81.6119 1.21618C82.1879 1.21618 82.6359 1.36552 82.9559 1.66418C83.2759 1.94152 83.4359 2.37885 83.4359 2.97618C83.4145 4.34152 83.4039 5.70685 83.4039 7.07218C83.4252 8.41618 83.4359 9.77085 83.4359 11.1362ZM85.0076 11.2002C85.0716 9.92018 85.0823 8.54418 85.0396 7.07218C85.0183 5.57885 85.0823 4.06418 85.2316 2.52818C85.2743 2.03752 85.3916 1.68552 85.5836 1.47218C85.7756 1.25885 86.1276 1.15218 86.6396 1.15218C88.0476 1.13085 89.4556 1.09885 90.8636 1.05618C92.293 0.992182 93.7116 0.938849 95.1196 0.896183C95.5036 0.896183 95.877 0.917516 96.2396 0.960182C96.6023 1.00285 96.965 1.10952 97.3276 1.28018C97.7116 1.47218 97.957 1.72818 98.0636 2.04818C98.1916 2.36818 98.2343 2.72018 98.1916 3.10418C98.149 3.46685 98.0423 3.75485 97.8716 3.96818C97.701 4.16018 97.4236 4.29885 97.0396 4.38418C96.8263 4.42685 96.613 4.45885 96.3996 4.48018C96.2076 4.50152 96.005 4.51218 95.7916 4.51218C95.493 4.51218 95.1943 4.48018 94.8956 4.41618C94.2983 4.30952 93.765 4.25618 93.2956 4.25618C92.7836 4.25618 92.2716 4.28818 91.7596 4.35218C91.269 4.41618 90.7676 4.48018 90.2556 4.54418C90.1276 4.56552 89.989 4.60818 89.8396 4.67218C89.6903 4.71485 89.6156 4.82152 89.6156 4.99218C89.573 5.58952 89.4876 6.18685 89.3596 6.78418C89.2316 7.36018 89.2636 7.94685 89.4556 8.54418C89.5623 8.97085 89.7223 9.26952 89.9356 9.44018C90.1703 9.58952 90.501 9.66418 90.9276 9.66418C91.1623 9.64285 91.3756 9.63218 91.5676 9.63218C91.781 9.63218 92.005 9.63218 92.2396 9.63218H93.7116H94.5116C95.045 9.63218 95.461 9.72818 95.7596 9.92018C96.0796 10.1122 96.261 10.4962 96.3036 11.0722C96.3676 12.6082 95.8023 13.4082 94.6076 13.4722C94.2663 13.4935 93.925 13.5148 93.5836 13.5362C93.2636 13.5362 92.933 13.5362 92.5916 13.5362C92.357 13.5362 92.1116 13.5362 91.8556 13.5362C91.5996 13.5362 91.3543 13.5148 91.1196 13.4722C91.0556 13.4722 90.9916 13.4722 90.9276 13.4722C90.8636 13.4509 90.7996 13.4402 90.7356 13.4402C89.8396 13.4402 89.3916 13.9522 89.3916 14.9762C89.3916 15.1042 89.381 15.2322 89.3596 15.3602C89.3596 15.4668 89.381 15.5735 89.4236 15.6802C89.509 16.2562 89.5836 16.7148 89.6476 17.0562C89.733 17.3762 89.8396 17.6215 89.9676 17.7922C90.117 17.9629 90.3303 18.0695 90.6076 18.1122C90.885 18.1549 91.2583 18.1762 91.7276 18.1762H92.4636C93.1463 18.1549 93.829 18.1442 94.5116 18.1442C95.2156 18.1229 95.909 18.1122 96.5916 18.1122C97.1463 18.1122 97.5196 18.2829 97.7116 18.6242C97.925 18.9655 98.085 19.5095 98.1916 20.2562C98.2556 20.7895 98.1383 21.1735 97.8396 21.4082C97.5623 21.6215 97.1996 21.7709 96.7516 21.8562C95.8983 21.9842 95.045 22.0482 94.1916 22.0482C93.701 22.0482 93.2103 22.0269 92.7196 21.9842C92.2503 21.9629 91.7703 21.9309 91.2796 21.8882C90.853 21.8455 90.4263 21.8135 89.9996 21.7922C89.573 21.7709 89.1463 21.7602 88.7196 21.7602C88.5063 21.7602 88.293 21.7602 88.0796 21.7602C87.8663 21.7602 87.653 21.7709 87.4396 21.7922C86.949 21.7922 86.5436 21.7709 86.2236 21.7282C85.925 21.6642 85.6796 21.5469 85.4876 21.3762C85.317 21.2055 85.1996 20.9709 85.1356 20.6722C85.0716 20.3522 85.0396 19.9362 85.0396 19.4242C84.997 18.1442 84.9756 16.8428 84.9756 15.5202C84.997 14.1762 85.0076 12.7362 85.0076 11.2002ZM113.48 22.0162C112.2 21.9095 111.07 21.5789 110.088 21.0242C109.128 20.4482 108.36 19.5629 107.784 18.3682C107.592 18.0055 107.496 17.6322 107.496 17.2482C107.518 16.8642 107.603 16.5122 107.752 16.1922C107.923 15.8509 108.158 15.5628 108.456 15.3282C108.755 15.0722 109.096 14.9122 109.48 14.8482C109.694 14.8055 109.864 14.7842 109.992 14.7842C110.312 14.7842 110.59 14.8802 110.824 15.0722C111.08 15.2428 111.272 15.5415 111.4 15.9682C111.592 16.5869 111.923 17.0669 112.392 17.4082C112.862 17.7495 113.416 17.9202 114.056 17.9202C114.568 17.8775 114.952 17.7069 115.208 17.4082C115.464 17.1095 115.571 16.7042 115.528 16.1922C115.486 15.5309 115.283 14.9868 114.92 14.5602C114.579 14.1122 114.131 13.7175 113.576 13.3762C112.68 12.8429 111.816 12.2775 110.984 11.6802C110.174 11.0829 109.448 10.3469 108.808 9.47218C108.211 8.68285 107.891 7.77618 107.848 6.75218C107.806 5.72818 107.987 4.74685 108.392 3.80818C108.819 2.84818 109.459 2.02685 110.312 1.34418C111.166 0.661516 112.2 0.256183 113.416 0.128183C113.587 0.106849 113.747 0.0961819 113.896 0.0961819C114.046 0.0961819 114.195 0.0961819 114.344 0.0961819C115.027 0.0961819 115.678 0.181515 116.296 0.352182C116.936 0.501516 117.566 0.757516 118.184 1.12018C118.59 1.35485 118.91 1.62152 119.144 1.92018C119.379 2.19752 119.571 2.50685 119.72 2.84818C119.87 3.18952 119.976 3.54152 120.04 3.90418C120.104 4.26685 120.168 4.64018 120.232 5.02418C120.275 5.30152 120.254 5.55752 120.168 5.79218C120.104 6.00552 119.987 6.20818 119.816 6.40018C119.667 6.57085 119.486 6.73085 119.272 6.88018C119.08 7.00818 118.878 7.12552 118.664 7.23218C118.494 7.31752 118.302 7.36018 118.088 7.36018C117.747 7.36018 117.416 7.26418 117.096 7.07218C116.776 6.88018 116.456 6.69885 116.136 6.52818C116.072 6.48552 116.03 6.40018 116.008 6.27218C115.987 6.12285 115.976 5.99485 115.976 5.88818C115.976 5.54685 115.934 5.22685 115.848 4.92818C115.784 4.62952 115.571 4.41618 115.208 4.28818C115.016 4.20285 114.771 4.16018 114.472 4.16018C113.982 4.16018 113.523 4.35218 113.096 4.73618C112.819 5.03485 112.606 5.34418 112.456 5.66418C112.328 5.98418 112.35 6.35752 112.52 6.78418C112.734 7.31752 113.022 7.76552 113.384 8.12818C113.747 8.49085 114.174 8.80018 114.664 9.05618C116.542 10.0802 118.131 11.4455 119.432 13.1522C119.987 13.8775 120.307 14.6988 120.392 15.6162C120.499 16.5122 120.392 17.3868 120.072 18.2402C119.752 19.0722 119.24 19.8082 118.536 20.4482C117.832 21.0882 116.947 21.5042 115.88 21.6962C115.56 21.7602 115.23 21.8349 114.888 21.9202C114.568 22.0055 114.227 22.0482 113.864 22.0482C113.8 22.0482 113.736 22.0375 113.672 22.0162C113.608 22.0162 113.544 22.0162 113.48 22.0162ZM121.595 11.3922C121.702 10.0695 121.713 8.73618 121.627 7.39218C121.563 6.04818 121.542 4.75752 121.563 3.52018C121.606 2.77352 121.851 2.16552 122.299 1.69618C122.747 1.22685 123.291 0.992182 123.931 0.992182C124.337 0.992182 124.699 1.06685 125.019 1.21618C125.361 1.36552 125.574 1.65352 125.659 2.08018C125.787 2.74152 125.841 3.44552 125.819 4.19218C125.819 4.93885 125.798 5.65352 125.755 6.33618C125.691 7.50952 125.649 8.68285 125.627 9.85618C125.627 11.0295 125.627 12.2135 125.627 13.4082C125.606 14.4962 125.595 15.5735 125.595 16.6402C125.617 17.6855 125.617 18.7522 125.595 19.8402C125.595 20.6295 125.457 21.1735 125.179 21.4722C124.902 21.7495 124.379 21.8882 123.611 21.8882C123.014 21.8882 122.523 21.7389 122.139 21.4402C121.947 21.2909 121.809 21.1202 121.723 20.9282C121.659 20.7362 121.617 20.5335 121.595 20.3202C121.574 20.1069 121.563 19.8935 121.563 19.6802C121.585 19.4455 121.595 19.2322 121.595 19.0402C121.553 17.7389 121.542 16.4482 121.563 15.1682C121.585 13.8882 121.595 12.6295 121.595 11.3922ZM127.222 2.94418C127.179 2.32552 127.286 1.86685 127.542 1.56818C127.798 1.26952 128.214 1.05618 128.79 0.928183C129.899 0.693516 130.955 0.576183 131.958 0.576183C132.577 0.576183 133.185 0.618849 133.782 0.704182C134.401 0.768182 135.019 0.864182 135.638 0.992182C136.491 1.18418 137.206 1.42952 137.782 1.72818C138.358 2.00552 138.817 2.36818 139.158 2.81618C139.499 3.24285 139.745 3.77618 139.894 4.41618C140.043 5.03485 140.129 5.79218 140.15 6.68818C140.171 7.90418 140.203 9.12018 140.246 10.3362C140.31 11.5522 140.353 12.7682 140.374 13.9842C140.395 14.7308 140.31 15.4562 140.118 16.1602C139.947 16.8429 139.745 17.5255 139.51 18.2082C139.318 18.7629 139.019 19.2109 138.614 19.5522C138.23 19.8722 137.771 20.1175 137.238 20.2882C136.129 20.6722 134.998 20.9389 133.846 21.0882C132.715 21.2162 131.574 21.2802 130.422 21.2802C130.059 21.2802 129.686 21.2802 129.302 21.2802C128.939 21.2589 128.577 21.2375 128.214 21.2162C127.787 21.1735 127.499 20.9922 127.35 20.6722C127.222 20.3522 127.158 20.0002 127.158 19.6162C127.158 16.8642 127.19 14.0908 127.254 11.2962C127.339 8.50152 127.329 5.71752 127.222 2.94418ZM131.51 6.84818V11.3282V16.2562C131.51 16.5549 131.563 16.8215 131.67 17.0562C131.777 17.2695 132.001 17.4189 132.342 17.5042C132.449 17.5255 132.545 17.5469 132.63 17.5682C132.715 17.5682 132.811 17.5682 132.918 17.5682C133.281 17.5682 133.622 17.5042 133.942 17.3762C134.283 17.2482 134.593 17.0775 134.87 16.8642C135.147 16.6295 135.371 16.3628 135.542 16.0642C135.713 15.7655 135.798 15.4562 135.798 15.1362C135.819 13.6855 135.841 12.2562 135.862 10.8482C135.905 9.41885 135.809 7.98952 135.574 6.56018C135.467 5.98418 135.201 5.53618 134.774 5.21618C134.347 4.89618 133.857 4.73618 133.302 4.73618C132.619 4.82152 132.15 5.01352 131.894 5.31218C131.638 5.58952 131.51 6.10152 131.51 6.84818ZM142.383 11.2002C142.447 9.92018 142.457 8.54418 142.415 7.07218C142.393 5.57885 142.457 4.06418 142.607 2.52818C142.649 2.03752 142.767 1.68552 142.959 1.47218C143.151 1.25885 143.503 1.15218 144.015 1.15218C145.423 1.13085 146.831 1.09885 148.239 1.05618C149.668 0.992182 151.087 0.938849 152.495 0.896183C152.879 0.896183 153.252 0.917516 153.615 0.960182C153.977 1.00285 154.34 1.10952 154.703 1.28018C155.087 1.47218 155.332 1.72818 155.439 2.04818C155.567 2.36818 155.609 2.72018 155.567 3.10418C155.524 3.46685 155.417 3.75485 155.247 3.96818C155.076 4.16018 154.799 4.29885 154.415 4.38418C154.201 4.42685 153.988 4.45885 153.775 4.48018C153.583 4.50152 153.38 4.51218 153.167 4.51218C152.868 4.51218 152.569 4.48018 152.271 4.41618C151.673 4.30952 151.14 4.25618 150.671 4.25618C150.159 4.25618 149.647 4.28818 149.135 4.35218C148.644 4.41618 148.143 4.48018 147.631 4.54418C147.503 4.56552 147.364 4.60818 147.215 4.67218C147.065 4.71485 146.991 4.82152 146.991 4.99218C146.948 5.58952 146.863 6.18685 146.735 6.78418C146.607 7.36018 146.639 7.94685 146.831 8.54418C146.937 8.97085 147.097 9.26952 147.311 9.44018C147.545 9.58952 147.876 9.66418 148.303 9.66418C148.537 9.64285 148.751 9.63218 148.943 9.63218C149.156 9.63218 149.38 9.63218 149.615 9.63218H151.087H151.887C152.42 9.63218 152.836 9.72818 153.135 9.92018C153.455 10.1122 153.636 10.4962 153.679 11.0722C153.743 12.6082 153.177 13.4082 151.983 13.4722C151.641 13.4935 151.3 13.5148 150.959 13.5362C150.639 13.5362 150.308 13.5362 149.967 13.5362C149.732 13.5362 149.487 13.5362 149.231 13.5362C148.975 13.5362 148.729 13.5148 148.495 13.4722C148.431 13.4722 148.367 13.4722 148.303 13.4722C148.239 13.4509 148.175 13.4402 148.111 13.4402C147.215 13.4402 146.767 13.9522 146.767 14.9762C146.767 15.1042 146.756 15.2322 146.735 15.3602C146.735 15.4668 146.756 15.5735 146.799 15.6802C146.884 16.2562 146.959 16.7148 147.023 17.0562C147.108 17.3762 147.215 17.6215 147.343 17.7922C147.492 17.9629 147.705 18.0695 147.983 18.1122C148.26 18.1549 148.633 18.1762 149.103 18.1762H149.839C150.521 18.1549 151.204 18.1442 151.887 18.1442C152.591 18.1229 153.284 18.1122 153.967 18.1122C154.521 18.1122 154.895 18.2829 155.087 18.6242C155.3 18.9655 155.46 19.5095 155.567 20.2562C155.631 20.7895 155.513 21.1735 155.215 21.4082C154.937 21.6215 154.575 21.7709 154.127 21.8562C153.273 21.9842 152.42 22.0482 151.567 22.0482C151.076 22.0482 150.585 22.0269 150.095 21.9842C149.625 21.9629 149.145 21.9309 148.655 21.8882C148.228 21.8455 147.801 21.8135 147.375 21.7922C146.948 21.7709 146.521 21.7602 146.095 21.7602C145.881 21.7602 145.668 21.7602 145.455 21.7602C145.241 21.7602 145.028 21.7709 144.815 21.7922C144.324 21.7922 143.919 21.7709 143.599 21.7282C143.3 21.6642 143.055 21.5469 142.863 21.3762C142.692 21.2055 142.575 20.9709 142.511 20.6722C142.447 20.3522 142.415 19.9362 142.415 19.4242C142.372 18.1442 142.351 16.8428 142.351 15.5202C142.372 14.1762 142.383 12.7362 142.383 11.2002ZM157.095 10.6242V3.26418C157.095 2.56018 157.234 2.00552 157.511 1.60018C157.81 1.19485 158.301 0.981515 158.983 0.960182C159.474 0.938849 159.954 0.928183 160.423 0.928183C160.893 0.90685 161.373 0.896183 161.863 0.896183C162.311 0.896183 162.866 0.928183 163.527 0.992182C164.21 1.03485 164.882 1.14152 165.543 1.31218C166.226 1.48285 166.834 1.72818 167.367 2.04818C167.901 2.34685 168.253 2.75218 168.423 3.26418C168.594 3.84018 168.743 4.40552 168.871 4.96018C168.999 5.51485 169.063 6.06952 169.063 6.62418C169.063 7.15752 168.978 7.70152 168.807 8.25618C168.637 8.78952 168.349 9.31218 167.943 9.82418C167.773 10.0588 167.719 10.2402 167.783 10.3682C167.847 10.4962 167.965 10.6349 168.135 10.7842C169.117 11.5948 169.746 12.5655 170.023 13.6962C170.301 14.8268 170.226 16.0748 169.799 17.4402C169.629 17.9948 169.405 18.5282 169.127 19.0402C168.85 19.5309 168.498 19.9682 168.071 20.3522C167.666 20.7362 167.175 21.0455 166.599 21.2802C166.045 21.5149 165.383 21.6429 164.615 21.6642C164.039 21.6855 163.463 21.7069 162.887 21.7282C162.311 21.7495 161.735 21.7602 161.159 21.7602C160.882 21.7602 160.605 21.7602 160.327 21.7602C160.05 21.7602 159.773 21.7389 159.495 21.6962C159.026 21.6535 158.653 21.5895 158.375 21.5042C158.098 21.4189 157.874 21.2802 157.703 21.0882C157.533 20.8962 157.405 20.6295 157.319 20.2882C157.234 19.9469 157.159 19.5095 157.095 18.9762C157.01 18.2082 156.967 17.4509 156.967 16.7042C156.989 15.9575 157.01 15.2322 157.031 14.5282C157.074 13.8242 157.106 13.1415 157.127 12.4802C157.149 11.8188 157.138 11.2002 157.095 10.6242ZM161.639 15.4562C161.639 15.5415 161.629 15.6268 161.607 15.7122C161.607 15.7762 161.618 15.8508 161.639 15.9362C161.661 16.1069 161.661 16.2882 161.639 16.4802C161.618 16.6508 161.618 16.8215 161.639 16.9922C161.682 17.1628 161.746 17.3122 161.831 17.4402C161.938 17.5682 162.119 17.6642 162.375 17.7282C162.439 17.7495 162.535 17.7602 162.663 17.7602C162.898 17.7602 163.154 17.7388 163.431 17.6962C163.709 17.6322 163.975 17.5575 164.231 17.4722C164.509 17.3655 164.743 17.2589 164.935 17.1522C165.127 17.0242 165.245 16.9068 165.287 16.8002C165.629 15.9255 165.629 15.0082 165.287 14.0482C164.946 13.1948 164.295 12.7682 163.335 12.7682C163.229 12.7682 163.111 12.7788 162.983 12.8002C162.877 12.8002 162.759 12.8108 162.631 12.8322C162.354 12.8748 162.151 12.9602 162.023 13.0882C161.895 13.2162 161.799 13.3655 161.735 13.5362C161.693 13.6855 161.671 13.8562 161.671 14.0482C161.671 14.2402 161.661 14.4322 161.639 14.6242C161.618 14.7522 161.607 14.8908 161.607 15.0402C161.629 15.1682 161.639 15.3069 161.639 15.4562ZM161.383 5.95218V6.65618V8.22418C161.383 8.37352 161.394 8.51218 161.415 8.64018C161.458 8.76818 161.565 8.85352 161.735 8.89618C162.055 8.96018 162.365 8.99218 162.663 8.99218C162.962 8.99218 163.239 8.96018 163.495 8.89618C163.751 8.81085 163.997 8.68285 164.231 8.51218C164.637 8.19218 164.861 7.80818 164.903 7.36018C164.967 6.89085 164.978 6.42152 164.935 5.95218C164.85 5.39752 164.562 4.97085 164.071 4.67218C163.602 4.37352 163.101 4.22418 162.567 4.22418C161.799 4.22418 161.405 4.80018 161.383 5.95218ZM182.749 21.8562C182.323 21.8562 181.96 21.8349 181.661 21.7922C181.384 21.7495 181.149 21.6535 180.957 21.5042C180.787 21.3549 180.637 21.1522 180.509 20.8962C180.381 20.6402 180.264 20.2989 180.157 19.8722C180.093 19.5735 179.987 19.3495 179.837 19.2002C179.688 19.0295 179.443 18.9229 179.101 18.8802C178.76 18.8375 178.419 18.8055 178.077 18.7842C177.757 18.7629 177.427 18.7522 177.085 18.7522C176.509 18.7522 176.04 18.8589 175.677 19.0722C175.336 19.2855 175.048 19.6695 174.813 20.2242C174.365 21.3549 173.619 21.9202 172.573 21.9202C172.189 21.9202 171.773 21.8242 171.325 21.6322C170.941 21.4615 170.675 21.2589 170.525 21.0242C170.376 20.7895 170.387 20.4375 170.557 19.9682C171.048 18.5175 171.464 17.0562 171.805 15.5842C172.168 14.0908 172.509 12.6082 172.829 11.1362C173.171 9.64285 173.512 8.16018 173.853 6.68818C174.216 5.21618 174.632 3.76552 175.101 2.33618C175.315 1.71752 175.635 1.32285 176.061 1.15218C176.488 0.960183 176.947 0.864183 177.437 0.864183C178.056 0.864183 178.621 0.93885 179.133 1.08818C179.667 1.21618 180.04 1.62152 180.253 2.30418C180.808 3.94685 181.267 5.64285 181.629 7.39218C181.992 9.14152 182.387 10.8482 182.813 12.5122C183.091 13.6642 183.4 14.7949 183.741 15.9042C184.083 16.9922 184.413 18.1015 184.733 19.2322C185.032 20.2562 185.032 20.9495 184.733 21.3122C184.456 21.6749 183.795 21.8562 182.749 21.8562ZM178.013 11.2002C177.928 10.9442 177.811 10.8162 177.661 10.8162C177.512 10.8162 177.373 10.9655 177.245 11.2642C177.139 11.5628 177.032 11.9042 176.925 12.2882C176.84 12.6722 176.765 13.0455 176.701 13.4082C176.659 13.7495 176.637 13.9842 176.637 14.1122C176.616 14.4322 176.691 14.6348 176.861 14.7202C177.053 14.8055 177.267 14.8482 177.501 14.8482H178.173H178.301C178.536 14.8482 178.685 14.7522 178.749 14.5602C178.813 14.3682 178.803 14.1549 178.717 13.9202C178.589 13.4935 178.483 13.0455 178.397 12.5762C178.312 12.1068 178.184 11.6482 178.013 11.2002ZM190.32 17.9522C190.32 18.3789 190.32 18.8055 190.32 19.2322C190.341 19.6375 190.331 20.0535 190.288 20.4802C190.245 21.0349 190.064 21.4189 189.744 21.6322C189.445 21.8455 188.923 21.9522 188.176 21.9522C187.6 21.9522 187.131 21.8669 186.768 21.6962C186.427 21.5255 186.256 21.0989 186.256 20.4162C186.235 17.6215 186.224 14.7735 186.224 11.8722C186.224 8.97085 186.224 6.12285 186.224 3.32818C186.224 2.28285 186.704 1.63218 187.664 1.37618C188.411 1.20552 189.147 1.06685 189.872 0.960182C190.597 0.853516 191.323 0.800182 192.048 0.800182C193.477 0.800182 194.843 1.00285 196.144 1.40818C196.699 1.57885 197.211 1.92018 197.68 2.43218C198.171 2.94418 198.587 3.53085 198.928 4.19218C199.291 4.85352 199.557 5.54685 199.728 6.27218C199.899 6.97618 199.952 7.62685 199.888 8.22418C199.717 9.80285 199.12 11.1042 198.096 12.1282C197.627 12.5762 197.349 13.0669 197.264 13.6002C197.2 14.1122 197.243 14.6455 197.392 15.2002C197.605 15.9895 197.883 16.7362 198.224 17.4402C198.587 18.1442 198.971 18.8375 199.376 19.5202C199.717 20.0962 199.813 20.5762 199.664 20.9602C199.536 21.3229 199.163 21.5362 198.544 21.6002C198.245 21.6429 197.957 21.6855 197.68 21.7282C197.403 21.7495 197.147 21.7602 196.912 21.7602C196.293 21.7602 195.771 21.6002 195.344 21.2802C194.939 20.9602 194.619 20.3095 194.384 19.3282C194.235 18.7522 194.075 18.1762 193.904 17.6002C193.755 17.0242 193.605 16.4482 193.456 15.8722C193.349 15.4668 193.093 15.1042 192.688 14.7842C192.304 14.4428 191.899 14.2722 191.472 14.2722C191.173 14.2722 190.917 14.3788 190.704 14.5922C190.491 14.7842 190.373 15.0615 190.352 15.4242C190.309 15.8508 190.288 16.2775 190.288 16.7042C190.309 17.1095 190.32 17.5255 190.32 17.9522ZM194.896 7.64818C194.896 6.75218 194.629 5.99485 194.096 5.37618C193.584 4.73618 192.923 4.41618 192.112 4.41618C191.771 4.41618 191.44 4.49085 191.12 4.64018C190.8 4.76818 190.619 5.03485 190.576 5.44018C190.576 6.10152 190.533 6.82685 190.448 7.61618C190.363 8.38418 190.395 9.09885 190.544 9.76018C190.629 10.1655 190.821 10.4108 191.12 10.4962C191.419 10.5815 191.749 10.6242 192.112 10.6242C192.965 10.6242 193.637 10.3682 194.128 9.85618C194.64 9.32285 194.896 8.58685 194.896 7.64818ZM219.268 13.2802V19.1682C219.268 20.1495 219.118 20.8429 218.82 21.2482C218.542 21.6535 218.062 21.8562 217.38 21.8562C216.356 21.8562 215.652 21.6429 215.268 21.2162C214.905 20.7895 214.724 20.0749 214.724 19.0722C214.702 17.1948 214.692 15.3388 214.692 13.5042C214.692 11.6695 214.692 9.81352 214.692 7.93618C214.692 7.70152 214.692 7.47752 214.692 7.26418C214.713 7.05085 214.713 6.82685 214.692 6.59218C214.649 6.14418 214.585 5.80285 214.5 5.56818C214.436 5.33352 214.318 5.16285 214.148 5.05618C213.998 4.92818 213.796 4.85352 213.54 4.83218C213.305 4.81085 212.996 4.80018 212.612 4.80018C212.42 4.82152 212.228 4.84285 212.036 4.86418C211.844 4.86418 211.652 4.86418 211.46 4.86418C211.374 4.86418 211.289 4.86418 211.204 4.86418C211.118 4.86418 211.033 4.85352 210.948 4.83218C209.348 4.57618 208.782 3.71218 209.252 2.24018C209.316 2.00552 209.412 1.82418 209.54 1.69618C209.668 1.56818 209.881 1.46152 210.18 1.37618C210.798 1.20552 211.417 1.09885 212.036 1.05618C212.676 0.992182 213.316 0.960182 213.956 0.960182C214.894 0.981515 215.822 1.00285 216.74 1.02418C217.678 1.04552 218.617 1.05618 219.556 1.05618C220.089 1.05618 220.612 1.05618 221.124 1.05618C221.636 1.03485 222.158 1.01352 222.692 0.992182H222.884C223.46 0.992182 223.897 1.08818 224.196 1.28018C224.516 1.45085 224.729 1.68552 224.836 1.98418C224.964 2.26152 225.006 2.58152 224.964 2.94418C224.921 3.28552 224.825 3.63752 224.676 4.00018C224.505 4.46952 224.249 4.76818 223.908 4.89618C223.588 5.00285 223.204 5.05618 222.756 5.05618C222.478 5.03485 222.222 5.02418 221.988 5.02418C221.774 5.02418 221.572 5.02418 221.38 5.02418C220.846 5.02418 220.43 5.06685 220.132 5.15218C219.854 5.23752 219.652 5.40818 219.524 5.66418C219.396 5.89885 219.321 6.25085 219.3 6.72018C219.278 7.16818 219.268 7.76552 219.268 8.51218V13.2802ZM238.703 8.73618C238.809 9.78152 238.82 10.9548 238.735 12.2562C238.671 13.5362 238.628 14.8589 238.607 16.2242C238.607 16.9069 238.457 17.5575 238.159 18.1762C237.86 18.7735 237.476 19.3175 237.007 19.8082C236.537 20.2775 236.015 20.6829 235.439 21.0242C234.863 21.3442 234.297 21.5682 233.743 21.6962C233.401 21.7602 233.071 21.8242 232.751 21.8882C232.431 21.9309 232.111 21.9522 231.791 21.9522C231.065 21.9522 230.372 21.8029 229.711 21.5042C228.431 20.9282 227.513 20.1495 226.959 19.1682C226.425 18.1868 226.148 17.0242 226.127 15.6802C226.105 14.0802 226.105 12.5015 226.127 10.9442C226.169 9.36552 226.159 7.78685 226.095 6.20818C226.073 5.37618 226.223 4.60818 226.543 3.90418C226.884 3.20018 227.332 2.59218 227.887 2.08018C228.463 1.54685 229.113 1.13085 229.839 0.832182C230.585 0.533515 231.343 0.384182 232.111 0.384182C233.327 0.384182 234.425 0.597516 235.407 1.02418C236.409 1.42952 237.252 2.17618 237.935 3.26418C238.404 3.98952 238.66 4.80018 238.703 5.69618C238.745 6.57085 238.745 7.58418 238.703 8.73618ZM234.319 10.5282C234.276 9.84552 234.244 9.13085 234.223 8.38418C234.201 7.61618 234.137 6.84818 234.031 6.08018C233.967 5.54685 233.775 5.12018 233.455 4.80018C233.135 4.45885 232.761 4.28818 232.335 4.28818C231.823 4.28818 231.385 4.50152 231.023 4.92818C230.66 5.33352 230.468 5.78152 230.447 6.27218C230.404 7.85085 230.329 9.42952 230.223 11.0082C230.137 12.5655 230.212 14.1335 230.447 15.7122C230.532 16.1815 230.692 16.5975 230.927 16.9602C231.161 17.3228 231.567 17.5255 232.143 17.5682C232.761 17.5682 233.199 17.4189 233.455 17.1202C233.711 16.8215 233.913 16.3949 234.063 15.8402C234.276 14.9868 234.351 14.1228 234.287 13.2482C234.223 12.3735 234.233 11.4668 234.319 10.5282ZM260.187 21.8562C259.76 21.8562 259.398 21.8349 259.099 21.7922C258.822 21.7495 258.587 21.6535 258.395 21.5042C258.224 21.3549 258.075 21.1522 257.947 20.8962C257.819 20.6402 257.702 20.2989 257.595 19.8722C257.531 19.5735 257.424 19.3495 257.275 19.2002C257.126 19.0295 256.88 18.9229 256.539 18.8802C256.198 18.8375 255.856 18.8055 255.515 18.7842C255.195 18.7629 254.864 18.7522 254.523 18.7522C253.947 18.7522 253.478 18.8589 253.115 19.0722C252.774 19.2855 252.486 19.6695 252.251 20.2242C251.803 21.3549 251.056 21.9202 250.011 21.9202C249.627 21.9202 249.211 21.8242 248.763 21.6322C248.379 21.4615 248.112 21.2589 247.963 21.0242C247.814 20.7895 247.824 20.4375 247.995 19.9682C248.486 18.5175 248.902 17.0562 249.243 15.5842C249.606 14.0908 249.947 12.6082 250.267 11.1362C250.608 9.64285 250.95 8.16018 251.291 6.68818C251.654 5.21618 252.07 3.76552 252.539 2.33618C252.752 1.71752 253.072 1.32285 253.499 1.15218C253.926 0.960183 254.384 0.864183 254.875 0.864183C255.494 0.864183 256.059 0.93885 256.571 1.08818C257.104 1.21618 257.478 1.62152 257.691 2.30418C258.246 3.94685 258.704 5.64285 259.067 7.39218C259.43 9.14152 259.824 10.8482 260.251 12.5122C260.528 13.6642 260.838 14.7949 261.179 15.9042C261.52 16.9922 261.851 18.1015 262.171 19.2322C262.47 20.2562 262.47 20.9495 262.171 21.3122C261.894 21.6749 261.232 21.8562 260.187 21.8562ZM255.451 11.2002C255.366 10.9442 255.248 10.8162 255.099 10.8162C254.95 10.8162 254.811 10.9655 254.683 11.2642C254.576 11.5628 254.47 11.9042 254.363 12.2882C254.278 12.6722 254.203 13.0455 254.139 13.4082C254.096 13.7495 254.075 13.9842 254.075 14.1122C254.054 14.4322 254.128 14.6348 254.299 14.7202C254.491 14.8055 254.704 14.8482 254.939 14.8482H255.611H255.739C255.974 14.8482 256.123 14.7522 256.187 14.5602C256.251 14.3682 256.24 14.1549 256.155 13.9202C256.027 13.4935 255.92 13.0455 255.835 12.5762C255.75 12.1068 255.622 11.6482 255.451 11.2002ZM267.938 17.1522C268.45 17.6642 268.973 17.9202 269.506 17.9202C270.189 17.9202 270.765 17.5362 271.234 16.7682C271.447 16.4268 271.767 16.1708 272.194 16.0002C272.621 15.8295 273.079 15.7442 273.57 15.7442C273.954 15.7442 274.317 15.8082 274.658 15.9362C275.021 16.0642 275.298 16.2562 275.49 16.5122C275.618 16.6828 275.682 16.8642 275.682 17.0562C275.703 17.2269 275.682 17.4295 275.618 17.6642C275.469 18.2615 275.245 18.7735 274.946 19.2002C274.647 19.6269 274.295 19.9895 273.89 20.2882C273.506 20.5869 273.069 20.8429 272.578 21.0562C272.087 21.2482 271.586 21.4082 271.074 21.5362C270.37 21.7282 269.687 21.8242 269.026 21.8242C268.322 21.8242 267.639 21.7282 266.978 21.5362C266.338 21.3229 265.751 21.0242 265.218 20.6402C264.685 20.2349 264.226 19.7442 263.842 19.1682C263.458 18.5709 263.17 17.8882 262.978 17.1202C262.786 16.3309 262.658 15.5095 262.594 14.6562C262.551 13.7815 262.541 12.9068 262.562 12.0322C262.605 11.1362 262.669 10.2508 262.754 9.37618C262.839 8.50152 262.925 7.65885 263.01 6.84818C263.181 5.39752 263.618 4.20285 264.322 3.26418C265.047 2.30418 266.114 1.61085 267.522 1.18418C267.863 1.07752 268.194 1.00285 268.514 0.960182C268.855 0.896183 269.197 0.864183 269.538 0.864183C270.583 0.864183 271.565 1.10952 272.482 1.60018C273.421 2.09085 274.231 2.81618 274.914 3.77618C275.767 4.94952 275.799 5.83485 275.01 6.43218C274.861 6.53885 274.658 6.62418 274.402 6.68818C274.167 6.73085 273.901 6.75218 273.602 6.75218C273.175 6.75218 272.759 6.69885 272.354 6.59218C271.97 6.48552 271.714 6.31485 271.586 6.08018C271.351 5.69618 271.074 5.38685 270.754 5.15218C270.455 4.89618 270.093 4.76818 269.666 4.76818C269.517 4.76818 269.41 4.77885 269.346 4.80018C268.791 4.90685 268.397 5.17352 268.162 5.60018C267.949 6.02685 267.778 6.46418 267.65 6.91218C267.543 7.27485 267.437 7.74418 267.33 8.32018C267.223 8.87485 267.127 9.48285 267.042 10.1442C266.978 10.8055 266.925 11.4882 266.882 12.1922C266.861 12.8962 266.882 13.5682 266.946 14.2082C267.01 14.8482 267.117 15.4242 267.266 15.9362C267.415 16.4482 267.639 16.8535 267.938 17.1522ZM282.188 17.1522C282.7 17.6642 283.223 17.9202 283.756 17.9202C284.439 17.9202 285.015 17.5362 285.484 16.7682C285.697 16.4268 286.017 16.1708 286.444 16.0002C286.871 15.8295 287.329 15.7442 287.82 15.7442C288.204 15.7442 288.567 15.8082 288.908 15.9362C289.271 16.0642 289.548 16.2562 289.74 16.5122C289.868 16.6828 289.932 16.8642 289.932 17.0562C289.953 17.2269 289.932 17.4295 289.868 17.6642C289.719 18.2615 289.495 18.7735 289.196 19.2002C288.897 19.6269 288.545 19.9895 288.14 20.2882C287.756 20.5869 287.319 20.8429 286.828 21.0562C286.337 21.2482 285.836 21.4082 285.324 21.5362C284.62 21.7282 283.937 21.8242 283.276 21.8242C282.572 21.8242 281.889 21.7282 281.228 21.5362C280.588 21.3229 280.001 21.0242 279.468 20.6402C278.935 20.2349 278.476 19.7442 278.092 19.1682C277.708 18.5709 277.42 17.8882 277.228 17.1202C277.036 16.3309 276.908 15.5095 276.844 14.6562C276.801 13.7815 276.791 12.9068 276.812 12.0322C276.855 11.1362 276.919 10.2508 277.004 9.37618C277.089 8.50152 277.175 7.65885 277.26 6.84818C277.431 5.39752 277.868 4.20285 278.572 3.26418C279.297 2.30418 280.364 1.61085 281.772 1.18418C282.113 1.07752 282.444 1.00285 282.764 0.960182C283.105 0.896183 283.447 0.864183 283.788 0.864183C284.833 0.864183 285.815 1.10952 286.732 1.60018C287.671 2.09085 288.481 2.81618 289.164 3.77618C290.017 4.94952 290.049 5.83485 289.26 6.43218C289.111 6.53885 288.908 6.62418 288.652 6.68818C288.417 6.73085 288.151 6.75218 287.852 6.75218C287.425 6.75218 287.009 6.69885 286.604 6.59218C286.22 6.48552 285.964 6.31485 285.836 6.08018C285.601 5.69618 285.324 5.38685 285.004 5.15218C284.705 4.89618 284.343 4.76818 283.916 4.76818C283.767 4.76818 283.66 4.77885 283.596 4.80018C283.041 4.90685 282.647 5.17352 282.412 5.60018C282.199 6.02685 282.028 6.46418 281.9 6.91218C281.793 7.27485 281.687 7.74418 281.58 8.32018C281.473 8.87485 281.377 9.48285 281.292 10.1442C281.228 10.8055 281.175 11.4882 281.132 12.1922C281.111 12.8962 281.132 13.5682 281.196 14.2082C281.26 14.8482 281.367 15.4242 281.516 15.9362C281.665 16.4482 281.889 16.8535 282.188 17.1522ZM291.414 11.2002C291.478 9.92018 291.489 8.54418 291.446 7.07218C291.425 5.57885 291.489 4.06418 291.638 2.52818C291.681 2.03752 291.798 1.68552 291.99 1.47218C292.182 1.25885 292.534 1.15218 293.046 1.15218C294.454 1.13085 295.862 1.09885 297.27 1.05618C298.699 0.992182 300.118 0.938849 301.526 0.896183C301.91 0.896183 302.283 0.917516 302.646 0.960182C303.009 1.00285 303.371 1.10952 303.734 1.28018C304.118 1.47218 304.363 1.72818 304.47 2.04818C304.598 2.36818 304.641 2.72018 304.598 3.10418C304.555 3.46685 304.449 3.75485 304.278 3.96818C304.107 4.16018 303.83 4.29885 303.446 4.38418C303.233 4.42685 303.019 4.45885 302.806 4.48018C302.614 4.50152 302.411 4.51218 302.198 4.51218C301.899 4.51218 301.601 4.48018 301.302 4.41618C300.705 4.30952 300.171 4.25618 299.702 4.25618C299.19 4.25618 298.678 4.28818 298.166 4.35218C297.675 4.41618 297.174 4.48018 296.662 4.54418C296.534 4.56552 296.395 4.60818 296.246 4.67218C296.097 4.71485 296.022 4.82152 296.022 4.99218C295.979 5.58952 295.894 6.18685 295.766 6.78418C295.638 7.36018 295.67 7.94685 295.862 8.54418C295.969 8.97085 296.129 9.26952 296.342 9.44018C296.577 9.58952 296.907 9.66418 297.334 9.66418C297.569 9.64285 297.782 9.63218 297.974 9.63218C298.187 9.63218 298.411 9.63218 298.646 9.63218H300.118H300.918C301.451 9.63218 301.867 9.72818 302.166 9.92018C302.486 10.1122 302.667 10.4962 302.71 11.0722C302.774 12.6082 302.209 13.4082 301.014 13.4722C300.673 13.4935 300.331 13.5148 299.99 13.5362C299.67 13.5362 299.339 13.5362 298.998 13.5362C298.763 13.5362 298.518 13.5362 298.262 13.5362C298.006 13.5362 297.761 13.5148 297.526 13.4722C297.462 13.4722 297.398 13.4722 297.334 13.4722C297.27 13.4509 297.206 13.4402 297.142 13.4402C296.246 13.4402 295.798 13.9522 295.798 14.9762C295.798 15.1042 295.787 15.2322 295.766 15.3602C295.766 15.4668 295.787 15.5735 295.83 15.6802C295.915 16.2562 295.99 16.7148 296.054 17.0562C296.139 17.3762 296.246 17.6215 296.374 17.7922C296.523 17.9629 296.737 18.0695 297.014 18.1122C297.291 18.1549 297.665 18.1762 298.134 18.1762H298.87C299.553 18.1549 300.235 18.1442 300.918 18.1442C301.622 18.1229 302.315 18.1122 302.998 18.1122C303.553 18.1122 303.926 18.2829 304.118 18.6242C304.331 18.9655 304.491 19.5095 304.598 20.2562C304.662 20.7895 304.545 21.1735 304.246 21.4082C303.969 21.6215 303.606 21.7709 303.158 21.8562C302.305 21.9842 301.451 22.0482 300.598 22.0482C300.107 22.0482 299.617 22.0269 299.126 21.9842C298.657 21.9629 298.177 21.9309 297.686 21.8882C297.259 21.8455 296.833 21.8135 296.406 21.7922C295.979 21.7709 295.553 21.7602 295.126 21.7602C294.913 21.7602 294.699 21.7602 294.486 21.7602C294.273 21.7602 294.059 21.7709 293.846 21.7922C293.355 21.7922 292.95 21.7709 292.63 21.7282C292.331 21.6642 292.086 21.5469 291.894 21.3762C291.723 21.2055 291.606 20.9709 291.542 20.6722C291.478 20.3522 291.446 19.9362 291.446 19.4242C291.403 18.1442 291.382 16.8428 291.382 15.5202C291.403 14.1762 291.414 12.7362 291.414 11.2002ZM311.887 22.0162C310.607 21.9095 309.476 21.5789 308.495 21.0242C307.535 20.4482 306.767 19.5629 306.191 18.3682C305.999 18.0055 305.903 17.6322 305.903 17.2482C305.924 16.8642 306.009 16.5122 306.159 16.1922C306.329 15.8509 306.564 15.5628 306.863 15.3282C307.161 15.0722 307.503 14.9122 307.887 14.8482C308.1 14.8055 308.271 14.7842 308.399 14.7842C308.719 14.7842 308.996 14.8802 309.231 15.0722C309.487 15.2428 309.679 15.5415 309.807 15.9682C309.999 16.5869 310.329 17.0669 310.799 17.4082C311.268 17.7495 311.823 17.9202 312.463 17.9202C312.975 17.8775 313.359 17.7069 313.615 17.4082C313.871 17.1095 313.977 16.7042 313.935 16.1922C313.892 15.5309 313.689 14.9868 313.327 14.5602C312.985 14.1122 312.537 13.7175 311.983 13.3762C311.087 12.8429 310.223 12.2775 309.391 11.6802C308.58 11.0829 307.855 10.3469 307.215 9.47218C306.617 8.68285 306.297 7.77618 306.255 6.75218C306.212 5.72818 306.393 4.74685 306.799 3.80818C307.225 2.84818 307.865 2.02685 308.719 1.34418C309.572 0.661516 310.607 0.256183 311.823 0.128183C311.993 0.106849 312.153 0.0961819 312.303 0.0961819C312.452 0.0961819 312.601 0.0961819 312.751 0.0961819C313.433 0.0961819 314.084 0.181515 314.703 0.352182C315.343 0.501516 315.972 0.757516 316.591 1.12018C316.996 1.35485 317.316 1.62152 317.551 1.92018C317.785 2.19752 317.977 2.50685 318.127 2.84818C318.276 3.18952 318.383 3.54152 318.447 3.90418C318.511 4.26685 318.575 4.64018 318.639 5.02418C318.681 5.30152 318.66 5.55752 318.575 5.79218C318.511 6.00552 318.393 6.20818 318.223 6.40018C318.073 6.57085 317.892 6.73085 317.679 6.88018C317.487 7.00818 317.284 7.12552 317.071 7.23218C316.9 7.31752 316.708 7.36018 316.495 7.36018C316.153 7.36018 315.823 7.26418 315.503 7.07218C315.183 6.88018 314.863 6.69885 314.543 6.52818C314.479 6.48552 314.436 6.40018 314.415 6.27218C314.393 6.12285 314.383 5.99485 314.383 5.88818C314.383 5.54685 314.34 5.22685 314.255 4.92818C314.191 4.62952 313.977 4.41618 313.615 4.28818C313.423 4.20285 313.177 4.16018 312.879 4.16018C312.388 4.16018 311.929 4.35218 311.503 4.73618C311.225 5.03485 311.012 5.34418 310.863 5.66418C310.735 5.98418 310.756 6.35752 310.927 6.78418C311.14 7.31752 311.428 7.76552 311.791 8.12818C312.153 8.49085 312.58 8.80018 313.071 9.05618C314.948 10.0802 316.537 11.4455 317.839 13.1522C318.393 13.8775 318.713 14.6988 318.799 15.6162C318.905 16.5122 318.799 17.3868 318.479 18.2402C318.159 19.0722 317.647 19.8082 316.943 20.4482C316.239 21.0882 315.353 21.5042 314.287 21.6962C313.967 21.7602 313.636 21.8349 313.295 21.9202C312.975 22.0055 312.633 22.0482 312.271 22.0482C312.207 22.0482 312.143 22.0375 312.079 22.0162C312.015 22.0162 311.951 22.0162 311.887 22.0162ZM325.762 22.0162C324.482 21.9095 323.351 21.5789 322.37 21.0242C321.41 20.4482 320.642 19.5629 320.066 18.3682C319.874 18.0055 319.778 17.6322 319.778 17.2482C319.799 16.8642 319.884 16.5122 320.034 16.1922C320.204 15.8509 320.439 15.5628 320.738 15.3282C321.036 15.0722 321.378 14.9122 321.762 14.8482C321.975 14.8055 322.146 14.7842 322.274 14.7842C322.594 14.7842 322.871 14.8802 323.106 15.0722C323.362 15.2428 323.554 15.5415 323.682 15.9682C323.874 16.5869 324.204 17.0669 324.674 17.4082C325.143 17.7495 325.698 17.9202 326.338 17.9202C326.85 17.8775 327.234 17.7069 327.49 17.4082C327.746 17.1095 327.852 16.7042 327.81 16.1922C327.767 15.5309 327.564 14.9868 327.202 14.5602C326.86 14.1122 326.412 13.7175 325.858 13.3762C324.962 12.8429 324.098 12.2775 323.266 11.6802C322.455 11.0829 321.73 10.3469 321.09 9.47218C320.492 8.68285 320.172 7.77618 320.13 6.75218C320.087 5.72818 320.268 4.74685 320.674 3.80818C321.1 2.84818 321.74 2.02685 322.594 1.34418C323.447 0.661516 324.482 0.256183 325.698 0.128183C325.868 0.106849 326.028 0.0961819 326.178 0.0961819C326.327 0.0961819 326.476 0.0961819 326.626 0.0961819C327.308 0.0961819 327.959 0.181515 328.578 0.352182C329.218 0.501516 329.847 0.757516 330.466 1.12018C330.871 1.35485 331.191 1.62152 331.426 1.92018C331.66 2.19752 331.852 2.50685 332.002 2.84818C332.151 3.18952 332.258 3.54152 332.322 3.90418C332.386 4.26685 332.45 4.64018 332.514 5.02418C332.556 5.30152 332.535 5.55752 332.45 5.79218C332.386 6.00552 332.268 6.20818 332.098 6.40018C331.948 6.57085 331.767 6.73085 331.554 6.88018C331.362 7.00818 331.159 7.12552 330.946 7.23218C330.775 7.31752 330.583 7.36018 330.37 7.36018C330.028 7.36018 329.698 7.26418 329.378 7.07218C329.058 6.88018 328.738 6.69885 328.418 6.52818C328.354 6.48552 328.311 6.40018 328.29 6.27218C328.268 6.12285 328.258 5.99485 328.258 5.88818C328.258 5.54685 328.215 5.22685 328.13 4.92818C328.066 4.62952 327.852 4.41618 327.49 4.28818C327.298 4.20285 327.052 4.16018 326.754 4.16018C326.263 4.16018 325.804 4.35218 325.378 4.73618C325.1 5.03485 324.887 5.34418 324.738 5.66418C324.61 5.98418 324.631 6.35752 324.802 6.78418C325.015 7.31752 325.303 7.76552 325.666 8.12818C326.028 8.49085 326.455 8.80018 326.946 9.05618C328.823 10.0802 330.412 11.4455 331.714 13.1522C332.268 13.8775 332.588 14.6988 332.674 15.6162C332.78 16.5122 332.674 17.3868 332.354 18.2402C332.034 19.0722 331.522 19.8082 330.818 20.4482C330.114 21.0882 329.228 21.5042 328.162 21.6962C327.842 21.7602 327.511 21.8349 327.17 21.9202C326.85 22.0055 326.508 22.0482 326.146 22.0482C326.082 22.0482 326.018 22.0375 325.954 22.0162C325.89 22.0162 325.826 22.0162 325.762 22.0162ZM353.781 21.8562C353.354 21.8562 352.991 21.8349 352.693 21.7922C352.415 21.7495 352.181 21.6535 351.989 21.5042C351.818 21.3549 351.669 21.1522 351.541 20.8962C351.413 20.6402 351.295 20.2989 351.189 19.8722C351.125 19.5735 351.018 19.3495 350.869 19.2002C350.719 19.0295 350.474 18.9229 350.133 18.8802C349.791 18.8375 349.45 18.8055 349.109 18.7842C348.789 18.7629 348.458 18.7522 348.117 18.7522C347.541 18.7522 347.071 18.8589 346.709 19.0722C346.367 19.2855 346.079 19.6695 345.845 20.2242C345.397 21.3549 344.65 21.9202 343.605 21.9202C343.221 21.9202 342.805 21.8242 342.357 21.6322C341.973 21.4615 341.706 21.2589 341.557 21.0242C341.407 20.7895 341.418 20.4375 341.589 19.9682C342.079 18.5175 342.495 17.0562 342.837 15.5842C343.199 14.0908 343.541 12.6082 343.861 11.1362C344.202 9.64285 344.543 8.16018 344.885 6.68818C345.247 5.21618 345.663 3.76552 346.133 2.33618C346.346 1.71752 346.666 1.32285 347.093 1.15218C347.519 0.960183 347.978 0.864183 348.469 0.864183C349.087 0.864183 349.653 0.93885 350.165 1.08818C350.698 1.21618 351.071 1.62152 351.285 2.30418C351.839 3.94685 352.298 5.64285 352.661 7.39218C353.023 9.14152 353.418 10.8482 353.845 12.5122C354.122 13.6642 354.431 14.7949 354.773 15.9042C355.114 16.9922 355.445 18.1015 355.765 19.2322C356.063 20.2562 356.063 20.9495 355.765 21.3122C355.487 21.6749 354.826 21.8562 353.781 21.8562ZM349.045 11.2002C348.959 10.9442 348.842 10.8162 348.693 10.8162C348.543 10.8162 348.405 10.9655 348.277 11.2642C348.17 11.5628 348.063 11.9042 347.957 12.2882C347.871 12.6722 347.797 13.0455 347.733 13.4082C347.69 13.7495 347.669 13.9842 347.669 14.1122C347.647 14.4322 347.722 14.6348 347.893 14.7202C348.085 14.8055 348.298 14.8482 348.533 14.8482H349.205H349.333C349.567 14.8482 349.717 14.7522 349.781 14.5602C349.845 14.3682 349.834 14.1549 349.749 13.9202C349.621 13.4935 349.514 13.0455 349.429 12.5762C349.343 12.1068 349.215 11.6482 349.045 11.2002ZM361.799 9.69618V15.5522C361.799 15.8508 361.821 16.1495 361.863 16.4482C361.906 16.7469 362.002 17.0242 362.151 17.2802C362.322 17.5575 362.493 17.7282 362.663 17.7922C362.834 17.8349 363.069 17.8562 363.367 17.8562C363.794 17.8135 364.221 17.7922 364.647 17.7922C365.074 17.7709 365.501 17.7602 365.927 17.7602H367.655H368.519C368.69 17.7602 368.829 17.8029 368.935 17.8882C369.042 17.9522 369.149 18.0375 369.255 18.1442C369.447 18.3362 369.575 18.5495 369.639 18.7842C369.725 18.9975 369.767 19.2215 369.767 19.4562C369.767 19.6909 369.746 19.9255 369.703 20.1602C369.682 20.3949 369.671 20.6295 369.671 20.8642C369.671 21.0562 369.618 21.2162 369.511 21.3442C369.426 21.4509 369.309 21.5362 369.159 21.6002C369.031 21.6642 368.882 21.7069 368.711 21.7282C368.562 21.7282 368.423 21.7282 368.295 21.7282C367.506 21.7495 366.717 21.7815 365.927 21.8242C365.159 21.8455 364.381 21.8562 363.591 21.8562C362.802 21.8562 362.013 21.8349 361.223 21.7922C360.455 21.7282 359.677 21.6322 358.887 21.5042C358.247 21.3975 357.821 21.1415 357.607 20.7362C357.415 20.3309 357.298 19.8829 357.255 19.3922C357.149 17.9415 357.074 16.5228 357.031 15.1362C357.01 13.7282 357.01 12.3415 357.031 10.9762C357.074 9.58952 357.138 8.20285 357.223 6.81618C357.309 5.42952 357.394 4.01085 357.479 2.56018C357.501 2.26152 357.533 2.02685 357.575 1.85618C357.618 1.68552 357.693 1.55752 357.799 1.47218C357.906 1.38685 358.055 1.33352 358.247 1.31218C358.439 1.26952 358.685 1.23752 358.983 1.21618C359.09 1.21618 359.186 1.21618 359.271 1.21618C359.357 1.19485 359.442 1.18418 359.527 1.18418C360.402 1.18418 360.999 1.37618 361.319 1.76018C361.639 2.12285 361.799 2.81618 361.799 3.84018V9.69618ZM376.018 9.69618V15.5522C376.018 15.8508 376.039 16.1495 376.082 16.4482C376.125 16.7469 376.221 17.0242 376.37 17.2802C376.541 17.5575 376.711 17.7282 376.882 17.7922C377.053 17.8349 377.287 17.8562 377.586 17.8562C378.013 17.8135 378.439 17.7922 378.866 17.7922C379.293 17.7709 379.719 17.7602 380.146 17.7602H381.874H382.738C382.909 17.7602 383.047 17.8029 383.154 17.8882C383.261 17.9522 383.367 18.0375 383.474 18.1442C383.666 18.3362 383.794 18.5495 383.858 18.7842C383.943 18.9975 383.986 19.2215 383.986 19.4562C383.986 19.6909 383.965 19.9255 383.922 20.1602C383.901 20.3949 383.89 20.6295 383.89 20.8642C383.89 21.0562 383.837 21.2162 383.73 21.3442C383.645 21.4509 383.527 21.5362 383.378 21.6002C383.25 21.6642 383.101 21.7069 382.93 21.7282C382.781 21.7282 382.642 21.7282 382.514 21.7282C381.725 21.7495 380.935 21.7815 380.146 21.8242C379.378 21.8455 378.599 21.8562 377.81 21.8562C377.021 21.8562 376.231 21.8349 375.442 21.7922C374.674 21.7282 373.895 21.6322 373.106 21.5042C372.466 21.3975 372.039 21.1415 371.826 20.7362C371.634 20.3309 371.517 19.8829 371.474 19.3922C371.367 17.9415 371.293 16.5228 371.25 15.1362C371.229 13.7282 371.229 12.3415 371.25 10.9762C371.293 9.58952 371.357 8.20285 371.442 6.81618C371.527 5.42952 371.613 4.01085 371.698 2.56018C371.719 2.26152 371.751 2.02685 371.794 1.85618C371.837 1.68552 371.911 1.55752 372.018 1.47218C372.125 1.38685 372.274 1.33352 372.466 1.31218C372.658 1.26952 372.903 1.23752 373.202 1.21618C373.309 1.21618 373.405 1.21618 373.49 1.21618C373.575 1.19485 373.661 1.18418 373.746 1.18418C374.621 1.18418 375.218 1.37618 375.538 1.76018C375.858 2.12285 376.018 2.81618 376.018 3.84018V9.69618ZM406.109 8.73618C406.216 9.78152 406.226 10.9548 406.141 12.2562C406.077 13.5362 406.034 14.8589 406.013 16.2242C406.013 16.9069 405.864 17.5575 405.565 18.1762C405.266 18.7735 404.882 19.3175 404.413 19.8082C403.944 20.2775 403.421 20.6829 402.845 21.0242C402.269 21.3442 401.704 21.5682 401.149 21.6962C400.808 21.7602 400.477 21.8242 400.157 21.8882C399.837 21.9309 399.517 21.9522 399.197 21.9522C398.472 21.9522 397.778 21.8029 397.117 21.5042C395.837 20.9282 394.92 20.1495 394.365 19.1682C393.832 18.1868 393.554 17.0242 393.533 15.6802C393.512 14.0802 393.512 12.5015 393.533 10.9442C393.576 9.36552 393.565 7.78685 393.501 6.20818C393.48 5.37618 393.629 4.60818 393.949 3.90418C394.29 3.20018 394.738 2.59218 395.293 2.08018C395.869 1.54685 396.52 1.13085 397.245 0.832182C397.992 0.533515 398.749 0.384182 399.517 0.384182C400.733 0.384182 401.832 0.597516 402.813 1.02418C403.816 1.42952 404.658 2.17618 405.341 3.26418C405.81 3.98952 406.066 4.80018 406.109 5.69618C406.152 6.57085 406.152 7.58418 406.109 8.73618ZM401.725 10.5282C401.682 9.84552 401.65 9.13085 401.629 8.38418C401.608 7.61618 401.544 6.84818 401.437 6.08018C401.373 5.54685 401.181 5.12018 400.861 4.80018C400.541 4.45885 400.168 4.28818 399.741 4.28818C399.229 4.28818 398.792 4.50152 398.429 4.92818C398.066 5.33352 397.874 5.78152 397.853 6.27218C397.81 7.85085 397.736 9.42952 397.629 11.0082C397.544 12.5655 397.618 14.1335 397.853 15.7122C397.938 16.1815 398.098 16.5975 398.333 16.9602C398.568 17.3228 398.973 17.5255 399.549 17.5682C400.168 17.5682 400.605 17.4189 400.861 17.1202C401.117 16.8215 401.32 16.3949 401.469 15.8402C401.682 14.9868 401.757 14.1228 401.693 13.2482C401.629 12.3735 401.64 11.4668 401.725 10.5282ZM420.713 8.80018C420.67 10.0375 420.628 11.2748 420.585 12.5122C420.564 13.7282 420.5 14.9655 420.393 16.2242C420.308 17.3975 420.041 18.4429 419.593 19.3602C419.145 20.2775 418.345 20.9815 417.193 21.4722C416.297 21.8562 415.412 22.0482 414.537 22.0482C413.257 22.0482 411.977 21.6535 410.697 20.8642C409.63 20.2455 408.905 19.4775 408.521 18.5602C408.137 17.6429 407.934 16.6082 407.913 15.4562C407.87 14.2402 407.817 13.0455 407.753 11.8722C407.689 10.6775 407.678 9.47218 407.721 8.25618C407.764 7.25352 407.796 6.26152 407.817 5.28018C407.86 4.29885 407.902 3.30685 407.945 2.30418C407.945 1.98418 408.009 1.73885 408.137 1.56818C408.286 1.37618 408.468 1.23752 408.681 1.15218C408.894 1.04552 409.118 0.970849 409.353 0.928183C409.609 0.885516 409.844 0.853516 410.057 0.832182C410.142 0.810849 410.27 0.800182 410.441 0.800182C410.825 0.800182 411.166 0.896182 411.465 1.08818C411.785 1.25885 412.02 1.55752 412.169 1.98418C412.34 2.58152 412.414 3.13618 412.393 3.64818C412.222 5.35485 412.158 7.05085 412.201 8.73618C412.244 10.4215 412.244 12.1175 412.201 13.8242C412.201 14.2082 412.233 14.5922 412.297 14.9762C412.361 15.3388 412.446 15.7015 412.553 16.0642C412.724 16.6828 412.969 17.1095 413.289 17.3442C413.63 17.5788 414.142 17.6962 414.825 17.6962C415.508 17.6962 415.956 17.5468 416.169 17.2482C416.404 16.9495 416.564 16.4908 416.649 15.8722C416.777 14.8482 416.83 13.8242 416.809 12.8002C416.809 11.7549 416.777 10.7095 416.713 9.66418C416.628 8.51218 416.564 7.36018 416.521 6.20818C416.478 5.05618 416.489 3.89352 416.553 2.72018C416.574 2.25085 416.638 1.88818 416.745 1.63218C416.873 1.37618 417.044 1.18418 417.257 1.05618C417.47 0.928183 417.726 0.853516 418.025 0.832182C418.345 0.810849 418.708 0.800182 419.113 0.800182C419.732 0.84285 420.158 1.02418 420.393 1.34418C420.628 1.64285 420.734 2.16552 420.713 2.91218V8.80018ZM426.351 17.9522C426.351 18.3789 426.351 18.8055 426.351 19.2322C426.373 19.6375 426.362 20.0535 426.319 20.4802C426.277 21.0349 426.095 21.4189 425.775 21.6322C425.477 21.8455 424.954 21.9522 424.207 21.9522C423.631 21.9522 423.162 21.8669 422.799 21.6962C422.458 21.5255 422.287 21.0989 422.287 20.4162C422.266 17.6215 422.255 14.7735 422.255 11.8722C422.255 8.97085 422.255 6.12285 422.255 3.32818C422.255 2.28285 422.735 1.63218 423.695 1.37618C424.442 1.20552 425.178 1.06685 425.903 0.960182C426.629 0.853516 427.354 0.800182 428.079 0.800182C429.509 0.800182 430.874 1.00285 432.175 1.40818C432.73 1.57885 433.242 1.92018 433.711 2.43218C434.202 2.94418 434.618 3.53085 434.959 4.19218C435.322 4.85352 435.589 5.54685 435.759 6.27218C435.93 6.97618 435.983 7.62685 435.919 8.22418C435.749 9.80285 435.151 11.1042 434.127 12.1282C433.658 12.5762 433.381 13.0669 433.295 13.6002C433.231 14.1122 433.274 14.6455 433.423 15.2002C433.637 15.9895 433.914 16.7362 434.255 17.4402C434.618 18.1442 435.002 18.8375 435.407 19.5202C435.749 20.0962 435.845 20.5762 435.695 20.9602C435.567 21.3229 435.194 21.5362 434.575 21.6002C434.277 21.6429 433.989 21.6855 433.711 21.7282C433.434 21.7495 433.178 21.7602 432.943 21.7602C432.325 21.7602 431.802 21.6002 431.375 21.2802C430.97 20.9602 430.65 20.3095 430.415 19.3282C430.266 18.7522 430.106 18.1762 429.935 17.6002C429.786 17.0242 429.637 16.4482 429.487 15.8722C429.381 15.4668 429.125 15.1042 428.719 14.7842C428.335 14.4428 427.93 14.2722 427.503 14.2722C427.205 14.2722 426.949 14.3788 426.735 14.5922C426.522 14.7842 426.405 15.0615 426.383 15.4242C426.341 15.8508 426.319 16.2775 426.319 16.7042C426.341 17.1095 426.351 17.5255 426.351 17.9522ZM430.927 7.64818C430.927 6.75218 430.661 5.99485 430.127 5.37618C429.615 4.73618 428.954 4.41618 428.143 4.41618C427.802 4.41618 427.471 4.49085 427.151 4.64018C426.831 4.76818 426.65 5.03485 426.607 5.44018C426.607 6.10152 426.565 6.82685 426.479 7.61618C426.394 8.38418 426.426 9.09885 426.575 9.76018C426.661 10.1655 426.853 10.4108 427.151 10.4962C427.45 10.5815 427.781 10.6242 428.143 10.6242C428.997 10.6242 429.669 10.3682 430.159 9.85618C430.671 9.32285 430.927 8.58685 430.927 7.64818ZM445.539 1.92018C445.582 1.47218 445.731 1.16285 445.987 0.992182C446.243 0.821516 446.574 0.704183 446.979 0.640182C447.47 0.576182 447.95 0.544182 448.419 0.544182C449.038 0.544182 449.646 0.576182 450.243 0.640182C450.862 0.704183 451.48 0.74685 452.099 0.768183C452.398 0.789516 452.675 0.810849 452.931 0.832182C453.208 0.832182 453.496 0.832182 453.795 0.832182C454.051 0.832182 454.296 0.821515 454.531 0.800182C454.787 0.778849 455.043 0.746849 455.299 0.704182C455.448 0.682849 455.598 0.672182 455.747 0.672182C455.896 0.650849 456.046 0.640182 456.195 0.640182C456.366 0.640182 456.515 0.650849 456.643 0.672182C456.792 0.672182 456.942 0.682849 457.091 0.704182C457.795 0.81085 458.254 0.981517 458.467 1.21618C458.68 1.45085 458.776 1.88818 458.755 2.52818C458.734 2.97618 458.648 3.32818 458.499 3.58418C458.35 3.84018 458.158 4.03218 457.923 4.16018C457.688 4.26685 457.411 4.34152 457.091 4.38418C456.792 4.40552 456.462 4.41618 456.099 4.41618C455.63 4.41618 455.16 4.40552 454.691 4.38418C454.243 4.34152 453.784 4.32018 453.315 4.32018C452.718 4.32018 452.174 4.36285 451.683 4.44818C451.214 4.55485 450.862 4.72552 450.627 4.96018C450.392 5.19485 450.296 5.55752 450.339 6.04818C450.382 6.88018 450.382 7.72285 450.339 8.57618C450.318 8.93885 450.382 9.18418 450.531 9.31218C450.702 9.44018 450.968 9.51485 451.331 9.53618H451.651C452.078 9.53618 452.504 9.51485 452.931 9.47218C453.358 9.42952 453.784 9.40818 454.211 9.40818C454.382 9.40818 454.542 9.40818 454.691 9.40818C454.84 9.40818 455 9.42952 455.171 9.47218C455.768 9.60018 456.195 9.82418 456.451 10.1442C456.728 10.4642 456.846 10.9335 456.803 11.5522C456.782 11.9362 456.707 12.2348 456.579 12.4482C456.472 12.6615 456.323 12.8215 456.131 12.9282C455.939 13.0135 455.704 13.0668 455.427 13.0882C455.171 13.1095 454.872 13.1202 454.531 13.1202H453.219C452.856 13.1202 452.504 13.1308 452.163 13.1522C451.822 13.1735 451.47 13.2375 451.107 13.3442C450.744 13.4508 450.478 13.6002 450.307 13.7922C450.136 13.9628 450.062 14.2509 450.083 14.6562C450.147 16.2775 450.147 17.9095 450.083 19.5522C450.062 20.2989 449.827 20.8855 449.379 21.3122C448.952 21.7389 448.451 21.9522 447.875 21.9522C447.064 21.9522 446.488 21.6962 446.147 21.1842C445.827 20.6722 445.635 20.0429 445.571 19.2962C445.422 16.3735 445.336 13.4828 445.315 10.6242C445.315 7.74418 445.39 4.84285 445.539 1.92018ZM460.351 11.2002C460.415 9.92018 460.426 8.54418 460.383 7.07218C460.362 5.57885 460.426 4.06418 460.575 2.52818C460.618 2.03752 460.735 1.68552 460.927 1.47218C461.119 1.25885 461.471 1.15218 461.983 1.15218C463.391 1.13085 464.799 1.09885 466.207 1.05618C467.637 0.992182 469.055 0.938849 470.463 0.896183C470.847 0.896183 471.221 0.917516 471.583 0.960182C471.946 1.00285 472.309 1.10952 472.671 1.28018C473.055 1.47218 473.301 1.72818 473.407 2.04818C473.535 2.36818 473.578 2.72018 473.535 3.10418C473.493 3.46685 473.386 3.75485 473.215 3.96818C473.045 4.16018 472.767 4.29885 472.383 4.38418C472.17 4.42685 471.957 4.45885 471.743 4.48018C471.551 4.50152 471.349 4.51218 471.135 4.51218C470.837 4.51218 470.538 4.48018 470.239 4.41618C469.642 4.30952 469.109 4.25618 468.639 4.25618C468.127 4.25618 467.615 4.28818 467.103 4.35218C466.613 4.41618 466.111 4.48018 465.599 4.54418C465.471 4.56552 465.333 4.60818 465.183 4.67218C465.034 4.71485 464.959 4.82152 464.959 4.99218C464.917 5.58952 464.831 6.18685 464.703 6.78418C464.575 7.36018 464.607 7.94685 464.799 8.54418C464.906 8.97085 465.066 9.26952 465.279 9.44018C465.514 9.58952 465.845 9.66418 466.271 9.66418C466.506 9.64285 466.719 9.63218 466.911 9.63218C467.125 9.63218 467.349 9.63218 467.583 9.63218H469.055H469.855C470.389 9.63218 470.805 9.72818 471.103 9.92018C471.423 10.1122 471.605 10.4962 471.647 11.0722C471.711 12.6082 471.146 13.4082 469.951 13.4722C469.61 13.4935 469.269 13.5148 468.927 13.5362C468.607 13.5362 468.277 13.5362 467.935 13.5362C467.701 13.5362 467.455 13.5362 467.199 13.5362C466.943 13.5362 466.698 13.5148 466.463 13.4722C466.399 13.4722 466.335 13.4722 466.271 13.4722C466.207 13.4509 466.143 13.4402 466.079 13.4402C465.183 13.4402 464.735 13.9522 464.735 14.9762C464.735 15.1042 464.725 15.2322 464.703 15.3602C464.703 15.4668 464.725 15.5735 464.767 15.6802C464.853 16.2562 464.927 16.7148 464.991 17.0562C465.077 17.3762 465.183 17.6215 465.311 17.7922C465.461 17.9629 465.674 18.0695 465.951 18.1122C466.229 18.1549 466.602 18.1762 467.071 18.1762H467.807C468.49 18.1549 469.173 18.1442 469.855 18.1442C470.559 18.1229 471.253 18.1122 471.935 18.1122C472.49 18.1122 472.863 18.2829 473.055 18.6242C473.269 18.9655 473.429 19.5095 473.535 20.2562C473.599 20.7895 473.482 21.1735 473.183 21.4082C472.906 21.6215 472.543 21.7709 472.095 21.8562C471.242 21.9842 470.389 22.0482 469.535 22.0482C469.045 22.0482 468.554 22.0269 468.063 21.9842C467.594 21.9629 467.114 21.9309 466.623 21.8882C466.197 21.8455 465.77 21.8135 465.343 21.7922C464.917 21.7709 464.49 21.7602 464.063 21.7602C463.85 21.7602 463.637 21.7602 463.423 21.7602C463.21 21.7602 462.997 21.7709 462.783 21.7922C462.293 21.7922 461.887 21.7709 461.567 21.7282C461.269 21.6642 461.023 21.5469 460.831 21.3762C460.661 21.2055 460.543 20.9709 460.479 20.6722C460.415 20.3522 460.383 19.9362 460.383 19.4242C460.341 18.1442 460.319 16.8428 460.319 15.5202C460.341 14.1762 460.351 12.7362 460.351 11.2002ZM486.968 21.8562C486.541 21.8562 486.179 21.8349 485.88 21.7922C485.603 21.7495 485.368 21.6535 485.176 21.5042C485.005 21.3549 484.856 21.1522 484.728 20.8962C484.6 20.6402 484.483 20.2989 484.376 19.8722C484.312 19.5735 484.205 19.3495 484.056 19.2002C483.907 19.0295 483.661 18.9229 483.32 18.8802C482.979 18.8375 482.637 18.8055 482.296 18.7842C481.976 18.7629 481.645 18.7522 481.304 18.7522C480.728 18.7522 480.259 18.8589 479.896 19.0722C479.555 19.2855 479.267 19.6695 479.032 20.2242C478.584 21.3549 477.837 21.9202 476.792 21.9202C476.408 21.9202 475.992 21.8242 475.544 21.6322C475.16 21.4615 474.893 21.2589 474.744 21.0242C474.595 20.7895 474.605 20.4375 474.776 19.9682C475.267 18.5175 475.683 17.0562 476.024 15.5842C476.387 14.0908 476.728 12.6082 477.048 11.1362C477.389 9.64285 477.731 8.16018 478.072 6.68818C478.435 5.21618 478.851 3.76552 479.32 2.33618C479.533 1.71752 479.853 1.32285 480.28 1.15218C480.707 0.960183 481.165 0.864183 481.656 0.864183C482.275 0.864183 482.84 0.93885 483.352 1.08818C483.885 1.21618 484.259 1.62152 484.472 2.30418C485.027 3.94685 485.485 5.64285 485.848 7.39218C486.211 9.14152 486.605 10.8482 487.032 12.5122C487.309 13.6642 487.619 14.7949 487.96 15.9042C488.301 16.9922 488.632 18.1015 488.952 19.2322C489.251 20.2562 489.251 20.9495 488.952 21.3122C488.675 21.6749 488.013 21.8562 486.968 21.8562ZM482.232 11.2002C482.147 10.9442 482.029 10.8162 481.88 10.8162C481.731 10.8162 481.592 10.9655 481.464 11.2642C481.357 11.5628 481.251 11.9042 481.144 12.2882C481.059 12.6722 480.984 13.0455 480.92 13.4082C480.877 13.7495 480.856 13.9842 480.856 14.1122C480.835 14.4322 480.909 14.6348 481.08 14.7202C481.272 14.8055 481.485 14.8482 481.72 14.8482H482.392H482.52C482.755 14.8482 482.904 14.7522 482.968 14.5602C483.032 14.3682 483.021 14.1549 482.936 13.9202C482.808 13.4935 482.701 13.0455 482.616 12.5762C482.531 12.1068 482.403 11.6482 482.232 11.2002ZM496.455 13.2802V19.1682C496.455 20.1495 496.306 20.8429 496.007 21.2482C495.73 21.6535 495.25 21.8562 494.567 21.8562C493.543 21.8562 492.839 21.6429 492.455 21.2162C492.092 20.7895 491.911 20.0749 491.911 19.0722C491.89 17.1948 491.879 15.3388 491.879 13.5042C491.879 11.6695 491.879 9.81352 491.879 7.93618C491.879 7.70152 491.879 7.47752 491.879 7.26418C491.9 7.05085 491.9 6.82685 491.879 6.59218C491.836 6.14418 491.772 5.80285 491.687 5.56818C491.623 5.33352 491.506 5.16285 491.335 5.05618C491.186 4.92818 490.983 4.85352 490.727 4.83218C490.492 4.81085 490.183 4.80018 489.799 4.80018C489.607 4.82152 489.415 4.84285 489.223 4.86418C489.031 4.86418 488.839 4.86418 488.647 4.86418C488.562 4.86418 488.476 4.86418 488.391 4.86418C488.306 4.86418 488.22 4.85352 488.135 4.83218C486.535 4.57618 485.97 3.71218 486.439 2.24018C486.503 2.00552 486.599 1.82418 486.727 1.69618C486.855 1.56818 487.068 1.46152 487.367 1.37618C487.986 1.20552 488.604 1.09885 489.223 1.05618C489.863 0.992182 490.503 0.960182 491.143 0.960182C492.082 0.981515 493.01 1.00285 493.927 1.02418C494.866 1.04552 495.804 1.05618 496.743 1.05618C497.276 1.05618 497.799 1.05618 498.311 1.05618C498.823 1.03485 499.346 1.01352 499.879 0.992182H500.071C500.647 0.992182 501.084 1.08818 501.383 1.28018C501.703 1.45085 501.916 1.68552 502.023 1.98418C502.151 2.26152 502.194 2.58152 502.151 2.94418C502.108 3.28552 502.012 3.63752 501.863 4.00018C501.692 4.46952 501.436 4.76818 501.095 4.89618C500.775 5.00285 500.391 5.05618 499.943 5.05618C499.666 5.03485 499.41 5.02418 499.175 5.02418C498.962 5.02418 498.759 5.02418 498.567 5.02418C498.034 5.02418 497.618 5.06685 497.319 5.15218C497.042 5.23752 496.839 5.40818 496.711 5.66418C496.583 5.89885 496.508 6.25085 496.487 6.72018C496.466 7.16818 496.455 7.76552 496.455 8.51218V13.2802ZM516.338 8.80018C516.295 10.0375 516.253 11.2748 516.21 12.5122C516.189 13.7282 516.125 14.9655 516.018 16.2242C515.933 17.3975 515.666 18.4429 515.218 19.3602C514.77 20.2775 513.97 20.9815 512.818 21.4722C511.922 21.8562 511.037 22.0482 510.162 22.0482C508.882 22.0482 507.602 21.6535 506.322 20.8642C505.255 20.2455 504.53 19.4775 504.146 18.5602C503.762 17.6429 503.559 16.6082 503.538 15.4562C503.495 14.2402 503.442 13.0455 503.378 11.8722C503.314 10.6775 503.303 9.47218 503.346 8.25618C503.389 7.25352 503.421 6.26152 503.442 5.28018C503.485 4.29885 503.527 3.30685 503.57 2.30418C503.57 1.98418 503.634 1.73885 503.762 1.56818C503.911 1.37618 504.093 1.23752 504.306 1.15218C504.519 1.04552 504.743 0.970849 504.978 0.928183C505.234 0.885516 505.469 0.853516 505.682 0.832182C505.767 0.810849 505.895 0.800182 506.066 0.800182C506.45 0.800182 506.791 0.896182 507.09 1.08818C507.41 1.25885 507.645 1.55752 507.794 1.98418C507.965 2.58152 508.039 3.13618 508.018 3.64818C507.847 5.35485 507.783 7.05085 507.826 8.73618C507.869 10.4215 507.869 12.1175 507.826 13.8242C507.826 14.2082 507.858 14.5922 507.922 14.9762C507.986 15.3388 508.071 15.7015 508.178 16.0642C508.349 16.6828 508.594 17.1095 508.914 17.3442C509.255 17.5788 509.767 17.6962 510.45 17.6962C511.133 17.6962 511.581 17.5468 511.794 17.2482C512.029 16.9495 512.189 16.4908 512.274 15.8722C512.402 14.8482 512.455 13.8242 512.434 12.8002C512.434 11.7549 512.402 10.7095 512.338 9.66418C512.253 8.51218 512.189 7.36018 512.146 6.20818C512.103 5.05618 512.114 3.89352 512.178 2.72018C512.199 2.25085 512.263 1.88818 512.37 1.63218C512.498 1.37618 512.669 1.18418 512.882 1.05618C513.095 0.928183 513.351 0.853516 513.65 0.832182C513.97 0.810849 514.333 0.800182 514.738 0.800182C515.357 0.84285 515.783 1.02418 516.018 1.34418C516.253 1.64285 516.359 2.16552 516.338 2.91218V8.80018ZM521.976 17.9522C521.976 18.3789 521.976 18.8055 521.976 19.2322C521.998 19.6375 521.987 20.0535 521.944 20.4802C521.902 21.0349 521.72 21.4189 521.4 21.6322C521.102 21.8455 520.579 21.9522 519.832 21.9522C519.256 21.9522 518.787 21.8669 518.424 21.6962C518.083 21.5255 517.912 21.0989 517.912 20.4162C517.891 17.6215 517.88 14.7735 517.88 11.8722C517.88 8.97085 517.88 6.12285 517.88 3.32818C517.88 2.28285 518.36 1.63218 519.32 1.37618C520.067 1.20552 520.803 1.06685 521.528 0.960182C522.254 0.853516 522.979 0.800182 523.704 0.800182C525.134 0.800182 526.499 1.00285 527.8 1.40818C528.355 1.57885 528.867 1.92018 529.336 2.43218C529.827 2.94418 530.243 3.53085 530.584 4.19218C530.947 4.85352 531.214 5.54685 531.384 6.27218C531.555 6.97618 531.608 7.62685 531.544 8.22418C531.374 9.80285 530.776 11.1042 529.752 12.1282C529.283 12.5762 529.006 13.0669 528.92 13.6002C528.856 14.1122 528.899 14.6455 529.048 15.2002C529.262 15.9895 529.539 16.7362 529.88 17.4402C530.243 18.1442 530.627 18.8375 531.032 19.5202C531.374 20.0962 531.47 20.5762 531.32 20.9602C531.192 21.3229 530.819 21.5362 530.2 21.6002C529.902 21.6429 529.614 21.6855 529.336 21.7282C529.059 21.7495 528.803 21.7602 528.568 21.7602C527.95 21.7602 527.427 21.6002 527 21.2802C526.595 20.9602 526.275 20.3095 526.04 19.3282C525.891 18.7522 525.731 18.1762 525.56 17.6002C525.411 17.0242 525.262 16.4482 525.112 15.8722C525.006 15.4668 524.75 15.1042 524.344 14.7842C523.96 14.4428 523.555 14.2722 523.128 14.2722C522.83 14.2722 522.574 14.3788 522.36 14.5922C522.147 14.7842 522.03 15.0615 522.008 15.4242C521.966 15.8508 521.944 16.2775 521.944 16.7042C521.966 17.1095 521.976 17.5255 521.976 17.9522ZM526.552 7.64818C526.552 6.75218 526.286 5.99485 525.752 5.37618C525.24 4.73618 524.579 4.41618 523.768 4.41618C523.427 4.41618 523.096 4.49085 522.776 4.64018C522.456 4.76818 522.275 5.03485 522.232 5.44018C522.232 6.10152 522.19 6.82685 522.104 7.61618C522.019 8.38418 522.051 9.09885 522.2 9.76018C522.286 10.1655 522.478 10.4108 522.776 10.4962C523.075 10.5815 523.406 10.6242 523.768 10.6242C524.622 10.6242 525.294 10.3682 525.784 9.85618C526.296 9.32285 526.552 8.58685 526.552 7.64818ZM533.164 11.2002C533.228 9.92018 533.239 8.54418 533.196 7.07218C533.175 5.57885 533.239 4.06418 533.388 2.52818C533.431 2.03752 533.548 1.68552 533.74 1.47218C533.932 1.25885 534.284 1.15218 534.796 1.15218C536.204 1.13085 537.612 1.09885 539.02 1.05618C540.449 0.992182 541.868 0.938849 543.276 0.896183C543.66 0.896183 544.033 0.917516 544.396 0.960182C544.759 1.00285 545.121 1.10952 545.484 1.28018C545.868 1.47218 546.113 1.72818 546.22 2.04818C546.348 2.36818 546.391 2.72018 546.348 3.10418C546.305 3.46685 546.199 3.75485 546.028 3.96818C545.857 4.16018 545.58 4.29885 545.196 4.38418C544.983 4.42685 544.769 4.45885 544.556 4.48018C544.364 4.50152 544.161 4.51218 543.948 4.51218C543.649 4.51218 543.351 4.48018 543.052 4.41618C542.455 4.30952 541.921 4.25618 541.452 4.25618C540.94 4.25618 540.428 4.28818 539.916 4.35218C539.425 4.41618 538.924 4.48018 538.412 4.54418C538.284 4.56552 538.145 4.60818 537.996 4.67218C537.847 4.71485 537.772 4.82152 537.772 4.99218C537.729 5.58952 537.644 6.18685 537.516 6.78418C537.388 7.36018 537.42 7.94685 537.612 8.54418C537.719 8.97085 537.879 9.26952 538.092 9.44018C538.327 9.58952 538.657 9.66418 539.084 9.66418C539.319 9.64285 539.532 9.63218 539.724 9.63218C539.937 9.63218 540.161 9.63218 540.396 9.63218H541.868H542.668C543.201 9.63218 543.617 9.72818 543.916 9.92018C544.236 10.1122 544.417 10.4962 544.46 11.0722C544.524 12.6082 543.959 13.4082 542.764 13.4722C542.423 13.4935 542.081 13.5148 541.74 13.5362C541.42 13.5362 541.089 13.5362 540.748 13.5362C540.513 13.5362 540.268 13.5362 540.012 13.5362C539.756 13.5362 539.511 13.5148 539.276 13.4722C539.212 13.4722 539.148 13.4722 539.084 13.4722C539.02 13.4509 538.956 13.4402 538.892 13.4402C537.996 13.4402 537.548 13.9522 537.548 14.9762C537.548 15.1042 537.537 15.2322 537.516 15.3602C537.516 15.4668 537.537 15.5735 537.58 15.6802C537.665 16.2562 537.74 16.7148 537.804 17.0562C537.889 17.3762 537.996 17.6215 538.124 17.7922C538.273 17.9629 538.487 18.0695 538.764 18.1122C539.041 18.1549 539.415 18.1762 539.884 18.1762H540.62C541.303 18.1549 541.985 18.1442 542.668 18.1442C543.372 18.1229 544.065 18.1122 544.748 18.1122C545.303 18.1122 545.676 18.2829 545.868 18.6242C546.081 18.9655 546.241 19.5095 546.348 20.2562C546.412 20.7895 546.295 21.1735 545.996 21.4082C545.719 21.6215 545.356 21.7709 544.908 21.8562C544.055 21.9842 543.201 22.0482 542.348 22.0482C541.857 22.0482 541.367 22.0269 540.876 21.9842C540.407 21.9629 539.927 21.9309 539.436 21.8882C539.009 21.8455 538.583 21.8135 538.156 21.7922C537.729 21.7709 537.303 21.7602 536.876 21.7602C536.663 21.7602 536.449 21.7602 536.236 21.7602C536.023 21.7602 535.809 21.7709 535.596 21.7922C535.105 21.7922 534.7 21.7709 534.38 21.7282C534.081 21.6642 533.836 21.5469 533.644 21.3762C533.473 21.2055 533.356 20.9709 533.292 20.6722C533.228 20.3522 533.196 19.9362 533.196 19.4242C533.153 18.1442 533.132 16.8428 533.132 15.5202C533.153 14.1762 533.164 12.7362 533.164 11.2002ZM553.637 22.0162C552.357 21.9095 551.226 21.5789 550.245 21.0242C549.285 20.4482 548.517 19.5629 547.941 18.3682C547.749 18.0055 547.653 17.6322 547.653 17.2482C547.674 16.8642 547.759 16.5122 547.909 16.1922C548.079 15.8509 548.314 15.5628 548.613 15.3282C548.911 15.0722 549.253 14.9122 549.637 14.8482C549.85 14.8055 550.021 14.7842 550.149 14.7842C550.469 14.7842 550.746 14.8802 550.981 15.0722C551.237 15.2428 551.429 15.5415 551.557 15.9682C551.749 16.5869 552.079 17.0669 552.549 17.4082C553.018 17.7495 553.573 17.9202 554.213 17.9202C554.725 17.8775 555.109 17.7069 555.365 17.4082C555.621 17.1095 555.727 16.7042 555.685 16.1922C555.642 15.5309 555.439 14.9868 555.077 14.5602C554.735 14.1122 554.287 13.7175 553.733 13.3762C552.837 12.8429 551.973 12.2775 551.141 11.6802C550.33 11.0829 549.605 10.3469 548.965 9.47218C548.367 8.68285 548.047 7.77618 548.005 6.75218C547.962 5.72818 548.143 4.74685 548.549 3.80818C548.975 2.84818 549.615 2.02685 550.469 1.34418C551.322 0.661516 552.357 0.256183 553.573 0.128183C553.743 0.106849 553.903 0.0961819 554.053 0.0961819C554.202 0.0961819 554.351 0.0961819 554.501 0.0961819C555.183 0.0961819 555.834 0.181515 556.453 0.352182C557.093 0.501516 557.722 0.757516 558.341 1.12018C558.746 1.35485 559.066 1.62152 559.301 1.92018C559.535 2.19752 559.727 2.50685 559.877 2.84818C560.026 3.18952 560.133 3.54152 560.197 3.90418C560.261 4.26685 560.325 4.64018 560.389 5.02418C560.431 5.30152 560.41 5.55752 560.325 5.79218C560.261 6.00552 560.143 6.20818 559.973 6.40018C559.823 6.57085 559.642 6.73085 559.429 6.88018C559.237 7.00818 559.034 7.12552 558.821 7.23218C558.65 7.31752 558.458 7.36018 558.245 7.36018C557.903 7.36018 557.573 7.26418 557.253 7.07218C556.933 6.88018 556.613 6.69885 556.293 6.52818C556.229 6.48552 556.186 6.40018 556.165 6.27218C556.143 6.12285 556.133 5.99485 556.133 5.88818C556.133 5.54685 556.09 5.22685 556.005 4.92818C555.941 4.62952 555.727 4.41618 555.365 4.28818C555.173 4.20285 554.927 4.16018 554.629 4.16018C554.138 4.16018 553.679 4.35218 553.253 4.73618C552.975 5.03485 552.762 5.34418 552.613 5.66418C552.485 5.98418 552.506 6.35752 552.677 6.78418C552.89 7.31752 553.178 7.76552 553.541 8.12818C553.903 8.49085 554.33 8.80018 554.821 9.05618C556.698 10.0802 558.287 11.4455 559.589 13.1522C560.143 13.8775 560.463 14.6988 560.549 15.6162C560.655 16.5122 560.549 17.3868 560.229 18.2402C559.909 19.0722 559.397 19.8082 558.693 20.4482C557.989 21.0882 557.103 21.5042 556.037 21.6962C555.717 21.7602 555.386 21.8349 555.045 21.9202C554.725 22.0055 554.383 22.0482 554.021 22.0482C553.957 22.0482 553.893 22.0375 553.829 22.0162C553.765 22.0162 553.701 22.0162 553.637 22.0162ZM562.2 4.32018V3.36018C562.178 2.74152 562.168 2.28285 562.168 1.98418C562.189 1.68552 562.274 1.47218 562.424 1.34418C562.594 1.19485 562.85 1.10952 563.192 1.08818C563.533 1.04552 564.013 1.00285 564.632 0.960182H564.792C565.432 0.960182 565.933 1.19485 566.296 1.66418C566.658 2.11218 566.797 2.74152 566.712 3.55218C566.626 4.55485 566.573 5.55752 566.552 6.56018C566.53 7.56285 566.498 8.56552 566.456 9.56818C566.434 10.5708 566.381 11.5735 566.296 12.5762C566.21 13.5575 566.05 14.5495 565.816 15.5522C565.709 16.0642 565.528 16.4269 565.272 16.6402C565.037 16.8535 564.717 16.9602 564.312 16.9602C564.269 16.9602 564.216 16.9602 564.152 16.9602C564.088 16.9389 564.034 16.9282 563.992 16.9282C562.946 16.8429 562.424 16.2668 562.424 15.2002C562.424 13.3869 562.424 11.5735 562.424 9.76018C562.445 7.94685 562.37 6.13352 562.2 4.32018ZM565.784 19.4882C565.784 20.1069 565.634 20.6082 565.336 20.9922C565.058 21.3549 564.685 21.5255 564.216 21.5042C563.789 21.4829 563.384 21.2589 563 20.8322C562.637 20.3842 562.445 19.9149 562.424 19.4242C562.424 19.2322 562.466 19.0295 562.552 18.8162C562.658 18.6029 562.797 18.4109 562.968 18.2402C563.138 18.0695 563.32 17.9309 563.512 17.8242C563.725 17.7175 563.938 17.6642 564.152 17.6642C564.621 17.6642 565.005 17.8455 565.304 18.2082C565.624 18.5495 565.784 18.9762 565.784 19.4882Z" fill="black"/>
</svg>
