<svg width="38" height="37" viewBox="0 0 38 37" fill="none" xmlns="http://www.w3.org/2000/svg">
<path d="M33.8619 19.8043C35.0722 18.5957 35.9953 17.1304 36.5629 15.5169C37.1306 13.9034 37.3282 12.183 37.1412 10.4828C36.9543 8.78261 36.3875 7.14621 35.4828 5.69462C34.5781 4.24304 33.3586 3.01341 31.9146 2.09668C28.2566 -0.323785 23.3611 -0.341984 19.6667 2.04208C16.4637 4.09857 14.6984 7.30159 14.389 10.6138C14.1524 13.0161 13.2425 15.2545 11.5682 16.9288L11.5136 16.9834C9.40248 19.0945 9.40248 22.3157 11.3862 24.2812L13.1879 26.0829C14.1414 27.0358 15.4342 27.571 16.7822 27.571C18.1302 27.571 19.423 27.0358 20.3765 26.0829C22.1418 24.3176 24.4712 23.3531 27.0009 23.0801C29.4942 22.8071 31.9328 21.7152 33.8619 19.8043ZM8.56533 32.7802C9.0567 33.7993 8.89291 35.0368 8.03756 35.874C7.66711 36.25 7.19496 36.5098 6.67902 36.6213C6.16309 36.7329 5.6258 36.6915 5.13307 36.5021C4.64035 36.3128 4.2136 35.9837 3.90518 35.5553C3.59676 35.1269 3.42009 34.6178 3.39682 34.0905C2.86947 34.0672 2.36038 33.8905 1.93199 33.5821C1.5036 33.2737 1.17454 32.847 0.985176 32.3542C0.795813 31.8615 0.754381 31.3242 0.865961 30.8083C0.977541 30.2923 1.23728 29.8202 1.61332 29.4497C2.45047 28.6126 3.7062 28.4306 4.70715 28.922L9.22049 24.4996C9.47528 24.8454 9.76646 25.2458 10.094 25.5734L11.8957 27.3751C12.2779 27.739 12.6419 28.0484 13.1151 28.3214L8.56533 32.7802Z" fill="#111111"/>
</svg>
