<?xml version="1.0" standalone="no"?>
<!DOCTYPE svg PUBLIC "-//W3C//DTD SVG 20010904//EN"
 "http://www.w3.org/TR/2001/REC-SVG-20010904/DTD/svg10.dtd">
<svg version="1.0" xmlns="http://www.w3.org/2000/svg"
 width="273.000000pt" height="241.000000pt" viewBox="0 0 273.000000 241.000000"
 preserveAspectRatio="xMidYMid meet">

<g transform="translate(0.000000,241.000000) scale(0.100000,-0.100000)"
fill="#000000" stroke="none">
<path d="M370 1335 l0 -535 40 0 40 0 0 145 0 145 65 0 65 0 0 -135 0 -135 75
0 75 0 0 135 0 135 60 0 60 0 0 -146 0 -145 38 3 37 3 3 198 2 197 -100 0
-100 0 0 25 0 25 610 0 610 0 0 -25 0 -25 -115 0 -115 0 2 -197 3 -198 38 -3
37 -3 0 145 0 146 75 0 75 0 0 -135 0 -135 75 0 75 0 0 135 0 135 50 0 49 0 3
-142 3 -143 38 -3 37 -3 0 535 0 536 -40 0 -40 0 0 -335 0 -335 -50 0 -50 0 0
150 0 150 -51 0 -52 0 26 20 c14 11 35 20 46 20 12 0 21 6 21 15 0 13 -26 15
-176 15 -136 0 -175 -3 -172 -12 3 -7 13 -14 24 -16 10 -2 30 -12 44 -22 l25
-20 -92 0 -92 0 25 38 c14 20 34 40 45 44 15 6 19 15 17 35 l-3 28 -155 0
-155 0 -3 -28 c-2 -20 2 -29 17 -35 11 -4 31 -24 45 -44 l25 -38 -64 0 -65 0
0 120 c0 73 -4 120 -10 120 -5 0 -10 25 -10 55 0 52 -1 55 -25 55 -24 0 -25
-3 -25 -55 0 -42 -3 -55 -15 -55 -12 0 -15 -20 -15 -120 l0 -120 -55 0 -54 0
25 38 c14 20 34 40 45 44 15 6 19 15 17 35 l-3 28 -155 0 -155 0 -3 -28 c-2
-20 2 -29 17 -35 11 -4 31 -24 45 -44 l25 -38 -102 0 -102 0 31 19 c17 10 39
21 49 22 10 2 20 10 23 17 3 9 -36 12 -172 12 -150 0 -176 -2 -176 -15 0 -9 9
-15 21 -15 11 0 32 -9 46 -20 l26 -20 -47 0 -46 0 0 -150 0 -150 -65 0 -65 0
0 335 0 335 -40 0 -40 0 0 -535z m1000 350 c0 -10 -11 -15 -35 -15 -24 0 -35
5 -35 15 0 10 11 15 35 15 24 0 35 -5 35 -15z m-10 -80 c0 -52 -1 -55 -25 -55
-24 0 -25 3 -25 55 0 52 1 55 25 55 24 0 25 -3 25 -55z"/>
<path d="M708 503 c-11 -3 -18 -14 -18 -29 0 -16 6 -24 18 -25 62 -4 57 5 59
-109 4 -141 7 -152 41 -148 l27 3 5 120 5 120 32 3 c43 4 65 39 37 59 -17 13
-164 17 -206 6z"/>
<path d="M962 497 c-14 -17 -83 -287 -76 -298 10 -17 38 -9 65 17 32 31 73 27
82 -7 4 -16 12 -20 34 -17 24 3 28 7 27 33 -2 50 -62 267 -76 276 -19 13 -44
11 -56 -4z m40 -172 c4 -17 1 -25 -8 -25 -8 0 -14 11 -14 25 0 14 4 25 9 25 5
0 11 -11 13 -25z"/>
<path d="M1133 502 c-8 -5 -13 -54 -15 -150 -2 -118 0 -144 12 -152 21 -13
104 -12 133 1 47 22 65 96 34 143 -14 20 -15 30 -5 50 18 42 -1 89 -42 103
-40 14 -99 16 -117 5z m97 -82 c0 -25 -4 -30 -25 -30 -20 0 -25 5 -25 23 0 28
7 37 32 37 13 0 18 -8 18 -30z m-6 -96 c10 -4 16 -18 16 -35 0 -24 -4 -29 -25
-29 -21 0 -25 5 -25 28 0 39 7 46 34 36z"/>
<path d="M1582 503 l-33 -4 3 -152 3 -152 89 -3 c95 -3 112 3 101 37 -5 18
-14 21 -66 21 l-60 0 3 33 c2 26 7 32 25 30 36 -4 73 14 73 36 0 22 -19 31
-65 31 -35 0 -47 15 -38 49 5 18 13 21 64 21 44 0 61 4 65 15 16 40 -42 53
-164 38z"/>
<path d="M1965 500 c-3 -5 -22 -17 -41 -25 -43 -18 -44 -50 -2 -50 15 -1 30
-4 33 -7 4 -3 6 -51 6 -106 -1 -107 7 -126 47 -115 22 5 22 8 20 157 l-3 151
-27 3 c-14 2 -29 -2 -33 -8z"/>
<path d="M1336 478 c-3 -13 -6 -78 -6 -145 0 -145 0 -145 113 -141 67 3 72 5
75 27 5 32 -15 43 -65 36 -51 -7 -52 -6 -56 140 -2 100 -2 100 -28 103 -20 2
-28 -2 -33 -20z"/>
</g>
</svg>
