<svg width="268" height="129" viewBox="0 0 268 129" fill="none" xmlns="http://www.w3.org/2000/svg">
<path fill-rule="evenodd" clip-rule="evenodd" d="M47.05 23.9002C36.2723 26.9343 29.1523 38.0034 31.112 48.6785C35.1072 70.4369 63.5172 74.3781 72.9106 54.477C80.7503 37.8669 64.7286 18.9227 47.05 23.9002ZM89.0141 23.4066C88.4875 23.5593 88.0386 23.7287 88.0158 23.7818C87.6392 24.6654 81.2052 65.2429 81.3667 65.7143C81.8317 67.0706 86.5552 67.5991 87.725 66.4257C88.003 66.146 88.5042 64.2403 88.8379 62.19L89.4456 58.4619L93.1265 58.2992C95.1513 58.2104 96.8082 58.2266 96.8082 58.3362C96.8082 58.8049 97.9867 65.1313 98.2306 65.9718C98.8986 68.2729 105.012 67.4983 105.012 65.1118C105.012 62.3668 98.5281 24.5619 97.9592 23.991C97.3147 23.3448 90.7105 22.913 89.0141 23.4066ZM113.08 23.9183C111.049 25.0239 111.069 25.1449 115.166 36.2463L118.757 45.9766L115.44 54.9316C111.537 65.4675 111.512 65.6726 114.019 66.7236C117.917 68.3583 118.343 68.0685 120.322 62.4415C122.694 55.6942 122.613 55.7042 124.819 61.8665L126.744 67.2448L129.039 67.195C130.57 67.1614 131.706 66.772 132.45 66.0256L133.564 64.9067L130.227 55.8683C126.184 44.9168 126.157 46.99 130.49 35.3876C134.466 24.7434 134.467 24.6668 130.694 23.5324C127.632 22.6111 127.351 22.907 124.981 29.5575C123.657 33.2728 122.655 35.3647 122.41 34.925C122.189 34.5289 121.225 32.0052 120.268 29.3161C117.864 22.5661 116.897 21.8398 113.08 23.9183ZM147.933 23.5472C146.942 23.9762 146.487 26.1173 143.651 43.7145C141.905 54.5429 140.351 63.9377 140.199 64.592C139.849 66.0868 141.657 67.1688 144.336 67.0679C146.836 66.9731 147.015 66.727 147.817 62.2747L148.504 58.4619L152.147 58.3006L155.79 58.1392L156.463 62.3251C157.289 67.4626 160.868 69.3724 163.562 66.1137C164.303 65.218 158.02 24.9862 156.976 23.9385C156.249 23.2082 149.4 22.9124 147.933 23.5472ZM179.311 23.8397C172.442 26.4817 171.739 28.4917 171.739 45.4965C171.739 58.1176 171.81 59.0873 172.911 61.3696C175.984 67.741 186.043 69.523 190.719 64.5241C192.739 62.3642 194.616 56.8346 193.78 55.5045C192.544 53.5376 187.479 53.7306 187.159 55.7567C186.385 60.6548 180.994 62.1322 179.386 57.887C178.61 55.8394 178.689 34.2666 179.477 32.763C181.378 29.1392 187.053 30.3738 187.053 34.4112C187.053 36.5651 191.138 37.641 193.298 36.056C195.452 34.4758 192.492 26.6915 188.947 24.6137C186.655 23.2701 181.805 22.8808 179.311 23.8397ZM208.11 23.5425C207.14 23.9641 206.629 26.3553 203.583 44.7729C199.753 67.9212 199.74 67.1284 203.953 67.0699C207.045 67.0276 207.13 66.924 207.873 62.2956L208.533 58.1876H212.247H215.961L216.63 62.3494C217.449 67.4445 221.036 69.3657 223.706 66.1379C224.417 65.2772 218.118 24.921 217.115 23.9143C216.409 23.2056 209.54 22.9218 208.11 23.5425ZM60.1846 29.2831C73.5686 35.6687 73.6295 54.8778 60.2865 61.2425C49.3534 66.4587 39.4575 49.6428 45.8225 36.6659C49.5852 28.9953 54.3965 26.5221 60.1846 29.2831ZM94.3171 42.9546C94.8236 46.3512 95.3617 49.5621 95.5131 50.0907C95.7462 50.9057 95.4092 51.0509 93.29 51.0509C91.9158 51.0509 90.7936 50.866 90.7956 50.6394C90.7976 50.4128 91.2881 47.3867 91.8857 43.9149C92.4833 40.4431 92.9738 37.417 92.9758 37.1904C92.9919 35.3977 93.5439 37.7721 94.3171 42.9546ZM152.412 50.948C149.577 51.178 149.62 51.3145 150.633 45.1825C152.189 35.7769 152.152 35.7978 153.396 43.6405L154.529 50.7765L152.412 50.948ZM212.579 50.948C209.705 51.1807 209.739 51.2977 210.794 44.6109C212.111 36.2752 212.242 36.2423 213.54 43.9149L214.701 50.7765L212.579 50.948ZM68.504 79.9594C67.9895 80.1678 67.82 82.9363 67.82 91.1691V102.102L71.7857 102.094C76.4147 102.084 76.8 101.903 77.9175 99.2189C79.0009 96.6159 78.9902 93.6349 77.8914 91.9511C77.0988 90.7374 77.0988 90.5141 77.8914 89.3783C79.5979 86.932 78.1748 81.0696 75.6389 80.102C74.2526 79.5727 69.6832 79.482 68.504 79.9594ZM84.0916 80.1887C83.1181 80.7576 82.5787 98.9123 83.4665 101.234C84.0031 102.636 91.6579 102.486 92.0284 101.065C92.4612 99.4045 91.5333 98.5351 89.3075 98.5176L87.2366 98.5008L87.0711 95.6355L86.9063 92.7702H88.8486C90.6428 92.7702 90.7916 92.6444 90.7916 91.1233C90.7916 89.6077 90.6395 89.4765 88.8774 89.4765H86.9632V86.4572V83.4386H89.4241C92.0405 83.4386 93.2465 80.7865 91.0207 79.9291C89.6553 79.4033 85.1462 79.5721 84.0916 80.1887ZM97.0594 80.3756C96.0055 81.157 96.0176 81.2559 97.7703 86.2838L99.5532 91.3977L97.8119 96.2467C96.3539 100.307 96.1972 101.176 96.8497 101.591C98.5723 102.685 99.4607 102.117 100.532 99.2344L101.598 96.3664L102.613 99.2344C103.619 102.078 104.423 102.633 106.044 101.603C106.953 101.025 106.737 99.7858 104.879 94.9361L103.501 91.3385L105.349 86.4277C107.393 80.9983 107.369 79.9863 105.209 80.2452C104.013 80.3884 103.564 80.9358 102.649 83.362L101.538 86.3046L100.403 83.1286C99.1505 79.6205 98.6427 79.2022 97.0594 80.3756ZM110.299 79.9621C108.806 81.4603 109.992 83.4386 112.382 83.4386H114.831L114.981 92.633L115.131 101.828L116.635 102.002L118.139 102.175L118.222 94.0418C118.268 89.5687 118.363 85.6617 118.432 85.3598C118.502 85.0579 118.588 84.5018 118.623 84.1245C118.663 83.6868 119.576 83.4386 121.147 83.4386C123.763 83.4386 124.969 80.7865 122.743 79.9291C121.566 79.4759 110.755 79.5041 110.299 79.9621ZM137.021 80.342C136.284 80.8827 136.183 82.4434 136.312 91.3997L136.461 101.828H138.102H139.742L140.016 96.7107L140.29 91.5934L141.876 96.2998C144.481 104.03 145.953 104.159 148.572 96.8855L150.349 91.9471L150.387 96.3382C150.43 101.327 150.81 102.275 152.657 102.013L153.963 101.828L154.111 91.2861C154.25 81.4401 154.192 80.7085 153.23 80.1914C151.559 79.2943 150.714 80.4886 148.215 87.281C146.938 90.7528 145.711 93.795 145.489 94.0411C145.267 94.2872 143.884 91.2767 142.414 87.3503C139.702 80.1026 138.852 78.9985 137.021 80.342ZM159.284 80.0556C158.751 80.3951 158.623 82.9989 158.737 91.1637L158.886 101.828L163.124 101.988L167.363 102.148V100.537C167.363 98.7845 166.597 98.2594 164.037 98.2594C161.398 98.2594 161.57 92.9242 164.218 92.668C165.704 92.5241 165.996 92.2705 165.996 91.1233C165.996 89.9762 165.704 89.7226 164.218 89.5794C162.452 89.4079 162.441 89.3884 162.441 86.423V83.4386H164.902C167.518 83.4386 168.724 80.7865 166.498 79.9291C165.243 79.4456 160.1 79.5364 159.284 80.0556ZM172.384 80.2136C170.95 80.7482 170.942 80.6937 173.413 87.164L174.94 91.1644L173.203 96.0981C171.701 100.364 171.576 101.104 172.286 101.559C174.043 102.687 174.918 102.145 175.841 99.3575C176.341 97.8478 176.832 96.6125 176.935 96.6125C177.037 96.6125 177.529 97.8478 178.028 99.3575C178.913 102.03 179.484 102.455 181.265 101.769C182.459 101.31 182.372 100.634 180.474 95.6482L178.819 91.2962L180.766 86.1755C182.805 80.8141 182.746 80.1726 180.212 80.1531C179.372 80.147 178.849 80.8813 177.972 83.3014L176.828 86.4572L175.831 83.3243C174.745 79.9069 174.294 79.5008 172.384 80.2136ZM74.8556 84.6235C75.5109 86.4008 74.9327 88.4127 73.6275 88.9002C71.6751 89.6285 71.1016 88.9984 71.1016 86.1244C71.1016 83.05 73.8681 81.9438 74.8556 84.6235ZM74.6292 94.0229C75.937 96.0268 75.0205 98.5297 72.9776 98.5324C71.4299 98.5344 71.3696 98.4355 71.2102 95.6523C71.0199 92.3411 72.9354 91.4286 74.6292 94.0229Z" fill="black"/>
</svg>
