<svg width="61" height="49" viewBox="0 0 61 49" fill="none" xmlns="http://www.w3.org/2000/svg">
<g clip-path="url(#clip0_513_392)">
<path d="M22.231 4.42578H38.7081V34.3959H22.231V4.42578Z" fill="#FF5F00"/>
<path d="M23.2775 19.4119C23.2775 13.3226 26.102 7.92155 30.4435 4.42671C27.2529 1.88513 23.2253 0.349609 18.8314 0.349609C8.42157 0.349609 0 8.87455 0 19.4119C0 29.949 8.42157 38.4742 18.8311 38.4742C23.225 38.4742 27.2527 36.9386 30.4435 34.3968C26.102 30.955 23.2775 25.5011 23.2775 19.4119Z" fill="#EB001B"/>
<path d="M60.9396 19.4119C60.9396 29.949 52.518 38.4742 42.1085 38.4742C37.7146 38.4742 33.6869 36.9386 30.4961 34.3968C34.89 30.9022 37.6624 25.5011 37.6624 19.4119C37.6624 13.3226 34.8376 7.92155 30.4961 4.42671C33.6867 1.88513 37.7146 0.349609 42.1085 0.349609C52.518 0.349609 60.9396 8.92762 60.9396 19.4119Z" fill="#F79E1B"/>
</g>
<defs>
<clipPath id="clip0_513_392">
<rect width="61" height="48" fill="white" transform="translate(0 0.349609)"/>
</clipPath>
</defs>
</svg>
