<?xml version="1.0" standalone="no"?>
<!DOCTYPE svg PUBLIC "-//W3C//DTD SVG 20010904//EN"
 "http://www.w3.org/TR/2001/REC-SVG-20010904/DTD/svg10.dtd">
<svg version="1.0" xmlns="http://www.w3.org/2000/svg"
 width="966.000000pt" height="446.000000pt" viewBox="0 0 966.000000 446.000000"
 preserveAspectRatio="xMidYMid meet">

<g transform="translate(0.000000,446.000000) scale(0.100000,-0.100000)"
fill="#000000" stroke="none">
<path d="M8904 4358 l-40 -93 -4314 -5 c-3387 -4 -4323 -8 -4350 -17 -66 -23
-128 -70 -152 -115 -23 -42 -23 -49 -29 -503 -14 -1005 -21 -2915 -11 -3141 9
-224 11 -232 38 -289 36 -74 116 -157 169 -176 34 -12 707 -14 4617 -13 l4577
2 45 21 c64 32 127 91 161 152 l30 54 0 1905 0 1905 -28 57 c-16 33 -45 70
-67 88 -69 55 -106 63 -324 69 l-200 6 -36 87 c-20 48 -39 90 -42 93 -2 3 -23
-37 -44 -87z m91 -100 l15 -38 201 0 c126 0 216 -4 241 -12 56 -17 123 -79
145 -136 17 -45 18 -131 18 -1937 l0 -1890 -27 -46 c-36 -61 -116 -132 -166
-147 -30 -9 -1107 -12 -4606 -12 -4480 0 -4568 0 -4604 19 -51 26 -105 85
-137 151 l-28 55 -9 355 c-10 357 6 3174 18 3370 8 125 28 160 114 206 34 18
162 19 4373 24 l4339 5 31 74 31 74 18 -39 c9 -21 24 -56 33 -76z"/>
<path d="M970 3731 l0 -120 74 0 c84 0 103 12 112 71 12 69 -38 120 -100 104
-22 -5 -25 -3 -28 26 -2 28 -8 34 -30 36 l-28 3 0 -120z m120 -6 c7 -8 10 -25
6 -40 -8 -31 -50 -35 -66 -5 -23 42 30 81 60 45z"/>
<path d="M1187 3843 c-4 -3 -7 -57 -7 -120 l0 -113 30 0 30 0 0 120 c0 119 0
120 -23 120 -13 0 -27 -3 -30 -7z"/>
<path d="M550 3815 c0 -21 5 -25 30 -25 l30 0 0 -90 0 -90 30 0 30 0 0 90 0
90 31 0 c26 0 30 3 27 23 -3 21 -8 22 -90 25 l-88 3 0 -26z"/>
<path d="M1575 3829 c-27 -17 -35 -29 -35 -60 0 -30 24 -55 62 -64 32 -8 53
-30 43 -45 -9 -15 -35 -12 -41 5 -4 9 -19 15 -35 15 -35 0 -38 -21 -9 -50 14
-14 33 -20 65 -20 107 0 116 101 12 136 -37 13 -50 44 -18 44 12 0 21 -4 21
-10 0 -5 16 -10 35 -10 39 0 43 8 17 40 -20 25 -87 36 -117 19z"/>
<path d="M1750 3810 c0 -11 -4 -20 -10 -20 -5 0 -10 -11 -10 -25 0 -14 5 -25
10 -25 6 0 10 -22 10 -49 0 -58 18 -81 61 -81 24 0 29 4 29 25 0 16 -6 25 -15
25 -11 0 -15 11 -15 40 0 29 4 40 15 40 9 0 15 9 15 25 0 16 -6 25 -15 25 -8
0 -15 9 -15 20 0 16 -7 20 -30 20 -23 0 -30 -4 -30 -20z"/>
<path d="M2100 3811 c0 -10 -7 -21 -15 -25 -8 -3 -15 -12 -15 -21 0 -9 7 -18
15 -21 11 -4 15 -21 15 -58 0 -61 12 -76 57 -76 29 0 33 3 33 25 0 18 -5 25
-20 25 -17 0 -20 7 -20 40 0 33 3 40 20 40 15 0 20 7 20 25 0 18 -5 25 -20 25
-13 0 -20 7 -20 20 0 15 -7 20 -25 20 -18 0 -25 -5 -25 -19z"/>
<path d="M764 3765 c-31 -31 -32 -92 -4 -128 19 -24 27 -26 95 -26 l75 0 0 89
0 88 -71 0 c-62 0 -75 -3 -95 -23z m101 -65 c0 -31 -3 -35 -28 -38 -31 -4 -43
14 -33 54 5 20 12 25 34 22 24 -3 27 -7 27 -38z"/>
<path d="M1295 3765 c-32 -31 -34 -91 -4 -129 16 -21 29 -26 63 -26 44 0 86
22 86 46 0 16 -50 20 -66 4 -12 -12 -44 -3 -44 11 0 5 27 9 60 9 54 0 60 2 60
20 0 29 -26 76 -45 84 -37 14 -86 6 -110 -19z m90 -35 c4 -6 -7 -10 -24 -10
-17 0 -31 5 -31 10 0 6 11 10 24 10 14 0 28 -4 31 -10z"/>
<path d="M1884 3765 c-31 -31 -32 -92 -4 -128 19 -24 27 -26 95 -26 l75 0 0
89 0 88 -71 0 c-62 0 -75 -3 -95 -23z m101 -65 c0 -31 -3 -35 -28 -38 -31 -4
-43 14 -33 54 5 20 12 25 34 22 24 -3 27 -7 27 -38z"/>
<path d="M2220 3717 c0 -96 10 -105 108 -105 l72 0 0 89 0 89 -30 0 c-29 0
-29 -1 -32 -62 -3 -58 -5 -63 -27 -66 -31 -5 -41 12 -41 76 0 49 -2 52 -25 52
-24 0 -25 -2 -25 -73z"/>
<path d="M2452 3774 c-46 -32 -20 -82 52 -98 22 -6 26 -10 17 -19 -9 -9 -16
-9 -31 1 -26 16 -60 15 -60 -1 0 -26 36 -47 78 -47 46 0 72 20 72 54 0 29 -17
44 -59 52 -17 4 -34 11 -37 15 -8 14 26 23 39 10 14 -14 57 -15 57 -1 0 6 -9
19 -20 30 -24 24 -77 26 -108 4z"/>
<path d="M653 3000 c0 -41 1 -64 4 -50 10 65 13 71 36 68 18 -2 23 -11 25 -40
4 -47 22 -50 22 -4 0 43 -24 70 -56 62 -18 -5 -24 -1 -27 16 -2 13 -4 -11 -4
-52z"/>
<path d="M926 3045 c-9 -14 -12 -25 -6 -25 5 0 11 -21 12 -47 l1 -48 4 45 c3
24 10 48 16 53 9 6 9 10 -1 14 -10 4 -10 8 -1 19 7 8 7 14 1 14 -5 0 -17 -11
-26 -25z"/>
<path d="M1103 3000 c0 -41 2 -58 4 -37 2 20 2 54 0 75 -2 20 -4 3 -4 -38z"/>
<path d="M1140 3000 c0 -45 4 -69 10 -65 6 3 10 33 10 65 0 32 -4 62 -10 65
-6 4 -10 -20 -10 -65z"/>
<path d="M1440 3060 c0 -5 5 -10 10 -10 6 0 10 5 10 10 0 6 -4 10 -10 10 -5 0
-10 -4 -10 -10z"/>
<path d="M1850 3045 c0 -23 -2 -24 -20 -15 -25 13 -56 -1 -65 -30 -9 -27 19
-70 45 -70 30 0 33 18 3 22 -24 3 -28 8 -28 33 0 21 5 31 18 33 26 5 49 -18
43 -42 -3 -12 -1 -28 4 -36 7 -10 10 8 10 58 0 39 -2 72 -5 72 -3 0 -5 -11 -5
-25z"/>
<path d="M2300 3005 c0 -69 17 -90 22 -27 2 29 7 38 25 40 23 3 26 -3 36 -68
3 -14 5 -4 6 22 1 37 -3 49 -18 58 -11 5 -27 7 -35 4 -12 -4 -16 0 -16 15 0
12 -4 21 -10 21 -6 0 -10 -28 -10 -65z"/>
<path d="M2790 3005 c0 -69 17 -90 22 -27 2 29 7 38 25 40 23 3 26 -3 36 -68
3 -14 5 -4 6 22 1 37 -3 49 -18 58 -11 5 -27 7 -35 4 -12 -4 -16 0 -16 15 0
12 -4 21 -10 21 -6 0 -10 -28 -10 -65z"/>
<path d="M3784 3048 c-10 -29 -5 -100 7 -112 5 -6 9 8 9 36 0 28 5 48 13 51 9
4 8 8 -3 16 -13 10 -13 12 0 21 13 8 13 10 -2 10 -9 0 -20 -10 -24 -22z"/>
<path d="M3950 3005 c0 -69 17 -90 22 -27 2 29 7 38 25 40 23 3 26 -3 36 -68
3 -14 5 -4 6 22 1 37 -3 49 -18 58 -11 5 -27 7 -35 4 -12 -4 -16 0 -16 15 0
12 -4 21 -10 21 -6 0 -10 -28 -10 -65z"/>
<path d="M4410 3006 c0 -63 0 -64 31 -70 45 -9 69 8 69 49 0 38 -27 61 -60 50
-16 -5 -20 -2 -20 14 0 12 -4 21 -10 21 -6 0 -10 -28 -10 -64z m85 -5 c10 -31
-5 -52 -34 -49 -26 3 -38 26 -27 54 8 21 53 18 61 -5z"/>
<path d="M4537 3063 c-11 -10 -8 -121 3 -128 6 -4 10 20 10 64 0 71 -1 77 -13
64z"/>
<path d="M563 3053 c14 -4 17 -16 17 -64 0 -38 4 -58 10 -54 6 3 10 30 10 60
0 43 4 54 18 58 9 3 -3 5 -28 5 -25 0 -37 -2 -27 -5z"/>
<path d="M2008 3047 c-10 -27 4 -106 19 -112 9 -3 19 -2 22 1 3 4 0 9 -6 11
-15 5 -18 73 -3 73 16 0 11 14 -9 27 -15 9 -20 9 -23 0z"/>
<path d="M2728 3048 c-15 -42 18 -136 40 -113 4 4 1 10 -5 12 -17 6 -17 70 -1
75 9 3 8 9 -4 21 -20 20 -24 21 -30 5z"/>
<path d="M3159 3043 c-4 -71 17 -131 38 -109 5 5 2 11 -4 13 -17 6 -17 70 -1
75 9 3 8 9 -4 21 -21 22 -28 21 -29 0z"/>
<path d="M3349 3049 c-10 -28 3 -107 18 -114 23 -8 31 5 10 16 -22 13 -24 69
-2 69 8 0 15 5 15 10 0 6 -6 10 -14 10 -8 0 -16 5 -18 12 -3 8 -6 7 -9 -3z"/>
<path d="M3888 3048 c-10 -28 4 -107 19 -113 9 -3 19 -2 22 1 3 4 0 9 -6 11
-17 6 -17 70 -1 75 9 3 8 9 -4 21 -20 20 -25 21 -30 5z"/>
<path d="M4228 3048 c-10 -28 4 -107 19 -113 9 -3 19 -2 22 1 3 4 0 9 -6 11
-17 6 -17 70 -1 75 9 3 8 9 -4 21 -20 20 -25 21 -30 5z"/>
<path d="M778 3029 c-27 -15 -24 -75 3 -90 25 -13 69 2 69 23 0 9 -3 9 -12 0
-17 -17 -55 -15 -62 3 -4 12 3 15 34 15 33 0 40 3 40 20 0 10 -9 24 -19 30
-24 12 -31 12 -53 -1z m60 -26 c2 -9 -8 -13 -32 -13 -28 0 -34 3 -29 16 7 18
54 16 61 -3z"/>
<path d="M996 3024 c-25 -25 -20 -72 9 -86 19 -9 29 -8 50 6 30 20 32 49 5 76
-24 24 -43 25 -64 4z m59 -39 c0 -25 -4 -31 -27 -33 -19 -2 -28 2 -33 18 -8
27 12 52 39 48 16 -2 21 -10 21 -33z"/>
<path d="M1196 3027 c-35 -26 -14 -97 29 -97 18 0 42 23 50 47 4 15 0 28 -14
42 -24 24 -40 26 -65 8z m59 -42 c0 -24 -5 -31 -24 -33 -31 -5 -45 11 -37 43
5 21 12 26 34 23 23 -2 27 -8 27 -33z"/>
<path d="M1337 2998 l-15 -43 -7 33 c-4 18 -12 35 -18 39 -11 7 -4 -27 14 -74
l11 -28 14 30 c7 17 14 37 14 45 1 8 10 -5 21 -29 11 -24 21 -42 23 -40 11 14
33 99 25 99 -5 0 -12 -13 -15 -30 -8 -38 -21 -38 -29 0 -10 45 -22 45 -38 -2z"/>
<path d="M1503 3033 c-20 -4 -23 -11 -23 -48 0 -57 18 -68 22 -13 3 38 6 43
28 43 22 0 26 -5 31 -45 l6 -45 1 47 c2 37 -2 49 -17 58 -11 5 -21 9 -23 9 -2
-1 -13 -4 -25 -6z"/>
<path d="M1610 3020 c-11 -11 -20 -26 -20 -33 0 -22 30 -57 50 -57 31 0 33 18
3 22 -22 2 -29 9 -31 31 -4 31 20 47 47 30 16 -10 23 -60 14 -95 -5 -21 -33
-24 -51 -6 -6 6 -15 9 -19 5 -13 -14 15 -28 48 -25 l34 3 3 75 c1 41 -1 70 -6
63 -5 -8 -13 -9 -22 -3 -21 14 -28 12 -50 -10z"/>
<path d="M1908 3028 c-28 -22 -31 -55 -9 -77 24 -24 41 -26 63 -8 28 21 31 54
9 76 -24 24 -41 26 -63 9z m57 -43 c0 -24 -5 -31 -24 -33 -31 -5 -45 11 -37
43 5 21 12 26 34 23 23 -2 27 -8 27 -33z"/>
<path d="M2083 3033 c-22 -8 -14 -43 12 -53 14 -5 25 -15 25 -21 0 -7 -10 -9
-25 -7 -30 6 -34 -8 -5 -17 23 -7 50 10 50 30 0 7 -13 18 -30 24 -16 5 -30 15
-30 20 0 15 33 14 48 -1 9 -9 12 -9 12 0 0 9 -32 34 -42 31 -2 0 -9 -3 -15 -6z"/>
<path d="M2223 3033 c-25 -9 -14 -44 17 -54 34 -13 30 -33 -6 -26 -13 2 -24 1
-24 -4 0 -12 35 -20 54 -13 20 8 21 43 1 49 -49 16 -49 15 -36 28 9 9 16 9 31
-1 22 -13 27 -3 8 16 -13 13 -24 14 -45 5z"/>
<path d="M2432 3024 c-27 -18 -29 -55 -4 -77 35 -32 82 -10 82 38 0 20 -32 55
-50 55 -3 0 -16 -7 -28 -16z m58 -25 c14 -26 -4 -51 -34 -47 -21 3 -32 28 -22
54 8 21 44 17 56 -7z"/>
<path d="M2580 3016 c-5 -15 -10 -32 -10 -37 0 -22 -19 -6 -25 21 -4 17 -10
30 -15 30 -8 0 15 -88 25 -98 3 -3 13 14 22 37 l17 43 10 -37 c6 -20 15 -36
21 -36 12 0 37 70 32 91 -2 8 -9 -5 -17 -30 l-13 -45 -13 39 c-18 52 -22 54
-34 22z"/>
<path d="M2922 3024 c-27 -18 -29 -55 -4 -77 22 -20 43 -22 60 -5 19 19 14 30
-7 17 -20 -13 -51 -6 -51 11 0 5 18 10 40 10 28 0 40 4 40 14 0 13 -36 46 -50
46 -3 0 -16 -7 -28 -16z m56 -21 c2 -9 -7 -13 -27 -13 -30 0 -39 9 -24 24 11
10 46 3 51 -11z"/>
<path d="M3076 3024 c-19 -18 -13 -32 20 -44 37 -14 30 -34 -8 -26 -31 5 -32
5 -14 -9 25 -19 40 -19 56 0 15 17 6 33 -26 45 -37 14 -30 34 9 26 30 -5 31
-5 13 9 -25 19 -31 19 -50 -1z"/>
<path d="M3236 3025 c-18 -18 -21 -52 -6 -75 5 -9 25 -15 49 -15 l41 -1 0 48
c0 32 -4 48 -12 48 -7 0 -22 3 -34 6 -13 3 -28 -1 -38 -11z m59 -40 c0 -25 -4
-30 -24 -30 -32 0 -49 28 -31 50 7 9 23 15 34 13 16 -2 21 -10 21 -33z"/>
<path d="M3411 2999 c-1 -56 13 -72 58 -63 29 6 31 9 31 50 0 54 -18 59 -22 7
-2 -30 -7 -39 -25 -41 -23 -3 -26 3 -36 68 -3 14 -5 4 -6 -21z"/>
<path d="M3532 3028 c-20 -20 -13 -39 18 -49 17 -6 30 -16 30 -21 0 -6 -12 -8
-30 -4 -32 6 -42 -9 -11 -19 48 -15 73 37 26 55 -26 10 -34 30 -12 30 7 0 18
-5 25 -12 9 -9 12 -8 12 4 0 26 -38 36 -58 16z"/>
<path d="M3682 3024 c-39 -27 -19 -94 27 -94 24 0 51 31 51 58 0 18 -33 52
-50 52 -3 0 -16 -7 -28 -16z m53 -39 c0 -35 -31 -47 -51 -20 -18 25 0 57 29
53 17 -2 22 -10 22 -33z"/>
<path d="M4082 3024 c-27 -18 -29 -55 -4 -77 22 -20 43 -22 60 -5 19 19 14 30
-7 17 -20 -13 -51 -6 -51 11 0 5 18 10 40 10 28 0 40 4 40 14 0 13 -36 46 -50
46 -3 0 -16 -7 -28 -16z m56 -21 c2 -9 -7 -13 -27 -13 -30 0 -39 9 -24 24 11
10 46 3 51 -11z"/>
<path d="M4308 3029 c-12 -6 -18 -22 -18 -44 0 -39 21 -56 66 -51 27 3 29 6
32 51 3 39 1 47 -12 42 -8 -3 -18 -2 -21 3 -8 13 -25 12 -47 -1z m57 -44 c0
-25 -4 -31 -26 -33 -29 -3 -44 18 -33 50 4 14 13 18 32 16 23 -2 27 -8 27 -33z"/>
<path d="M4592 3024 c-27 -18 -29 -55 -4 -77 22 -20 43 -22 60 -5 19 19 14 30
-7 17 -20 -13 -51 -6 -51 11 0 5 18 10 40 10 45 0 50 10 20 40 -24 24 -29 24
-58 4z m56 -21 c2 -9 -7 -13 -27 -13 -30 0 -39 9 -24 24 11 10 46 3 51 -11z"/>
<path d="M4696 3024 c-19 -18 -13 -32 20 -44 36 -14 31 -34 -7 -26 -27 5 -30
4 -19 -9 16 -19 44 -19 60 0 15 17 6 33 -26 45 -37 14 -30 34 9 26 30 -5 31
-5 13 9 -25 19 -31 19 -50 -1z"/>
<path d="M1440 2985 c0 -25 5 -45 10 -45 6 0 10 20 10 45 0 25 -4 45 -10 45
-5 0 -10 -20 -10 -45z"/>
<path d="M4775 3020 c3 -5 8 -10 11 -10 2 0 4 5 4 10 0 6 -5 10 -11 10 -5 0
-7 -4 -4 -10z"/>
<path d="M4775 2940 c3 -5 8 -10 11 -10 2 0 4 5 4 10 0 6 -5 10 -11 10 -5 0
-7 -4 -4 -10z"/>
<path d="M1550 2320 c0 -5 5 -10 10 -10 6 0 10 5 10 10 0 6 -4 10 -10 10 -5 0
-10 -4 -10 -10z"/>
<path d="M1590 2265 c0 -37 4 -65 10 -65 6 0 10 28 10 65 0 37 -4 65 -10 65
-6 0 -10 -28 -10 -65z"/>
<path d="M1760 2266 c0 -55 3 -65 18 -64 9 0 24 -2 33 -6 38 -16 68 66 34 94
-8 7 -25 10 -40 6 -20 -5 -25 -3 -25 14 0 11 -4 20 -10 20 -6 0 -10 -28 -10
-64z m75 -21 c0 -23 -5 -30 -19 -30 -24 0 -41 27 -33 49 4 11 15 16 29 14 18
-2 23 -9 23 -33z"/>
<path d="M1880 2265 c0 -37 4 -65 10 -65 6 0 10 28 10 65 0 37 -4 65 -10 65
-6 0 -10 -28 -10 -65z"/>
<path d="M1222 2263 c-21 -58 -21 -76 0 -55 15 15 55 16 63 2 3 -5 10 -10 15
-10 5 0 0 27 -12 60 -11 33 -26 60 -33 60 -6 0 -22 -26 -33 -57z m48 -10 c0
-7 -7 -13 -15 -13 -16 0 -19 9 -9 35 5 13 8 14 15 3 5 -7 9 -19 9 -25z"/>
<path d="M1320 2293 c0 -22 35 -93 46 -93 14 0 51 87 41 97 -4 3 -15 -13 -25
-37 l-18 -43 -14 42 c-7 22 -17 41 -22 41 -4 0 -8 -3 -8 -7z"/>
<path d="M1435 2276 c-28 -43 10 -99 53 -78 9 5 23 7 30 5 10 -4 12 7 10 42
-3 47 -4 48 -40 52 -31 3 -40 -1 -53 -21z m64 -10 c15 -18 -2 -56 -23 -56 -21
0 -38 27 -31 50 7 23 37 27 54 6z"/>
<path d="M1550 2250 c0 -27 5 -50 10 -50 6 0 10 23 10 50 0 28 -4 50 -10 50
-5 0 -10 -22 -10 -50z"/>
<path d="M1645 2276 c-31 -47 3 -87 67 -78 28 4 29 6 26 50 -3 44 -4 45 -40
49 -31 3 -40 -1 -53 -21z m64 -10 c15 -18 -2 -56 -23 -56 -21 0 -38 27 -31 50
7 23 37 27 54 6z"/>
<path d="M1936 2284 c-24 -24 -20 -61 9 -80 23 -15 27 -15 51 1 14 9 23 19 20
22 -3 3 -12 0 -20 -6 -16 -13 -56 -6 -56 10 0 5 18 9 40 9 28 0 40 4 40 14 0
20 -28 46 -50 46 -10 0 -26 -7 -34 -16z m59 -14 c4 -6 -7 -10 -25 -10 -18 0
-29 4 -25 10 3 6 15 10 25 10 10 0 22 -4 25 -10z"/>
<path d="M2035 2210 c-3 -5 1 -10 10 -10 9 0 13 5 10 10 -3 6 -8 10 -10 10 -2
0 -7 -4 -10 -10z"/>
<path d="M2093 1700 c-3 -11 -10 -20 -16 -20 -7 0 -7 -4 1 -12 7 -7 12 -29 12
-50 0 -49 20 -50 21 0 1 20 2 52 4 70 3 35 -14 44 -22 12z"/>
<path d="M1210 1645 c0 -37 4 -65 10 -65 6 0 10 11 10 25 0 14 4 25 8 25 5 0
14 -11 20 -25 6 -14 16 -25 22 -25 14 0 13 13 -2 28 -9 9 -9 15 0 24 31 31 3
78 -47 78 -19 0 -21 -6 -21 -65z m60 25 c0 -13 -7 -20 -20 -20 -13 0 -20 7
-20 20 0 13 7 20 20 20 13 0 20 -7 20 -20z"/>
<path d="M1990 1691 c0 -14 -6 -17 -25 -13 -33 6 -55 -14 -55 -48 0 -36 18
-50 63 -48 l37 1 0 64 c0 35 -4 63 -10 63 -5 0 -10 -8 -10 -19z m-2 -57 c4
-25 -20 -47 -42 -38 -16 6 -22 45 -9 58 14 14 48 1 51 -20z"/>
<path d="M2440 1645 c0 -37 4 -65 10 -65 6 0 10 18 10 41 0 36 2 40 23 37 18
-2 23 -10 25 -40 4 -50 22 -49 22 1 0 43 -19 66 -50 58 -15 -4 -20 0 -20 14 0
10 -4 19 -10 19 -6 0 -10 -28 -10 -65z"/>
<path d="M3510 1645 c0 -51 3 -65 15 -65 11 0 15 11 15 41 0 36 2 40 23 37 18
-2 23 -10 25 -40 4 -45 22 -51 22 -7 0 44 -17 69 -45 69 -16 0 -25 6 -25 15 0
8 -7 15 -15 15 -12 0 -15 -14 -15 -65z"/>
<path d="M2373 1685 c-8 -9 -9 -16 -3 -20 6 -3 10 -24 10 -46 0 -34 3 -39 23
-38 12 0 16 3 10 6 -17 6 -17 70 -1 75 9 3 8 9 -4 21 -20 20 -20 20 -35 2z"/>
<path d="M3027 1688 c-2 -7 -1 -33 2 -58 5 -34 11 -46 26 -48 16 -3 18 -1 8 9
-17 17 -17 66 -1 71 9 3 8 9 -4 21 -20 20 -24 21 -31 5z"/>
<path d="M3137 1688 c-2 -7 -1 -33 2 -58 5 -39 10 -45 31 -48 22 -2 23 -1 8 8
-23 14 -25 70 -3 70 8 0 15 5 15 10 0 6 -7 10 -15 10 -8 0 -15 5 -15 10 0 14
-17 12 -23 -2z"/>
<path d="M1326 1664 c-19 -18 -21 -55 -4 -72 17 -17 63 -15 78 3 10 12 10 15
-2 15 -8 0 -19 -5 -26 -12 -9 -9 -16 -8 -29 5 -16 16 -15 17 25 17 43 0 49 8
32 41 -13 23 -53 25 -74 3z m59 -14 c4 -6 -7 -10 -25 -10 -18 0 -29 4 -25 10
3 6 15 10 25 10 10 0 22 -4 25 -10z"/>
<path d="M1431 1662 c-11 -21 -3 -33 32 -45 9 -4 17 -11 17 -17 0 -13 -27 -13
-35 0 -10 16 -25 12 -19 -5 8 -21 63 -20 71 2 4 10 0 21 -11 27 -10 6 -25 17
-34 24 -15 12 -13 13 16 8 24 -4 32 -2 30 7 -8 21 -55 20 -67 -1z"/>
<path d="M1532 1668 c-7 -7 -12 -24 -12 -38 0 -14 5 -31 12 -38 15 -15 64 -16
73 -1 11 17 -3 23 -20 9 -16 -13 -45 -7 -45 10 0 5 15 10 34 10 42 0 50 10 30
38 -17 24 -53 29 -72 10z m58 -18 c0 -5 -11 -10 -25 -10 -14 0 -25 5 -25 10 0
6 11 10 25 10 14 0 25 -4 25 -10z"/>
<path d="M1630 1629 c0 -27 5 -49 10 -49 6 0 10 16 10 35 0 22 6 38 15 41 23
9 18 22 -10 22 -23 0 -25 -4 -25 -49z"/>
<path d="M1690 1676 c0 -19 42 -97 51 -94 15 5 52 98 39 98 -5 0 -17 -17 -26
-37 l-16 -38 -15 38 c-8 20 -19 37 -24 37 -5 0 -9 -2 -9 -4z"/>
<path d="M1812 1668 c-7 -7 -12 -24 -12 -38 0 -14 5 -31 12 -38 15 -15 64 -16
73 -1 11 17 -3 23 -20 9 -16 -13 -45 -7 -45 10 0 5 16 10 35 10 27 0 35 4 35
18 0 24 -19 42 -45 42 -12 0 -26 -5 -33 -12z m58 -18 c0 -5 -11 -10 -25 -10
-14 0 -25 5 -25 10 0 6 11 10 25 10 14 0 25 -4 25 -10z"/>
<path d="M2152 1668 c-7 -7 -12 -24 -12 -38 0 -34 17 -50 52 -50 27 0 48 23
48 54 0 37 -61 61 -88 34z m66 -34 c4 -25 -20 -47 -42 -38 -16 6 -22 45 -9 58
14 14 48 1 51 -20z"/>
<path d="M2260 1629 c0 -27 5 -49 10 -49 6 0 10 18 10 40 0 29 4 40 15 40 8 0
15 4 15 9 0 5 -11 9 -25 9 -23 0 -25 -4 -25 -49z"/>
<path d="M2562 1668 c-7 -7 -12 -24 -12 -38 0 -14 5 -31 12 -38 15 -15 64 -16
73 -1 10 16 -3 23 -18 10 -8 -6 -22 -9 -31 -5 -28 11 -18 24 18 24 42 0 50 10
30 38 -17 24 -53 29 -72 10z m58 -18 c0 -5 -12 -10 -26 -10 -14 0 -23 4 -19
10 3 6 15 10 26 10 10 0 19 -4 19 -10z"/>
<path d="M2710 1629 c0 -57 17 -66 22 -11 2 30 7 38 26 40 20 3 22 -1 22 -37
0 -23 5 -41 11 -41 6 0 9 19 7 48 l-3 47 -42 1 -43 2 0 -49z"/>
<path d="M2836 1664 c-19 -18 -20 -38 -6 -65 13 -23 62 -26 80 -4 15 18 7 19
-22 4 -16 -9 -24 -7 -36 5 -15 15 -13 16 26 16 34 0 42 4 42 18 0 40 -54 57
-84 26z m59 -14 c4 -6 -7 -10 -25 -10 -18 0 -29 4 -25 10 3 6 15 10 25 10 10
0 22 -4 25 -10z"/>
<path d="M2944 1655 c15 -23 15 -27 0 -50 -9 -14 -12 -25 -6 -25 6 0 15 7 20
16 8 14 10 14 21 0 21 -25 35 -19 18 7 -13 20 -13 26 -1 50 16 29 2 38 -16 10
-10 -17 -10 -17 -20 0 -6 9 -16 17 -22 17 -6 0 -3 -11 6 -25z"/>
<path d="M3200 1669 c0 -28 24 -89 35 -89 7 0 16 17 20 38 l8 37 11 -34 c7
-19 17 -36 23 -38 12 -4 47 87 37 96 -7 7 -24 -20 -24 -41 0 -33 -18 -27 -24
8 -9 43 -25 40 -42 -7 l-12 -34 -7 33 c-7 32 -25 54 -25 31z"/>
<path d="M3362 1668 c-7 -7 -12 -24 -12 -38 0 -34 17 -50 52 -50 27 0 48 23
48 54 0 37 -61 61 -88 34z m66 -34 c4 -25 -20 -47 -42 -38 -16 6 -22 45 -9 58
14 14 48 1 51 -20z"/>
<path d="M3635 1656 c-23 -35 -5 -76 34 -76 30 0 61 22 61 43 0 7 -7 23 -16
35 -20 29 -59 29 -79 -2z m70 -16 c7 -23 -10 -50 -31 -50 -18 0 -35 34 -28 54
9 24 51 20 59 -4z"/>
<path d="M3748 1674 c-11 -11 -10 -52 2 -75 8 -14 20 -18 50 -17 l40 1 0 49
c0 26 -4 48 -10 48 -5 0 -10 -15 -10 -34 0 -70 -56 -70 -62 1 -2 19 -6 31 -10
27z"/>
<path d="M3860 1629 c0 -27 5 -49 10 -49 6 0 10 16 10 35 0 22 6 38 15 41 23
9 18 22 -10 22 -23 0 -25 -4 -25 -49z"/>
<path d="M3931 1662 c-12 -22 3 -42 31 -42 10 0 18 -7 18 -15 0 -17 -25 -20
-35 -5 -3 6 -11 10 -17 10 -7 0 -6 -6 2 -15 7 -8 23 -15 37 -15 30 0 43 30 19
44 -10 6 -25 17 -34 24 -15 12 -13 13 16 8 24 -4 32 -2 30 7 -7 21 -55 20 -67
-1z"/>
<path d="M4020 1590 c0 -5 5 -10 10 -10 6 0 10 5 10 10 0 6 -4 10 -10 10 -5 0
-10 -4 -10 -10z"/>
<path d="M1800 1110 c0 -5 5 -10 10 -10 6 0 10 5 10 10 0 6 -4 10 -10 10 -5 0
-10 -4 -10 -10z"/>
<path d="M2040 1095 c0 -23 -2 -24 -20 -15 -44 24 -85 -31 -56 -75 18 -27 45
-32 64 -13 9 9 12 9 12 -1 0 -7 5 -9 10 -6 6 3 10 35 10 71 0 36 -4 64 -10 64
-5 0 -10 -11 -10 -25z m-6 -47 c8 -14 7 -21 -6 -34 -30 -30 -75 9 -48 42 16
18 39 15 54 -8z"/>
<path d="M1216 1088 c-9 -12 -16 -32 -16 -44 0 -23 42 -64 65 -64 23 0 65 41
65 64 0 38 -28 66 -65 66 -24 0 -39 -7 -49 -22z m79 -8 c38 -42 -18 -105 -61
-70 -19 16 -18 49 3 72 21 23 36 23 58 -2z"/>
<path d="M1360 1070 c-25 -25 -25 -52 0 -75 23 -21 70 -13 70 12 0 13 -3 14
-12 5 -29 -29 -66 -2 -53 39 7 21 35 25 53 7 6 -6 14 -9 17 -6 8 8 -24 38 -41
38 -8 0 -23 -9 -34 -20z"/>
<path d="M1472 1074 c-27 -19 -28 -55 -2 -79 23 -21 70 -13 70 12 0 13 -3 14
-12 5 -15 -15 -45 -16 -53 -1 -12 19 4 59 25 59 10 0 22 -4 25 -10 3 -5 11
-10 17 -10 6 0 3 9 -7 20 -22 24 -34 25 -63 4z"/>
<path d="M1570 1047 c0 -51 14 -67 55 -63 27 3 30 7 33 41 5 57 -11 80 -17 25
-5 -37 -10 -46 -28 -48 -21 -3 -23 1 -23 37 0 22 -4 43 -10 46 -6 4 -10 -11
-10 -38z"/>
<path d="M1687 1084 c-11 -11 -8 -144 3 -144 6 0 10 11 10 25 0 21 4 24 23 20
56 -14 85 73 32 97 -18 8 -28 8 -39 -1 -10 -8 -15 -9 -18 -1 -2 6 -7 8 -11 4z
m68 -49 c0 -23 -5 -30 -19 -30 -28 0 -43 29 -26 50 21 25 45 14 45 -20z"/>
<path d="M1807 1083 c-11 -10 -8 -91 3 -98 6 -4 10 15 10 49 0 57 -1 61 -13
49z"/>
<path d="M1862 1074 c-27 -18 -29 -55 -4 -77 23 -21 42 -21 68 -3 24 18 13 31
-14 15 -21 -13 -52 -7 -52 11 0 5 18 10 40 10 44 0 52 16 22 43 -23 21 -32 21
-60 1z m56 -21 c2 -9 -7 -13 -27 -13 -23 0 -29 4 -24 16 6 17 44 15 51 -3z"/>
<path d="M680 1068 c-136 -39 -183 -203 -86 -307 112 -120 318 -54 334 108 8
92 -51 175 -143 200 -47 13 -58 13 -105 -1z"/>
<path d="M2080 994 c0 -8 5 -12 10 -9 6 4 8 11 5 16 -9 14 -15 11 -15 -7z"/>
</g>
</svg>
