<svg width="25" height="25" viewBox="0 0 25 25" fill="none" xmlns="http://www.w3.org/2000/svg">
<path d="M17.3203 18.5557C16.2103 18.5557 15.3203 19.4457 15.3203 20.5557C15.3203 21.0861 15.531 21.5948 15.9061 21.9699C16.2812 22.3449 16.7899 22.5557 17.3203 22.5557C17.8507 22.5557 18.3595 22.3449 18.7345 21.9699C19.1096 21.5948 19.3203 21.0861 19.3203 20.5557C19.3203 20.0252 19.1096 19.5165 18.7345 19.1415C18.3595 18.7664 17.8507 18.5557 17.3203 18.5557ZM1.32031 2.55566V4.55566H3.32031L6.92031 12.1457L5.56031 14.5957C5.41031 14.8757 5.32031 15.2057 5.32031 15.5557C5.32031 16.0861 5.53103 16.5948 5.9061 16.9699C6.28117 17.3449 6.78988 17.5557 7.32031 17.5557H19.3203V15.5557H7.74031C7.67401 15.5557 7.61042 15.5293 7.56354 15.4824C7.51665 15.4356 7.49031 15.372 7.49031 15.3057C7.49031 15.2557 7.50031 15.2157 7.52031 15.1857L8.42031 13.5557H15.8703C16.6203 13.5557 17.2803 13.1357 17.6203 12.5257L21.2003 6.05566C21.2703 5.89566 21.3203 5.72566 21.3203 5.55566C21.3203 5.29045 21.215 5.03609 21.0274 4.84856C20.8399 4.66102 20.5855 4.55566 20.3203 4.55566H5.53031L4.59031 2.55566M7.32031 18.5557C6.21031 18.5557 5.32031 19.4457 5.32031 20.5557C5.32031 21.0861 5.53103 21.5948 5.9061 21.9699C6.28117 22.3449 6.78988 22.5557 7.32031 22.5557C7.85075 22.5557 8.35945 22.3449 8.73453 21.9699C9.1096 21.5948 9.32031 21.0861 9.32031 20.5557C9.32031 20.0252 9.1096 19.5165 8.73453 19.1415C8.35945 18.7664 7.85075 18.5557 7.32031 18.5557Z" fill="#111111"/>
</svg>
