<svg width="39" height="40" viewBox="0 0 39 40" fill="none" xmlns="http://www.w3.org/2000/svg">
<path d="M11.6187 35.1293C11.2124 34.723 11.0093 34.242 11.0093 33.6863C11.0093 33.1316 11.2124 32.6512 11.6187 32.2449L23.5218 20.3418L11.578 8.39805C11.1989 8.01888 11.0093 7.54492 11.0093 6.97617C11.0093 6.40742 11.2124 5.91992 11.6187 5.51367C12.0249 5.10742 12.5059 4.9043 13.0617 4.9043C13.6163 4.9043 14.0968 5.10742 14.503 5.51367L28.153 19.2043C28.3155 19.3668 28.4309 19.5428 28.4992 19.7324C28.5663 19.922 28.5999 20.1251 28.5999 20.3418C28.5999 20.5585 28.5663 20.7616 28.4992 20.9512C28.4309 21.1408 28.3155 21.3168 28.153 21.4793L14.4624 35.1699C14.0832 35.5491 13.6163 35.7387 13.0617 35.7387C12.5059 35.7387 12.0249 35.5355 11.6187 35.1293Z" fill="#111111"/>
</svg>
