<svg width="54" height="60" viewBox="0 0 54 60" fill="none" xmlns="http://www.w3.org/2000/svg">
<path fill-rule="evenodd" clip-rule="evenodd" d="M37.5078 32.9492C40.5903 35.2355 42.7503 38.333 42.7503 42.463V49.838H51.7503V42.463C51.7503 37.1038 43.7178 33.9326 37.5078 32.9492Z" fill="black"/>
<path d="M20.25 30.1706C25.2206 30.1706 29.25 25.768 29.25 20.3372C29.25 14.9064 25.2206 10.5039 20.25 10.5039C15.2794 10.5039 11.25 14.9064 11.25 20.3372C11.25 25.768 15.2794 30.1706 20.25 30.1706Z" fill="black"/>
<path fill-rule="evenodd" clip-rule="evenodd" d="M33.75 30.1706C38.7225 30.1706 42.75 25.7702 42.75 20.3372C42.75 14.9043 38.7225 10.5039 33.75 10.5039C32.6925 10.5039 31.7025 10.7497 30.7575 11.0939C32.6937 13.7101 33.7499 16.9728 33.7499 20.3372C33.7499 23.7017 32.6937 26.9644 30.7575 29.5806C31.7025 29.9247 32.6925 30.1706 33.75 30.1706ZM20.25 32.6289C14.2425 32.6289 2.25 35.9231 2.25 42.4622V49.8372H38.25V42.4622C38.25 35.9231 26.2575 32.6289 20.25 32.6289Z" fill="black"/>
</svg>
