<svg width="44" height="54" viewBox="0 0 44 54" fill="none" xmlns="http://www.w3.org/2000/svg">
<path d="M43.6004 29.65V48.2C43.6004 49.6056 43.0315 50.9537 42.0188 51.9477C41.0061 52.9416 39.6326 53.5 38.2004 53.5C36.7682 53.5 35.3947 52.9416 34.382 51.9477C33.3693 50.9537 32.8004 49.6056 32.8004 48.2V34.95H27.4004V8.45C27.4004 6.34153 28.2538 4.31942 29.7728 2.8285C31.2919 1.33759 33.3521 0.5 35.5004 0.5L43.6004 0.5V29.65ZM5.80039 27C4.36822 27 2.99471 26.4416 1.98201 25.4477C0.969317 24.4537 0.400391 23.1056 0.400391 21.7V3.15C0.400391 2.44718 0.684854 1.77314 1.1912 1.27617C1.69755 0.779196 2.38431 0.5 3.10039 0.5C3.81648 0.5 4.50323 0.779196 5.00958 1.27617C5.51593 1.77314 5.80039 2.44718 5.80039 3.15V13.75H8.50039V3.15C8.50039 2.44718 8.78485 1.77314 9.2912 1.27617C9.79755 0.779196 10.4843 0.5 11.2004 0.5C11.9165 0.5 12.6032 0.779196 13.1096 1.27617C13.6159 1.77314 13.9004 2.44718 13.9004 3.15V13.75H16.6004V3.15C16.6004 2.44718 16.8849 1.77314 17.3912 1.27617C17.8976 0.779196 18.5843 0.5 19.3004 0.5C20.0165 0.5 20.7032 0.779196 21.2096 1.27617C21.7159 1.77314 22.0004 2.44718 22.0004 3.15V21.7C22.0004 23.1056 21.4315 24.4537 20.4188 25.4477C19.4061 26.4416 18.0326 27 16.6004 27V48.2C16.6004 49.6056 16.0315 50.9537 15.0188 51.9477C14.0061 52.9416 12.6326 53.5 11.2004 53.5C9.76822 53.5 8.39471 52.9416 7.38201 51.9477C6.36932 50.9537 5.80039 49.6056 5.80039 48.2V27Z" fill="black"/>
</svg>
