<svg width="33" height="62" viewBox="0 0 33 62" fill="none" xmlns="http://www.w3.org/2000/svg">
<path d="M12.7774 61.75V54.4042C9.75935 53.7208 7.15472 52.4111 4.96349 50.475C2.76999 48.5389 1.16074 45.8056 0.135742 42.275L6.45658 39.7125C7.31074 42.4458 8.57833 44.5243 10.2593 45.9479C11.938 47.3715 14.1441 48.0833 16.8774 48.0833C19.2121 48.0833 21.1915 47.5572 22.8156 46.5048C24.4374 45.4502 25.2482 43.8125 25.2482 41.5917C25.2482 39.5986 24.6219 38.0178 23.3691 36.8493C22.1163 35.6831 19.2121 34.3597 14.6566 32.8792C9.75935 31.3417 6.39963 29.5058 4.57741 27.3715C2.75519 25.2349 1.84408 22.6292 1.84408 19.5542C1.84408 15.8528 3.03991 12.9771 5.43158 10.9271C7.82324 8.87708 10.2719 7.70972 12.7774 7.425V0.25H19.6107V7.425C22.458 7.88056 24.8075 8.91922 26.6593 10.541C28.5089 12.1651 29.8607 14.1444 30.7149 16.4792L24.3941 19.2125C23.7107 17.3903 22.7427 16.0236 21.4899 15.1125C20.2371 14.2014 18.5288 13.7458 16.3649 13.7458C13.8594 13.7458 11.9517 14.3016 10.642 15.4132C9.33227 16.5224 8.67741 17.9028 8.67741 19.5542C8.67741 21.4333 9.53158 22.9139 11.2399 23.9958C12.9482 25.0778 15.9094 26.2167 20.1232 27.4125C24.0524 28.5514 27.0283 30.3588 29.051 32.8348C31.0714 35.313 32.0816 38.175 32.0816 41.4208C32.0816 45.4639 30.8857 48.5389 28.4941 50.6458C26.1024 52.7528 23.1413 54.0625 19.6107 54.575V61.75H12.7774Z" fill="#0FA958"/>
</svg>
