<svg width="34" height="50" viewBox="0 0 34 50" fill="none" xmlns="http://www.w3.org/2000/svg">
<path d="M18.929 10.6709L19.3457 14.1709H29.8927L29.0177 21.1709H16.6252L15.8112 14.1709H15.8209L15.4043 10.6709L15.3994 10.6284L14.4105 2.12499L14.1833 0.170898H0.375V3.6709H11.0667L11.8807 10.6709H1.89269L6.32238 46.105C6.42932 46.9509 6.84091 47.7289 7.4801 48.2932C8.11929 48.8576 8.94226 49.1696 9.79492 49.1709H25.9551C26.8078 49.1697 27.6309 48.8577 28.2702 48.2934C28.9095 47.729 29.3211 46.951 29.4281 46.105L33.8573 10.6709H18.929ZM5.85731 14.1709H12.2877L13.1017 21.1709H6.73231L5.85731 14.1709ZM25.9566 45.6709H9.79481L7.16981 24.6709H13.5086L15.0347 37.7959H18.5583L17.032 24.6709H28.5806L25.9566 45.6709Z" fill="black"/>
</svg>
