<svg width="25" height="25" viewBox="0 0 25 25" fill="none" xmlns="http://www.w3.org/2000/svg">
<path d="M6.45484 4.39221C6.41245 5.10185 6.51655 5.81262 6.76067 6.4803C7.00479 7.14798 7.38371 7.75827 7.87384 8.27321C6.9212 8.54634 6.06831 9.09008 5.41863 9.83845C4.76896 10.5868 4.35044 11.5076 4.21384 12.4892C3.88446 14.8447 4.36769 17.2422 5.58384 19.2862L5.93384 19.8762C5.94711 19.8979 5.96146 19.9189 5.97684 19.9392L7.39284 21.8452C7.69276 22.2492 8.07712 22.5829 8.51917 22.8232C8.96121 23.0635 9.45032 23.2045 9.95243 23.2365C10.4545 23.2685 10.9576 23.1906 11.4265 23.0084C11.8955 22.8261 12.3191 22.5438 12.6678 22.1812C12.7086 22.1388 12.7575 22.1051 12.8117 22.082C12.8658 22.059 12.924 22.0471 12.9828 22.0471C13.0417 22.0471 13.0999 22.059 13.154 22.082C13.2082 22.1051 13.2571 22.1388 13.2978 22.1812C13.6466 22.5438 14.0702 22.8261 14.5392 23.0084C15.0081 23.1906 15.5112 23.2685 16.0133 23.2365C16.5154 23.2045 17.0045 23.0635 17.4465 22.8232C17.8886 22.5829 18.2729 22.2492 18.5728 21.8452L19.9888 19.9382C20.0039 19.9179 20.0179 19.8969 20.0308 19.8752L20.3818 19.2852C21.5986 17.2421 22.0829 14.8454 21.7548 12.4902C21.658 11.7962 21.4198 11.1295 21.0549 10.5313C20.69 9.93311 20.2062 9.41619 19.6334 9.01254C19.0606 8.60889 18.4111 8.3271 17.725 8.18462C17.039 8.04214 16.331 8.042 15.6448 8.18421L13.7438 8.57821H13.7408C13.7708 7.79821 13.8928 6.95821 14.1318 6.24021C14.4218 5.37221 14.8238 4.85021 15.2718 4.66421C15.4555 4.58756 15.6012 4.44109 15.6769 4.25702C15.7525 4.07296 15.752 3.86637 15.6753 3.68271C15.5987 3.49904 15.4522 3.35335 15.2682 3.27768C15.0841 3.20201 14.8775 3.20256 14.6938 3.27921C13.6418 3.71821 13.0438 4.75921 12.7088 5.76521L12.6628 5.90721C12.4166 5.43136 12.0985 4.99626 11.7198 4.61721C11.2012 4.098 10.5782 3.69489 9.89209 3.43457C9.20595 3.17426 8.47235 3.06267 7.73984 3.10721C7.40556 3.12645 7.08996 3.26771 6.85291 3.5042C6.61587 3.7407 6.47387 4.05596 6.45384 4.39021L6.45484 4.39221ZM9.38085 12.2072C9.03384 12.2762 8.71584 12.5202 8.51684 12.9852C8.31384 13.4592 8.24185 14.1622 8.46084 15.0392C8.50587 15.231 8.47361 15.4328 8.37104 15.601C8.26847 15.7693 8.10383 15.8904 7.91271 15.9382C7.72158 15.986 7.51932 15.9567 7.34962 15.8566C7.17993 15.7565 7.05644 15.5936 7.00584 15.4032C6.72584 14.2812 6.77884 13.2332 7.13784 12.3942C7.50084 11.5472 8.18284 10.9162 9.08684 10.7362C9.18482 10.7131 9.28644 10.7099 9.38566 10.7269C9.48488 10.7439 9.57967 10.7807 9.66438 10.835C9.74908 10.8894 9.82197 10.9603 9.8787 11.0435C9.93543 11.1266 9.97484 11.2203 9.99459 11.3191C10.0143 11.4178 10.014 11.5194 9.99361 11.618C9.97323 11.7166 9.93321 11.8101 9.87594 11.8928C9.81867 11.9756 9.74532 12.046 9.66026 12.0999C9.5752 12.1537 9.48018 12.1909 9.38085 12.2072Z" fill="#111111"/>
</svg>
