<svg width="25" height="25" viewBox="0 0 25 25" fill="none" xmlns="http://www.w3.org/2000/svg">
<path d="M20.9092 4.16064H4.90918C3.80918 4.16064 2.91918 5.06064 2.91918 6.16064L2.90918 18.1606C2.90918 19.2606 3.80918 20.1606 4.90918 20.1606H20.9092C22.0092 20.1606 22.9092 19.2606 22.9092 18.1606V6.16064C22.9092 5.06064 22.0092 4.16064 20.9092 4.16064ZM20.5092 8.41064L13.4392 12.8306C13.1192 13.0306 12.6992 13.0306 12.3792 12.8306L5.30918 8.41064C5.20891 8.35436 5.1211 8.27831 5.05107 8.1871C4.98104 8.09589 4.93024 7.99142 4.90176 7.88002C4.87327 7.76861 4.86768 7.65258 4.88534 7.53895C4.90299 7.42532 4.94352 7.31646 5.00446 7.21895C5.06541 7.12143 5.1455 7.0373 5.23991 6.97164C5.33431 6.90598 5.44105 6.86016 5.55368 6.83694C5.6663 6.81373 5.78246 6.81361 5.89513 6.83659C6.00781 6.85957 6.11464 6.90518 6.20918 6.97064L12.9092 11.1606L19.6092 6.97064C19.7037 6.90518 19.8106 6.85957 19.9232 6.83659C20.0359 6.81361 20.1521 6.81373 20.2647 6.83694C20.3773 6.86016 20.4841 6.90598 20.5785 6.97164C20.6729 7.0373 20.753 7.12143 20.8139 7.21895C20.8748 7.31646 20.9154 7.42532 20.933 7.53895C20.9507 7.65258 20.9451 7.76861 20.9166 7.88002C20.8881 7.99142 20.8373 8.09589 20.7673 8.1871C20.6973 8.27831 20.6095 8.35436 20.5092 8.41064Z" fill="black"/>
</svg>
