<svg width="25" height="25" viewBox="0 0 25 25" fill="none" xmlns="http://www.w3.org/2000/svg">
<path d="M12.3984 4.80502C7.39844 4.80502 3.12844 7.91502 1.39844 12.305C3.12844 16.695 7.39844 19.805 12.3984 19.805C17.3984 19.805 21.6684 16.695 23.3984 12.305C21.6684 7.91502 17.3984 4.80502 12.3984 4.80502ZM12.3984 17.305C9.63844 17.305 7.39844 15.065 7.39844 12.305C7.39844 9.54502 9.63844 7.30502 12.3984 7.30502C15.1584 7.30502 17.3984 9.54502 17.3984 12.305C17.3984 15.065 15.1584 17.305 12.3984 17.305ZM12.3984 9.30502C10.7384 9.30502 9.39844 10.645 9.39844 12.305C9.39844 13.965 10.7384 15.305 12.3984 15.305C14.0584 15.305 15.3984 13.965 15.3984 12.305C15.3984 10.645 14.0584 9.30502 12.3984 9.30502Z" fill="#111111"/>
</svg>
