<svg width="41" height="41" viewBox="0 0 41 41" fill="none" xmlns="http://www.w3.org/2000/svg">
<path d="M25.9521 18.7059C21.8355 23.0176 17.7171 33.6009 17.7171 33.6009C17.7171 33.6009 11.8338 18.7042 5.95215 15.2676" stroke="#111111" stroke-width="1.5" stroke-linecap="round" stroke-linejoin="round"/>
<path d="M35.1119 9.56294L35.8219 16.9363C36.2819 21.7196 32.6969 25.9779 27.9136 26.4396C23.2203 26.8896 18.9686 23.4596 18.5169 18.7663C18.4093 17.6502 18.5227 16.5239 18.8504 15.4517C19.1781 14.3794 19.7139 13.3823 20.4271 12.5171C21.1403 11.6519 22.0169 10.9357 23.0069 10.4094C23.9969 9.88309 25.0809 9.55694 26.1969 9.4496L34.0569 8.69294C34.1833 8.68075 34.3109 8.69359 34.4323 8.73073C34.5538 8.76786 34.6667 8.82856 34.7647 8.90935C34.8627 8.99015 34.9438 9.08945 35.0033 9.2016C35.0629 9.31374 35.0998 9.43653 35.1119 9.56294Z" stroke="#111111" stroke-width="1.5" stroke-linecap="round" stroke-linejoin="round"/>
</svg>
