<svg width="25" height="25" viewBox="0 0 25 25" fill="none" xmlns="http://www.w3.org/2000/svg">
<g clip-path="url(#clip0_342_284)">
<path d="M21.9838 8.7211V2.95547C21.9847 2.67981 21.9311 2.40669 21.8261 2.15179C21.7212 1.89689 21.5669 1.66523 21.3722 1.47011C21.1774 1.27499 20.9461 1.12025 20.6914 1.01477C20.4367 0.909297 20.1637 0.85516 19.888 0.85547H14.1257C13.7478 0.856247 13.3856 1.00598 13.1174 1.27219L1.59741 12.7889C1.20451 13.1831 0.983887 13.7169 0.983887 14.2734C0.983887 14.83 1.20451 15.3638 1.59741 15.758L7.08178 21.2423C7.4758 21.6353 8.00958 21.856 8.56608 21.856C9.12258 21.856 9.65636 21.6353 10.0504 21.2423L21.5671 9.72938C21.8334 9.46129 21.9831 9.09896 21.9838 8.7211ZM17.4838 6.85547C17.1871 6.85547 16.8971 6.7675 16.6505 6.60267C16.4038 6.43785 16.2115 6.20358 16.098 5.9295C15.9845 5.65541 15.9548 5.35381 16.0126 5.06283C16.0705 4.77186 16.2134 4.50459 16.4232 4.29481C16.6329 4.08503 16.9002 3.94217 17.1912 3.88429C17.4822 3.82641 17.7838 3.85612 18.0578 3.96965C18.3319 4.08318 18.5662 4.27544 18.731 4.52211C18.8958 4.76879 18.9838 5.0588 18.9838 5.35547C18.9838 5.75329 18.8258 6.13483 18.5445 6.41613C18.2632 6.69743 17.8816 6.85547 17.4838 6.85547Z" fill="#111111"/>
<path d="M24.2338 3.10547C24.0349 3.10547 23.8441 3.18449 23.7035 3.32514C23.5628 3.46579 23.4838 3.65656 23.4838 3.85547V9.82594L11.2349 22.0753C11.1623 22.1443 11.1043 22.227 11.0642 22.3188C11.0241 22.4105 11.0028 22.5093 11.0015 22.6094C11.0002 22.7095 11.019 22.8089 11.0567 22.9016C11.0944 22.9943 11.1503 23.0786 11.2211 23.1494C11.2919 23.2202 11.3762 23.2761 11.4689 23.3138C11.5616 23.3515 11.661 23.3703 11.7611 23.369C11.8612 23.3677 11.96 23.3464 12.0517 23.3063C12.1435 23.2662 12.2262 23.2082 12.2952 23.1356L24.5764 10.8544C24.7071 10.7231 24.8104 10.5672 24.8803 10.3958C24.9502 10.2243 24.9854 10.0406 24.9838 9.85547V3.85547C24.9838 3.65656 24.9048 3.46579 24.7641 3.32514C24.6235 3.18449 24.4327 3.10547 24.2338 3.10547Z" fill="#111111"/>
</g>
<defs>
<clipPath id="clip0_342_284">
<rect width="24" height="24" fill="white" transform="translate(0.983887 0.105469)"/>
</clipPath>
</defs>
</svg>
