<svg width="268" height="130" viewBox="0 0 268 130" fill="none" xmlns="http://www.w3.org/2000/svg">
<path fill-rule="evenodd" clip-rule="evenodd" d="M47.05 24.7041C36.2723 27.7382 29.1523 38.8073 31.112 49.4824C35.1072 71.2407 63.5172 75.182 72.9106 55.2809C80.7503 38.6708 64.7286 19.7266 47.05 24.7041ZM89.0141 24.2105C88.4874 24.3631 88.0386 24.5326 88.0158 24.5857C87.6392 25.4693 81.2052 66.0468 81.3667 66.5182C81.8317 67.8745 86.5552 68.403 87.725 67.2296C88.003 66.9499 88.5042 65.0442 88.8379 62.9939L89.4456 59.2658L93.1265 59.1031C95.1513 59.0143 96.8082 59.0305 96.8082 59.1401C96.8082 59.6088 97.9867 65.9351 98.2306 66.7757C98.8986 69.0768 105.012 68.3022 105.012 65.9156C105.012 63.1707 98.5281 25.3658 97.9592 24.7949C97.3147 24.1486 90.7105 23.7169 89.0141 24.2105ZM113.08 24.7222C111.049 25.8277 111.069 25.9488 115.166 37.0502L118.757 46.7805L115.44 55.7355C111.537 66.2714 111.512 66.4765 114.019 67.5275C117.917 69.1622 118.343 68.8724 120.322 63.2454C122.694 56.498 122.613 56.5081 124.819 62.6704L126.744 68.0486L129.039 67.9989C130.57 67.9653 131.706 67.5759 132.45 66.8295L133.564 65.7106L130.227 56.6722C126.184 45.7207 126.157 47.7939 130.49 36.1915C134.466 25.5473 134.467 25.4707 130.694 24.3362C127.632 23.415 127.351 23.7109 124.981 30.3614C123.657 34.0766 122.655 36.1686 122.41 35.7288C122.189 35.3328 121.225 32.8091 120.268 30.12C117.864 23.3699 116.897 22.6437 113.08 24.7222ZM147.933 24.351C146.942 24.7801 146.487 26.9211 143.651 44.5184C141.905 55.3468 140.351 64.7416 140.199 65.3958C139.849 66.8907 141.657 67.9727 144.336 67.8718C146.836 67.777 147.015 67.5309 147.817 63.0786L148.504 59.2658L152.147 59.1044L155.79 58.943L156.463 63.129C157.289 68.2665 160.868 70.1763 163.562 66.9176C164.303 66.0219 158.02 25.7901 156.976 24.7424C156.249 24.0121 149.4 23.7162 147.933 24.351ZM179.311 24.6436C172.442 27.2856 171.739 29.2955 171.739 46.3004C171.739 58.9215 171.81 59.8912 172.911 62.1735C175.984 68.5449 186.043 70.3269 190.719 65.3279C192.739 63.168 194.616 57.6385 193.78 56.3084C192.544 54.3415 187.479 54.5345 187.159 56.5606C186.385 61.4587 180.994 62.936 179.386 58.6909C178.61 56.6433 178.689 35.0705 179.477 33.5669C181.378 29.9431 187.053 31.1777 187.053 35.2151C187.053 37.3689 191.138 38.4448 193.298 36.8599C195.452 35.2796 192.492 27.4954 188.947 25.4175C186.655 24.074 181.805 23.6846 179.311 24.6436ZM208.11 24.3463C207.14 24.768 206.629 27.1592 203.583 45.5768C199.753 68.7251 199.74 67.9323 203.953 67.8738C207.045 67.8314 207.13 67.7279 207.873 63.0994L208.533 58.9915H212.247H215.961L216.63 63.1532C217.449 68.2484 221.036 70.1695 223.706 66.9418C224.417 66.0811 218.118 25.7248 217.115 24.7182C216.409 24.0094 209.54 23.7257 208.11 24.3463ZM60.1846 30.087C73.5686 36.4726 73.6295 55.6817 60.2865 62.0464C49.3534 67.2626 39.4575 50.4467 45.8225 37.4698C49.5852 29.7992 54.3965 27.3259 60.1846 30.087ZM94.3171 43.7585C94.8236 47.1551 95.3617 50.366 95.5131 50.8945C95.7462 51.7095 95.4092 51.8548 93.29 51.8548C91.9158 51.8548 90.7936 51.6699 90.7956 51.4432C90.7976 51.2166 91.2881 48.1906 91.8857 44.7188C92.4833 41.2469 92.9738 38.2209 92.9758 37.9943C92.9919 36.2016 93.5439 38.576 94.3171 43.7585ZM152.412 51.7519C149.577 51.9819 149.62 52.1184 150.633 45.9863C152.189 36.5808 152.152 36.6017 153.396 44.4444L154.529 51.5804L152.412 51.7519ZM212.579 51.7519C209.705 51.9846 209.739 52.1016 210.794 45.4148C212.11 37.0791 212.242 37.0462 213.54 44.7188L214.701 51.5804L212.579 51.7519ZM68.504 80.7633C67.9895 80.9717 67.82 83.7402 67.82 91.973V102.906L71.7857 102.898C76.4147 102.888 76.8 102.707 77.9175 100.023C79.0009 97.4198 78.9902 94.4388 77.8914 92.755C77.0988 91.5412 77.0988 91.318 77.8914 90.1822C79.5979 87.7359 78.1748 81.8735 75.6389 80.9058C74.2526 80.3766 69.6832 80.2858 68.504 80.7633ZM84.0916 80.9926C83.1181 81.5615 82.5787 99.7162 83.4665 102.037C84.0031 103.44 91.6579 103.29 92.0284 101.869C92.4612 100.208 91.5333 99.3389 89.3075 99.3215L87.2366 99.3046L87.0711 96.4393L86.9062 93.5741H88.8486C90.6428 93.5741 90.7916 93.4483 90.7916 91.9272C90.7916 90.4115 90.6395 90.2804 88.8774 90.2804H86.9632V87.2611V84.2425H89.4241C92.0405 84.2425 93.2465 81.5904 91.0207 80.733C89.6553 80.2072 85.1462 80.3759 84.0916 80.9926ZM97.0594 81.1795C96.0055 81.9609 96.0176 82.0597 97.7703 87.0876L99.5532 92.2016L97.8118 97.0506C96.3539 101.111 96.1971 101.98 96.8497 102.395C98.5723 103.489 99.4607 102.92 100.532 100.038L101.598 97.1703L102.613 100.038C103.619 102.882 104.423 103.437 106.044 102.407C106.953 101.829 106.737 100.59 104.879 95.74L103.501 92.1424L105.349 87.2315C107.393 81.8022 107.369 80.7902 105.209 81.0491C104.013 81.1923 103.564 81.7397 102.649 84.1659L101.538 87.1085L100.403 83.9325C99.1505 80.4244 98.6426 80.0061 97.0594 81.1795ZM110.299 80.766C108.806 82.2642 109.992 84.2425 112.382 84.2425H114.831L114.981 93.4369L115.131 102.632L116.635 102.805L118.139 102.979L118.222 94.8457C118.268 90.3725 118.363 86.4656 118.432 86.1637C118.502 85.8618 118.588 85.3056 118.623 84.9284C118.663 84.4906 119.576 84.2425 121.147 84.2425C123.763 84.2425 124.969 81.5904 122.743 80.733C121.566 80.2798 110.755 80.308 110.299 80.766ZM137.021 81.1459C136.284 81.6865 136.183 83.2473 136.312 92.2036L136.461 102.632H138.102H139.742L140.016 97.5146L140.29 92.3973L141.876 97.1037C144.481 104.834 145.953 104.963 148.572 97.6894L150.349 92.751L150.387 97.1421C150.43 102.131 150.81 103.079 152.657 102.817L153.963 102.632L154.111 92.09C154.25 82.244 154.192 81.5124 153.23 80.9953C151.559 80.0982 150.714 81.2925 148.215 88.0849C146.938 91.5567 145.711 94.5989 145.489 94.845C145.267 95.0911 143.884 92.0806 142.414 88.1541C139.702 80.9065 138.852 79.8023 137.021 81.1459ZM159.284 80.8594C158.751 81.199 158.623 83.8027 158.737 91.9676L158.886 102.632L163.124 102.792L167.363 102.952V101.341C167.363 99.5884 166.597 99.0632 164.037 99.0632C161.398 99.0632 161.57 93.7281 164.218 93.4718C165.704 93.3279 165.996 93.0744 165.996 91.9272C165.996 90.78 165.704 90.5265 164.218 90.3833C162.452 90.2118 162.441 90.1923 162.441 87.2268V84.2425H164.902C167.518 84.2425 168.724 81.5904 166.498 80.733C165.243 80.2495 160.1 80.3403 159.284 80.8594ZM172.384 81.0175C170.95 81.5521 170.942 81.4976 173.413 87.9679L174.94 91.9682L173.203 96.902C171.701 101.168 171.576 101.908 172.286 102.363C174.043 103.491 174.918 102.949 175.841 100.161C176.341 98.6517 176.832 97.4164 176.935 97.4164C177.037 97.4164 177.529 98.6517 178.028 100.161C178.913 102.834 179.484 103.259 181.265 102.573C182.459 102.113 182.372 101.438 180.474 96.4521L178.819 92.1001L180.766 86.9794C182.805 81.6179 182.746 80.9764 180.212 80.9569C179.372 80.9509 178.849 81.6852 177.972 84.1053L176.828 87.2611L175.831 84.1282C174.745 80.7108 174.294 80.3047 172.384 81.0175ZM74.8556 85.4274C75.5109 87.2046 74.9327 89.2166 73.6275 89.7041C71.6751 90.4324 71.1016 89.8023 71.1016 86.9283C71.1016 83.8538 73.868 82.7477 74.8556 85.4274ZM74.6292 94.8268C75.937 96.8307 75.0204 99.3336 72.9776 99.3363C71.4299 99.3383 71.3696 99.2394 71.2102 96.4562C71.0199 93.145 72.9354 92.2325 74.6292 94.8268Z" fill="black"/>
</svg>
