<svg width="25" height="25" viewBox="0 0 25 25" fill="none" xmlns="http://www.w3.org/2000/svg">
<path d="M5.55078 21.1968V14.1968C5.55078 13.6468 5.74678 13.1758 6.13878 12.7838C6.53011 12.3924 7.00078 12.1968 7.55078 12.1968H8.55078V10.1968H7.55078C7.00078 10.1968 6.53011 10.0008 6.13878 9.60878C5.74678 9.21744 5.55078 8.74678 5.55078 8.19678V5.19678C5.55078 4.64678 5.74678 4.17578 6.13878 3.78378C6.53011 3.39244 7.00078 3.19678 7.55078 3.19678H17.5508C18.1008 3.19678 18.5718 3.39244 18.9638 3.78378C19.3551 4.17578 19.5508 4.64678 19.5508 5.19678V8.19678C19.5508 8.74678 19.3551 9.21744 18.9638 9.60878C18.5718 10.0008 18.1008 10.1968 17.5508 10.1968H16.5508V12.1968H17.5508C18.1008 12.1968 18.5718 12.3924 18.9638 12.7838C19.3551 13.1758 19.5508 13.6468 19.5508 14.1968V21.1968H17.5508V18.1968H7.55078V21.1968H5.55078ZM10.5508 12.1968H14.5508V10.1968H10.5508V12.1968Z" fill="#111111"/>
</svg>
