<svg width="25" height="25" viewBox="0 0 25 25" fill="none" xmlns="http://www.w3.org/2000/svg">
<path d="M6.90918 22.8706C6.35918 22.8706 5.88851 22.6749 5.49718 22.2836C5.10518 21.8916 4.90918 21.4206 4.90918 20.8706V10.8706C4.90918 10.3206 5.10518 9.84961 5.49718 9.45761C5.88851 9.06627 6.35918 8.87061 6.90918 8.87061H7.90918V6.87061C7.90918 5.48727 8.39685 4.30794 9.37218 3.33261C10.3468 2.35794 11.5258 1.87061 12.9092 1.87061C14.2925 1.87061 15.4718 2.35794 16.4472 3.33261C17.4218 4.30794 17.9092 5.48727 17.9092 6.87061V8.87061H18.9092C19.4592 8.87061 19.9302 9.06627 20.3222 9.45761C20.7135 9.84961 20.9092 10.3206 20.9092 10.8706V20.8706C20.9092 21.4206 20.7135 21.8916 20.3222 22.2836C19.9302 22.6749 19.4592 22.8706 18.9092 22.8706H6.90918ZM12.9092 17.8706C13.4592 17.8706 13.9302 17.6749 14.3222 17.2836C14.7135 16.8916 14.9092 16.4206 14.9092 15.8706C14.9092 15.3206 14.7135 14.8496 14.3222 14.4576C13.9302 14.0663 13.4592 13.8706 12.9092 13.8706C12.3592 13.8706 11.8885 14.0663 11.4972 14.4576C11.1052 14.8496 10.9092 15.3206 10.9092 15.8706C10.9092 16.4206 11.1052 16.8916 11.4972 17.2836C11.8885 17.6749 12.3592 17.8706 12.9092 17.8706ZM9.90918 8.87061H15.9092V6.87061C15.9092 6.03727 15.6175 5.32894 15.0342 4.74561C14.4508 4.16227 13.7425 3.87061 12.9092 3.87061C12.0758 3.87061 11.3675 4.16227 10.7842 4.74561C10.2008 5.32894 9.90918 6.03727 9.90918 6.87061V8.87061Z" fill="black"/>
</svg>
