<svg width="42" height="44" viewBox="0 0 42 44" fill="none" xmlns="http://www.w3.org/2000/svg">
<g clip-path="url(#clip0_342_456)">
<path d="M20.5633 3.14258C19.4358 5.91966 18.3083 8.69675 18.3254 11.4022C18.3425 12.4772 18.5304 13.5163 18.8208 14.6272C18.6874 14.3462 18.5332 14.0766 18.3596 13.8209C16.9246 11.7247 14.0888 9.93299 11.2358 8.14133C11.2358 9.57466 11.2358 10.9901 11.5433 12.3697L22.34 23.693V20.1455C24.9025 18.533 27.3283 16.8847 28.6096 15.0034C30.0275 12.9251 30.0275 10.5242 30.0275 8.14133C27.1746 9.93299 24.3388 11.7247 22.9038 13.8209C22.7329 14.0717 22.5963 14.3226 22.4596 14.5734C22.7671 13.4447 22.955 12.298 22.9379 11.1692C22.9208 8.46383 21.7421 5.79425 20.5633 3.14258ZM5.73501 10.8288L3.54834 13.1042L11.475 21.4176C11.6629 22.4747 12.0046 23.4601 12.6538 24.4097C13.935 26.2909 16.3608 27.9392 18.9233 29.5517V33.6367L18.3596 32.6334C16.9246 30.5372 14.0888 28.7455 11.2358 26.9538C11.2358 29.3367 11.2358 31.7376 12.6538 33.8159C13.935 35.6972 16.3608 37.3455 18.9233 38.958V42.183H22.34V38.958C23.6042 38.1697 24.8171 37.3634 25.8763 36.5213L32.1288 43.0788L34.2983 40.7855C24.0483 30.0534 15.6775 21.2563 5.73501 10.8288ZM30.0275 17.5476C27.1746 19.3392 24.3388 21.1309 22.9038 23.2272L22.545 23.8901L25.7567 27.2405C26.9013 26.3447 27.9263 25.413 28.6096 24.4097C30.0275 22.3313 30.0275 19.9305 30.0275 17.5476ZM30.0275 26.9538C29.0538 27.563 28.1142 28.1722 27.2088 28.7992L29.6688 31.3792C30.0275 29.9459 30.0275 28.4409 30.0275 26.9538Z" fill="#111111"/>
</g>
<defs>
<clipPath id="clip0_342_456">
<rect width="41" height="43" fill="white" transform="translate(0.131836 0.974609)"/>
</clipPath>
</defs>
</svg>
