<svg width="17" height="17" viewBox="0 0 17 17" fill="none" xmlns="http://www.w3.org/2000/svg">
<path d="M8.90918 8.63037C7.80918 8.63037 6.86751 8.2387 6.08418 7.45537C5.30085 6.67204 4.90918 5.73037 4.90918 4.63037C4.90918 3.53037 5.30085 2.5887 6.08418 1.80537C6.86751 1.02204 7.80918 0.630371 8.90918 0.630371C10.0092 0.630371 10.9508 1.02204 11.7342 1.80537C12.5175 2.5887 12.9092 3.53037 12.9092 4.63037C12.9092 5.73037 12.5175 6.67204 11.7342 7.45537C10.9508 8.2387 10.0092 8.63037 8.90918 8.63037ZM0.90918 16.6304V13.8304C0.90918 13.2637 1.05518 12.7427 1.34718 12.2674C1.63851 11.7927 2.02585 11.4304 2.50918 11.1804C3.54251 10.6637 4.59251 10.276 5.65918 10.0174C6.72585 9.75937 7.80918 9.63037 8.90918 9.63037C10.0092 9.63037 11.0925 9.75937 12.1592 10.0174C13.2258 10.276 14.2758 10.6637 15.3092 11.1804C15.7925 11.4304 16.1798 11.7927 16.4712 12.2674C16.7632 12.7427 16.9092 13.2637 16.9092 13.8304V16.6304H0.90918Z" fill="black"/>
</svg>
