<svg width="23" height="16" viewBox="0 0 23 16" fill="none" xmlns="http://www.w3.org/2000/svg">
<path d="M11.8682 0.805054C6.86816 0.805054 2.59816 3.91505 0.868164 8.30505C2.59816 12.6951 6.86816 15.8051 11.8682 15.8051C16.8682 15.8051 21.1382 12.6951 22.8682 8.30505C21.1382 3.91505 16.8682 0.805054 11.8682 0.805054ZM11.8682 13.3051C9.10816 13.3051 6.86816 11.0651 6.86816 8.30505C6.86816 5.54505 9.10816 3.30505 11.8682 3.30505C14.6282 3.30505 16.8682 5.54505 16.8682 8.30505C16.8682 11.0651 14.6282 13.3051 11.8682 13.3051ZM11.8682 5.30505C10.2082 5.30505 8.86816 6.64505 8.86816 8.30505C8.86816 9.96505 10.2082 11.3051 11.8682 11.3051C13.5282 11.3051 14.8682 9.96505 14.8682 8.30505C14.8682 6.64505 13.5282 5.30505 11.8682 5.30505Z" fill="#111111"/>
</svg>
