<svg width="66" height="66" viewBox="0 0 66 66" fill="none" xmlns="http://www.w3.org/2000/svg">
<path d="M32.6613 53.3621L17.3988 65.0152C16.6425 65.634 15.8175 65.9255 14.9238 65.8897C14.03 65.8567 13.2394 65.5996 12.5519 65.1184C11.8644 64.6371 11.3323 63.984 10.9555 63.159C10.576 62.334 10.5582 61.4402 10.9019 60.4777L16.78 41.3996L1.82693 30.7777C1.00193 30.2277 0.4863 29.5059 0.28005 28.6121C0.0738001 27.7184 0.108175 26.8934 0.383175 26.1371C0.658175 25.3809 1.13943 24.7099 1.82693 24.1241C2.51443 23.5411 3.33942 23.2496 4.30192 23.2496H22.7613L28.7425 3.44961C29.0863 2.48711 29.6198 1.74736 30.343 1.23036C31.0635 0.71611 31.8363 0.458984 32.6613 0.458984C33.4863 0.458984 34.2591 0.71611 34.9796 1.23036C35.7028 1.74736 36.2363 2.48711 36.5801 3.44961L42.5613 23.2496H61.0207C61.9832 23.2496 62.8082 23.5411 63.4957 24.1241C64.1832 24.7099 64.6644 25.3809 64.9394 26.1371C65.2144 26.8934 65.2488 27.7184 65.0425 28.6121C64.8363 29.5059 64.3207 30.2277 63.4957 30.7777L48.5426 41.3996L54.4207 60.4777C54.7644 61.4402 54.7479 62.334 54.3712 63.159C53.9917 63.984 53.4582 64.6371 52.7707 65.1184C52.0832 65.5996 51.2925 65.8567 50.3988 65.8897C49.505 65.9255 48.68 65.634 47.9238 65.0152L32.6613 53.3621Z" fill="#FFC700"/>
</svg>
