<svg width="192" height="107" viewBox="0 0 192 107" fill="none" xmlns="http://www.w3.org/2000/svg">
<path fill-rule="evenodd" clip-rule="evenodd" d="M173.707 37.4288V105.211H159.174V61.6264H36.1625V105.211H21.6289V37.497C114.789 37.4533 87.5839 37.4661 173.708 37.4277L173.707 37.4288Z" fill="black"/>
<path fill-rule="evenodd" clip-rule="evenodd" d="M184.043 66.9715V0.12207H191.662V106.504H184.043V77.8499H143.77V106.504H136.153L136.155 66.9743L184.043 66.9715Z" fill="black"/>
<path fill-rule="evenodd" clip-rule="evenodd" d="M51.7078 32.6264C50.781 34.2467 48.9605 35.6317 46.5839 36.5851H31.2355C28.8589 35.6317 27.0393 34.2458 26.1115 32.6264H22.758C20.8554 32.6264 20.8554 29.73 22.758 29.73H55.0605C56.9631 29.73 56.9631 32.6264 55.0605 32.6264H51.707H51.7078Z" fill="black"/>
<path fill-rule="evenodd" clip-rule="evenodd" d="M168.259 32.6264C167.332 34.2467 165.511 35.6317 163.135 36.5851H147.786C145.41 35.6317 143.59 34.2458 142.662 32.6264H139.309C137.406 32.6264 137.406 29.73 139.309 29.73H171.611C173.514 29.73 173.514 32.6264 171.611 32.6264H168.258H168.259Z" fill="black"/>
<path fill-rule="evenodd" clip-rule="evenodd" d="M85.3548 28.4593C84.5058 31.7894 82.8365 34.6348 80.6568 36.5959H66.5814C64.404 34.6347 62.7337 31.7905 61.8834 28.4593H58.8092C57.0643 28.4593 57.0643 22.5088 58.8092 22.5088H88.431C90.1748 22.5088 90.1748 28.4593 88.431 28.4593H85.3548Z" fill="black"/>
<path fill-rule="evenodd" clip-rule="evenodd" d="M133.483 28.4593C132.634 31.7894 130.964 34.6348 128.785 36.5959H114.709C112.532 34.6347 110.862 31.7905 110.011 28.4593H106.937C105.18 28.4593 105.18 22.5088 106.937 22.5088H136.559C138.314 22.5088 138.314 28.4593 136.559 28.4593H133.483Z" fill="black"/>
<path fill-rule="evenodd" clip-rule="evenodd" d="M92.0742 13.3324H94.4263V5.21924H99.5418V13.3324H101.894V36.9185H92.0742V13.3324ZM93.2055 17.0066H100.765V19.7294H93.2055V17.0066ZM94.4775 21.091H99.494V32.1123H94.4775V21.091Z" fill="black"/>
<path fill-rule="evenodd" clip-rule="evenodd" d="M94.4141 1.9248H99.5541V4.27268H94.4141V1.9248Z" fill="black"/>
<path fill-rule="evenodd" clip-rule="evenodd" d="M94.4033 4.44434H99.5698V5.01853H94.4033V4.44434Z" fill="black"/>
<path fill-rule="evenodd" clip-rule="evenodd" d="M8.3846 66.9715V0.12207H0.765625V106.504H8.3846V77.8499H48.6584V106.504H56.2763L56.2731 66.9743L8.3846 66.9715Z" fill="black"/>
</svg>
