<svg width="60" height="60" viewBox="0 0 60 60" fill="none" xmlns="http://www.w3.org/2000/svg">
<circle cx="29.965" cy="30.0597" r="29.2814" fill="#9EC2CC" stroke="black"/>
<path d="M20.9859 37.7245C13.4748 42.3081 10.9637 45.2841 10.686 51.5897C26.2666 61.0659 34.7173 61.1323 49.2444 51.5897C48.6092 44.3106 46.5424 40.2087 40.3441 37.7245C32.3781 34.8899 27.9475 34.1361 20.9859 37.7245Z" fill="black" stroke="black"/>
<path fill-rule="evenodd" clip-rule="evenodd" d="M27.2726 7.62819C22.2874 9.03159 18.9941 14.1516 19.9005 19.0893C21.7485 29.1535 34.8894 30.9765 39.2343 21.7714C42.8605 14.0884 35.4497 5.32589 27.2726 7.62819ZM33.348 10.118C39.5386 13.0717 39.5668 21.9567 33.3951 24.9007C28.338 27.3134 23.7607 19.5353 26.7048 13.5329C28.4453 9.98492 30.6707 8.84093 33.348 10.118Z" fill="black"/>
</svg>
