<svg width="268" height="130" viewBox="0 0 268 130" fill="none" xmlns="http://www.w3.org/2000/svg">
<path fill-rule="evenodd" clip-rule="evenodd" d="M47.05 24.7942C36.2723 27.8283 29.1523 38.8975 31.112 49.5726C35.1072 71.3309 63.5172 75.2721 72.9106 55.3711C80.7503 38.761 64.7286 19.8168 47.05 24.7942ZM89.0141 24.3007C88.4875 24.4533 88.0386 24.6228 88.0158 24.6759C87.6392 25.5595 81.2052 66.1369 81.3667 66.6083C81.8317 67.9646 86.5552 68.4932 87.725 67.3198C88.003 67.04 88.5042 65.1343 88.8379 63.084L89.4456 59.356L93.1265 59.1933C95.1513 59.1045 96.8082 59.1206 96.8082 59.2302C96.8082 59.6989 97.9867 66.0253 98.2306 66.8659C98.8986 69.167 105.012 68.3923 105.012 66.0058C105.012 63.2609 98.5281 25.4559 97.9592 24.885C97.3147 24.2388 90.7105 23.8071 89.0141 24.3007ZM113.08 24.8124C111.049 25.9179 111.069 26.0389 115.166 37.1404L118.757 46.8707L115.44 55.8256C111.537 66.3615 111.512 66.5666 114.019 67.6177C117.917 69.2524 118.343 68.9626 120.322 63.3355C122.694 56.5882 122.613 56.5983 124.819 62.7606L126.744 68.1388L129.039 68.0891C130.57 68.0554 131.706 67.6661 132.45 66.9197L133.564 65.8007L130.227 56.7624C126.184 45.8109 126.157 47.884 130.49 36.2816C134.466 25.6375 134.467 25.5608 130.694 24.4264C127.632 23.5052 127.351 23.801 124.981 30.4515C123.657 34.1668 122.655 36.2588 122.41 35.819C122.189 35.4229 121.225 32.8992 120.268 30.2101C117.864 23.4601 116.897 22.7339 113.08 24.8124ZM147.933 24.4412C146.942 24.8702 146.487 27.0113 143.651 44.6086C141.905 55.437 140.351 64.8317 140.199 65.486C139.849 66.9809 141.657 68.0628 144.336 67.962C146.836 67.8671 147.015 67.621 147.817 63.1688L148.504 59.356L152.147 59.1946L155.79 59.0332L156.463 63.2192C157.289 68.3567 160.868 70.2664 163.562 67.0078C164.303 66.1121 158.02 25.8802 156.976 24.8326C156.249 24.1023 149.4 23.8064 147.933 24.4412ZM179.311 24.7337C172.442 27.3758 171.739 29.3857 171.739 46.3905C171.739 59.0117 171.81 59.9814 172.911 62.2636C175.984 68.6351 186.043 70.4171 190.719 65.4181C192.739 63.2582 194.616 57.7287 193.78 56.3986C192.544 54.4317 187.479 54.6246 187.159 56.6507C186.385 61.5488 180.994 63.0262 179.386 58.781C178.61 56.7334 178.689 35.1607 179.477 33.6571C181.378 30.0333 187.053 31.2679 187.053 35.3053C187.053 37.4591 191.138 38.535 193.298 36.9501C195.452 35.3698 192.492 27.5856 188.947 25.5077C186.655 24.1642 181.805 23.7748 179.311 24.7337ZM208.11 24.4365C207.14 24.8581 206.629 27.2493 203.583 45.667C199.753 68.8153 199.74 68.0225 203.953 67.964C207.045 67.9216 207.13 67.8181 207.873 63.1896L208.533 59.0816H212.247H215.961L216.63 63.2434C217.449 68.3385 221.036 70.2597 223.706 67.032C224.417 66.1712 218.118 25.815 217.115 24.8084C216.409 24.0996 209.54 23.8158 208.11 24.4365ZM60.1846 30.1772C73.5686 36.5627 73.6295 55.7718 60.2865 62.1366C49.3534 67.3527 39.4575 50.5368 45.8225 37.56C49.5852 29.8894 54.3965 27.4161 60.1846 30.1772ZM94.3171 43.8487C94.8236 47.2452 95.3617 50.4562 95.5131 50.9847C95.7462 51.7997 95.4092 51.9449 93.29 51.9449C91.9158 51.9449 90.7936 51.76 90.7956 51.5334C90.7976 51.3068 91.2881 48.2808 91.8857 44.8089C92.4833 41.3371 92.9738 38.3111 92.9758 38.0845C92.9919 36.2917 93.5439 38.6661 94.3171 43.8487ZM152.412 51.8421C149.577 52.072 149.62 52.2085 150.633 46.0765C152.189 36.671 152.152 36.6918 153.396 44.5346L154.529 51.6706L152.412 51.8421ZM212.579 51.8421C209.705 52.0747 209.739 52.1917 210.794 45.5049C212.111 37.1693 212.242 37.1363 213.54 44.8089L214.701 51.6706L212.579 51.8421ZM68.504 80.8534C67.9895 81.0619 67.82 83.8304 67.82 92.0631V102.996L71.7857 102.988C76.4147 102.978 76.8 102.797 77.9175 100.113C79.0009 97.5099 78.9902 94.529 77.8914 92.8452C77.0988 91.6314 77.0988 91.4082 77.8914 90.2724C79.5979 87.826 78.1748 81.9636 75.6389 80.996C74.2526 80.4668 69.6832 80.376 68.504 80.8534ZM84.0916 81.0827C83.1181 81.6516 82.5787 99.8063 83.4665 102.128C84.0031 103.53 91.6579 103.38 92.0284 101.959C92.4612 100.299 91.5333 99.4291 89.3075 99.4116L87.2366 99.3948L87.0711 96.5295L86.9063 93.6642H88.8486C90.6428 93.6642 90.7916 93.5385 90.7916 92.0174C90.7916 90.5017 90.6395 90.3706 88.8774 90.3706H86.9632V87.3513V84.3327H89.4241C92.0405 84.3327 93.2465 81.6805 91.0207 80.8232C89.6553 80.2973 85.1462 80.4661 84.0916 81.0827ZM97.0594 81.2697C96.0055 82.0511 96.0176 82.1499 97.7703 87.1778L99.5532 92.2918L97.8119 97.1408C96.3539 101.201 96.1972 102.07 96.8497 102.485C98.5723 103.579 99.4607 103.011 100.532 100.128L101.598 97.2605L102.613 100.128C103.619 102.972 104.423 103.527 106.044 102.497C106.953 101.919 106.737 100.68 104.879 95.8302L103.501 92.2326L105.349 87.3217C107.393 81.8924 107.369 80.8803 105.209 81.1392C104.013 81.2825 103.564 81.8298 102.649 84.256L101.538 87.1986L100.403 84.0227C99.1505 80.5145 98.6427 80.0963 97.0594 81.2697ZM110.299 80.8561C108.806 82.3543 109.992 84.3327 112.382 84.3327H114.831L114.981 93.527L115.131 102.722L116.635 102.896L118.139 103.069L118.222 94.9358C118.268 90.4627 118.363 86.5558 118.432 86.2539C118.502 85.9519 118.588 85.3958 118.623 85.0186C118.663 84.5808 119.576 84.3327 121.147 84.3327C123.763 84.3327 124.969 81.6805 122.743 80.8232C121.566 80.3699 110.755 80.3982 110.299 80.8561ZM137.021 81.2361C136.284 81.7767 136.183 83.3375 136.312 92.2938L136.461 102.722H138.102H139.742L140.016 97.6048L140.29 92.4874L141.876 97.1939C144.481 104.924 145.953 105.053 148.572 97.7796L150.349 92.8411L150.387 97.2322C150.43 102.221 150.81 103.169 152.657 102.907L153.963 102.722L154.111 92.1801C154.25 82.3342 154.192 81.6025 153.23 81.0854C151.559 80.1884 150.714 81.3826 148.215 88.175C146.938 91.6469 145.711 94.689 145.489 94.9351C145.267 95.1813 143.884 92.1707 142.414 88.2443C139.702 80.9967 138.852 79.8925 137.021 81.2361ZM159.284 80.9496C158.751 81.2892 158.623 83.8929 158.737 92.0577L158.886 102.722L163.124 102.882L167.363 103.042V101.431C167.363 99.6786 166.597 99.1534 164.037 99.1534C161.398 99.1534 161.57 93.8182 164.218 93.562C165.704 93.4181 165.996 93.1646 165.996 92.0174C165.996 90.8702 165.704 90.6167 164.218 90.4735C162.452 90.302 162.441 90.2825 162.441 87.317V84.3327H164.902C167.518 84.3327 168.724 81.6805 166.498 80.8232C165.243 80.3397 160.1 80.4305 159.284 80.9496ZM172.384 81.1076C170.95 81.6422 170.942 81.5877 173.413 88.058L174.94 92.0584L173.203 96.9922C171.701 101.258 171.576 101.998 172.286 102.453C174.043 103.581 174.918 103.039 175.841 100.252C176.341 98.7419 176.832 97.5066 176.935 97.5066C177.037 97.5066 177.529 98.7419 178.028 100.252C178.913 102.924 179.484 103.349 181.265 102.663C182.459 102.204 182.372 101.528 180.474 96.5423L178.819 92.1902L180.766 87.0695C182.805 81.7081 182.746 81.0666 180.212 81.0471C179.372 81.041 178.849 81.7754 177.972 84.1955L176.828 87.3513L175.831 84.2184C174.745 80.801 174.294 80.3948 172.384 81.1076ZM74.8556 85.5175C75.5109 87.2948 74.9327 89.3068 73.6275 89.7943C71.6751 90.5225 71.1016 89.8925 71.1016 87.0184C71.1016 83.944 73.8681 82.8378 74.8556 85.5175ZM74.6292 94.917C75.937 96.9209 75.0205 99.4237 72.9776 99.4264C71.4299 99.4284 71.3696 99.3296 71.2102 96.5463C71.0199 93.2352 72.9354 92.3227 74.6292 94.917Z" fill="black"/>
</svg>
