<svg width="38" height="38" viewBox="0 0 38 38" fill="none" xmlns="http://www.w3.org/2000/svg">
<g filter="url(#filter0_d_42_25)">
<path d="M16.75 18H28V15H19.75L16.75 18ZM10 18H13.675L22.525 9.225C22.675 9.075 22.75 8.8875 22.75 8.6625C22.75 8.4375 22.675 8.25 22.525 8.1L19.9 5.475C19.75 5.325 19.5625 5.25 19.3375 5.25C19.1125 5.25 18.925 5.325 18.775 5.475L10 14.325V18ZM4 30V3C4 2.175 4.294 1.4685 4.882 0.8805C5.469 0.2935 6.175 0 7 0H31C31.825 0 32.5315 0.2935 33.1195 0.8805C33.7065 1.4685 34 2.175 34 3V21C34 21.825 33.7065 22.5315 33.1195 23.1195C32.5315 23.7065 31.825 24 31 24H10L4 30ZM7 22.7625L8.7625 21H31V3H7V22.7625Z" fill="#111111"/>
</g>
<defs>
<filter id="filter0_d_42_25" x="0" y="0" width="38" height="38" filterUnits="userSpaceOnUse" color-interpolation-filters="sRGB">
<feFlood flood-opacity="0" result="BackgroundImageFix"/>
<feColorMatrix in="SourceAlpha" type="matrix" values="0 0 0 0 0 0 0 0 0 0 0 0 0 0 0 0 0 0 127 0" result="hardAlpha"/>
<feOffset dy="4"/>
<feGaussianBlur stdDeviation="2"/>
<feComposite in2="hardAlpha" operator="out"/>
<feColorMatrix type="matrix" values="0 0 0 0 0 0 0 0 0 0 0 0 0 0 0 0 0 0 0.25 0"/>
<feBlend mode="normal" in2="BackgroundImageFix" result="effect1_dropShadow_42_25"/>
<feBlend mode="normal" in="SourceGraphic" in2="effect1_dropShadow_42_25" result="shape"/>
</filter>
</defs>
</svg>
