<svg width="75" height="75" viewBox="0 0 75 75" fill="none" xmlns="http://www.w3.org/2000/svg">
<circle cx="37.9282" cy="37.2979" r="36.5625" fill="#9EC2CC" stroke="black"/>
<path d="M26.7535 46.835C17.4062 52.5391 14.2811 56.2427 13.9355 64.09C33.3254 75.883 43.8422 75.9656 61.9209 64.09C61.1304 55.0312 58.5583 49.9265 50.8446 46.835C40.931 43.3073 35.4172 42.3692 26.7535 46.835Z" fill="black" stroke="black"/>
<path fill-rule="evenodd" clip-rule="evenodd" d="M34.5774 9.37986C28.3735 11.1264 24.275 17.4981 25.403 23.643C27.7028 36.1678 44.0565 38.4365 49.4636 26.9808C53.9764 17.4195 44.7538 6.51468 34.5774 9.37986ZM42.1382 12.4784C49.8424 16.1542 49.8775 27.2115 42.1968 30.8753C35.9034 33.8779 30.207 24.1981 33.8709 16.7282C36.0368 12.3128 38.8063 10.8891 42.1382 12.4784Z" fill="black"/>
</svg>
