<svg width="37" height="32" viewBox="0 0 37 32" fill="none" xmlns="http://www.w3.org/2000/svg">
<path d="M24.5825 13.2031C19.8484 18.1615 15.1123 30.3324 15.1123 30.3324C15.1123 30.3324 8.34644 13.2012 1.58252 9.24902" stroke="#111111" stroke-width="1.5" stroke-linecap="round" stroke-linejoin="round"/>
<path d="M35.1164 2.68825L35.9329 11.1676C36.4619 16.6684 32.3391 21.5655 26.8383 22.0964C21.441 22.6139 16.5515 18.6694 16.0321 13.2721C15.9084 11.9886 16.0387 10.6934 16.4156 9.4603C16.7925 8.22722 17.4086 7.08047 18.2288 6.08553C19.0489 5.0906 20.0571 4.26697 21.1956 3.6617C22.3341 3.05642 23.5807 2.68135 24.8641 2.55791L33.9031 1.68775C34.0485 1.67373 34.1952 1.6885 34.3348 1.73121C34.4745 1.77391 34.6044 1.84371 34.717 1.93663C34.8297 2.02954 34.923 2.14374 34.9915 2.2727C35.06 2.40167 35.1024 2.54287 35.1164 2.68825Z" stroke="#111111" stroke-width="1.5" stroke-linecap="round" stroke-linejoin="round"/>
</svg>
