<svg width="47" height="51" viewBox="0 0 47 51" fill="none" xmlns="http://www.w3.org/2000/svg">
<g filter="url(#filter0_d_59_4024)">
<path d="M39.4727 24.7015C40.7473 23.4286 41.7195 21.8855 42.3173 20.1862C42.9151 18.4869 43.1233 16.6749 42.9264 14.8844C42.7295 13.0938 42.1325 11.3704 41.1797 9.84159C40.2269 8.31282 38.9426 7.01781 37.4218 6.05234C33.5693 3.50317 28.4135 3.484 24.5227 5.99484C21.1493 8.16067 19.2902 11.534 18.9643 15.0223C18.7152 17.5523 17.7568 19.9098 15.9935 21.6732L15.936 21.7307C13.7127 23.954 13.7127 27.3465 15.8018 29.4165L17.6993 31.314C18.7035 32.3175 20.0651 32.8812 21.4848 32.8812C22.9044 32.8812 24.266 32.3175 25.2702 31.314C27.1293 29.4548 29.5827 28.439 32.2468 28.1515C34.8727 27.864 37.441 26.714 39.4727 24.7015ZM12.831 38.3673C13.3485 39.4407 13.176 40.744 12.2752 41.6257C11.885 42.0217 11.3878 42.2953 10.8444 42.4128C10.301 42.5303 9.73518 42.4866 9.21625 42.2872C8.69732 42.0878 8.24789 41.7412 7.92307 41.2901C7.59825 40.8389 7.41218 40.3027 7.38768 39.7473C6.83229 39.7228 6.29612 39.5368 5.84496 39.2119C5.39379 38.8871 5.04723 38.4377 4.8478 37.9188C4.64837 37.3998 4.60473 36.834 4.72225 36.2906C4.83976 35.7472 5.11331 35.25 5.50935 34.8598C6.39101 33.9782 7.71351 33.7865 8.76768 34.304L13.521 29.6465C13.7893 30.0107 14.096 30.4323 14.441 30.7773L16.3385 32.6748C16.741 33.0582 17.1243 33.384 17.6227 33.6715L12.831 38.3673Z" fill="#111111"/>
</g>
<defs>
<filter id="filter0_d_59_4024" x="-3.16748" y="0.302246" width="54" height="54" filterUnits="userSpaceOnUse" color-interpolation-filters="sRGB">
<feFlood flood-opacity="0" result="BackgroundImageFix"/>
<feColorMatrix in="SourceAlpha" type="matrix" values="0 0 0 0 0 0 0 0 0 0 0 0 0 0 0 0 0 0 127 0" result="hardAlpha"/>
<feOffset dy="4"/>
<feGaussianBlur stdDeviation="2"/>
<feComposite in2="hardAlpha" operator="out"/>
<feColorMatrix type="matrix" values="0 0 0 0 0 0 0 0 0 0 0 0 0 0 0 0 0 0 0.25 0"/>
<feBlend mode="normal" in2="BackgroundImageFix" result="effect1_dropShadow_59_4024"/>
<feBlend mode="normal" in="SourceGraphic" in2="effect1_dropShadow_59_4024" result="shape"/>
</filter>
</defs>
</svg>
