<svg width="47" height="54" viewBox="0 0 47 54" fill="none" xmlns="http://www.w3.org/2000/svg">
<g filter="url(#filter0_d_59_4028)">
<path d="M23.756 2.9165C22.491 5.88734 21.226 8.85817 21.2452 11.7523C21.2643 12.9023 21.4752 14.014 21.801 15.2023C21.6513 14.9017 21.4783 14.6134 21.2835 14.3398C19.6735 12.0973 16.4918 10.1807 13.291 8.264C13.291 9.79734 13.291 11.3115 13.636 12.7873L25.7493 24.9007V21.1057C28.6243 19.3807 31.346 17.6173 32.7835 15.6048C34.3743 13.3815 34.3743 10.8132 34.3743 8.264C31.1735 10.1807 27.9918 12.0973 26.3818 14.3398C26.1902 14.6082 26.0368 14.8765 25.8835 15.1448C26.2285 13.9373 26.4394 12.7107 26.4202 11.5032C26.401 8.609 25.0785 5.75317 23.756 2.9165ZM7.11935 11.139L4.66602 13.5732L13.5593 22.4665C13.7702 23.5973 14.1535 24.6515 14.8818 25.6673C16.3193 27.6798 19.041 29.4432 21.916 31.1682V35.5382L21.2835 34.4648C19.6735 32.2223 16.4918 30.3057 13.291 28.389C13.291 30.9382 13.291 33.5065 14.8818 35.7298C16.3193 37.7423 19.041 39.5057 21.916 41.2307V44.6807H25.7493V41.2307C27.1677 40.3873 28.5285 39.5248 29.7168 38.624L36.7318 45.639L39.166 43.1857C27.666 31.7048 18.2743 22.294 7.11935 11.139ZM34.3743 18.3265C31.1735 20.2432 27.9918 22.1598 26.3818 24.4023L25.9793 25.1115L29.5827 28.6957C30.8668 27.7373 32.0168 26.7407 32.7835 25.6673C34.3743 23.444 34.3743 20.8757 34.3743 18.3265ZM34.3743 28.389C33.2818 29.0407 32.2277 29.6923 31.2118 30.3632L33.9718 33.1232C34.3743 31.5898 34.3743 29.9798 34.3743 28.389Z" fill="#111111"/>
</g>
<defs>
<filter id="filter0_d_59_4028" x="-3.16748" y="0.597168" width="54" height="54" filterUnits="userSpaceOnUse" color-interpolation-filters="sRGB">
<feFlood flood-opacity="0" result="BackgroundImageFix"/>
<feColorMatrix in="SourceAlpha" type="matrix" values="0 0 0 0 0 0 0 0 0 0 0 0 0 0 0 0 0 0 127 0" result="hardAlpha"/>
<feOffset dy="4"/>
<feGaussianBlur stdDeviation="2"/>
<feComposite in2="hardAlpha" operator="out"/>
<feColorMatrix type="matrix" values="0 0 0 0 0 0 0 0 0 0 0 0 0 0 0 0 0 0 0.25 0"/>
<feBlend mode="normal" in2="BackgroundImageFix" result="effect1_dropShadow_59_4028"/>
<feBlend mode="normal" in="SourceGraphic" in2="effect1_dropShadow_59_4028" result="shape"/>
</filter>
</defs>
</svg>
